<svg width="50" height="50" viewBox="0 0 50 50" fill="none" xmlns="http://www.w3.org/2000/svg">
<g clip-path="url(#clip0_112_474)">
<path d="M38.4318 8.55317C39.461 9.06773 39.8781 10.3191 39.3635 11.3482L36.9166 16.2422C42.3072 20.0078 45.8335 26.2587 45.8335 33.3333V35.4166C45.8335 37.7176 43.9681 39.5833 41.6668 39.5833H8.33348C6.03229 39.5833 4.16681 37.7176 4.16681 35.4166V33.3333C4.16681 26.2587 7.69302 20.0078 13.0837 16.2422L10.6367 11.3482C10.1222 10.3191 10.5393 9.06773 11.5685 8.55317C12.5976 8.0386 13.849 8.45573 14.3635 9.48485L16.7251 14.208C19.2616 13.109 22.0597 12.4999 25.0001 12.4999C27.9406 12.4999 30.7387 13.109 33.2751 14.208L35.6368 9.48485C36.1514 8.45573 37.4026 8.0386 38.4318 8.55317ZM25.0001 16.6666C15.7954 16.6666 8.33348 24.1285 8.33348 33.3333V35.4166H41.6668V33.3333C41.6668 24.1285 34.2049 16.6666 25.0001 16.6666ZM17.7085 24.9999C19.4344 24.9999 20.8335 26.3989 20.8335 28.1249C20.8335 29.8508 19.4344 31.2499 17.7085 31.2499C15.9826 31.2499 14.5835 29.8508 14.5835 28.1249C14.5835 26.3989 15.9826 24.9999 17.7085 24.9999ZM32.2918 24.9999C34.0176 24.9999 35.4168 26.3989 35.4168 28.1249C35.4168 29.8508 34.0176 31.2499 32.2918 31.2499C30.566 31.2499 29.1668 29.8508 29.1668 28.1249C29.1668 26.3989 30.566 24.9999 32.2918 24.9999Z" fill="white"/>
</g>
<defs>
<clipPath id="clip0_112_474">
<rect width="50" height="50" fill="white"/>
</clipPath>
</defs>
</svg>
