<svg width="36" height="36" viewBox="0 0 36 36" fill="none" xmlns="http://www.w3.org/2000/svg">
<path d="M2 18.2916C2 10.6117 2 6.7717 4.38586 4.38586C6.7717 2 10.6117 2 18.2916 2C25.9715 2 29.8116 2 32.1973 4.38586C34.5833 6.7717 34.5833 10.6117 34.5833 18.2916C34.5833 25.9715 34.5833 29.8116 32.1973 32.1973C29.8116 34.5833 25.9715 34.5833 18.2916 34.5833C10.6117 34.5833 6.7717 34.5833 4.38586 32.1973C2 29.8116 2 25.9715 2 18.2916Z" stroke="white" stroke-width="2.44374"/>
<path d="M22.3646 14.2188L14.2188 22.3646M14.2188 14.2188L22.3646 22.3646" stroke="white" stroke-width="2.44374" stroke-linecap="round"/>
</svg>
