<svg width="240" height="67" viewBox="0 0 240 67" fill="none" xmlns="http://www.w3.org/2000/svg">
<path d="M168.041 21.755V14.9082L168.368 15.2557H166.355V14.6017H168.777V21.755H168.041ZM171.683 17.79C171.383 17.79 171.107 17.7185 170.855 17.5754C170.61 17.4255 170.415 17.2314 170.272 16.9929C170.129 16.7477 170.058 16.4718 170.058 16.1652C170.058 15.8654 170.129 15.5929 170.272 15.3477C170.415 15.1024 170.61 14.9082 170.855 14.7652C171.107 14.6221 171.383 14.5506 171.683 14.5506C171.989 14.5506 172.265 14.6221 172.51 14.7652C172.762 14.9082 172.96 15.1024 173.103 15.3477C173.246 15.5929 173.318 15.8654 173.318 16.1652C173.318 16.4649 173.246 16.7375 173.103 16.9827C172.96 17.228 172.762 17.4255 172.51 17.5754C172.265 17.7185 171.989 17.79 171.683 17.79ZM171.693 17.3608C171.911 17.3608 172.108 17.3063 172.285 17.1973C172.469 17.0883 172.612 16.9452 172.715 16.7681C172.817 16.591 172.868 16.39 172.868 16.1652C172.868 15.9404 172.817 15.7394 172.715 15.5623C172.612 15.3783 172.469 15.2353 172.285 15.1331C172.108 15.0309 171.911 14.9798 171.693 14.9798C171.468 14.9798 171.264 15.0309 171.08 15.1331C170.902 15.2353 170.763 15.3783 170.661 15.5623C170.558 15.7394 170.507 15.9404 170.507 16.1652C170.507 16.39 170.558 16.5944 170.661 16.7783C170.763 16.9555 170.902 17.0985 171.08 17.2075C171.264 17.3097 171.468 17.3608 171.693 17.3608ZM178.556 21.755V19.0981L178.73 19.5681L175.695 14.6017H176.502L179.17 18.9652H178.74L181.408 14.6017H182.164L179.129 19.5681L179.302 19.0981V21.755H178.556ZM184.427 21.755V21.2338L187.401 18.3214C187.673 18.0557 187.878 17.8241 188.014 17.6265C188.15 17.4221 188.242 17.2314 188.29 17.0542C188.338 16.8771 188.361 16.7102 188.361 16.5535C188.361 16.1379 188.218 15.8109 187.932 15.5725C187.653 15.334 187.237 15.2148 186.686 15.2148C186.263 15.2148 185.888 15.2795 185.561 15.409C185.241 15.5384 184.965 15.7394 184.734 16.0119L184.213 15.5623C184.492 15.2353 184.85 14.9832 185.286 14.8061C185.722 14.6289 186.209 14.5404 186.747 14.5404C187.231 14.5404 187.65 14.6187 188.004 14.7754C188.358 14.9253 188.631 15.1467 188.821 15.4396C189.019 15.7326 189.118 16.0766 189.118 16.4718C189.118 16.7034 189.084 16.9316 189.016 17.1564C188.954 17.3813 188.838 17.6197 188.668 17.8718C188.505 18.117 188.263 18.3963 187.943 18.7097L185.214 21.3871L185.01 21.101H189.445V21.755H184.427ZM191.564 17.79C191.264 17.79 190.988 17.7185 190.736 17.5754C190.491 17.4255 190.297 17.2314 190.153 16.9929C190.01 16.7477 189.939 16.4718 189.939 16.1652C189.939 15.8654 190.01 15.5929 190.153 15.3477C190.297 15.1024 190.491 14.9082 190.736 14.7652C190.988 14.6221 191.264 14.5506 191.564 14.5506C191.87 14.5506 192.146 14.6221 192.391 14.7652C192.644 14.9082 192.841 15.1024 192.984 15.3477C193.127 15.5929 193.199 15.8654 193.199 16.1652C193.199 16.4649 193.127 16.7375 192.984 16.9827C192.841 17.228 192.644 17.4255 192.391 17.5754C192.146 17.7185 191.87 17.79 191.564 17.79ZM191.574 17.3608C191.792 17.3608 191.99 17.3063 192.167 17.1973C192.351 17.0883 192.494 16.9452 192.596 16.7681C192.698 16.591 192.749 16.39 192.749 16.1652C192.749 15.9404 192.698 15.7394 192.596 15.5623C192.494 15.3783 192.351 15.2353 192.167 15.1331C191.99 15.0309 191.792 14.9798 191.574 14.9798C191.349 14.9798 191.145 15.0309 190.961 15.1331C190.784 15.2353 190.644 15.3783 190.542 15.5623C190.44 15.7394 190.389 15.9404 190.389 16.1652C190.389 16.39 190.44 16.5944 190.542 16.7783C190.644 16.9555 190.784 17.0985 190.961 17.2075C191.145 17.3097 191.349 17.3608 191.574 17.3608ZM196.731 21.755V14.6017H197.354L200.625 20.1813H200.298L203.537 14.6017H204.16V21.755H203.435V15.736H203.609L200.625 20.8455H200.267L197.263 15.736H197.457V21.755H196.731ZM206.082 21.755V14.6017H210.987V15.2557H206.839V21.101H211.141V21.755H206.082ZM206.757 18.444V17.8002H210.538V18.444H206.757ZM214.482 21.8163C213.95 21.8163 213.439 21.7312 212.949 21.5608C212.465 21.3837 212.091 21.1589 211.825 20.8864L212.121 20.3039C212.373 20.5492 212.711 20.7569 213.133 20.9273C213.562 21.0908 214.012 21.1725 214.482 21.1725C214.931 21.1725 215.296 21.118 215.575 21.009C215.861 20.8932 216.069 20.7399 216.199 20.5492C216.335 20.3584 216.403 20.1472 216.403 19.9156C216.403 19.6363 216.321 19.4114 216.158 19.2411C216.001 19.0708 215.793 18.938 215.534 18.8426C215.276 18.7404 214.989 18.6518 214.676 18.5769C214.363 18.5019 214.049 18.4236 213.736 18.3418C213.422 18.2533 213.133 18.1375 212.867 17.9944C212.608 17.8513 212.397 17.664 212.234 17.4324C212.077 17.1939 211.999 16.8839 211.999 16.5024C211.999 16.1482 212.091 15.8246 212.275 15.5316C212.465 15.2319 212.755 14.9934 213.143 14.8163C213.531 14.6323 214.029 14.5404 214.635 14.5404C215.037 14.5404 215.436 14.5983 215.831 14.7141C216.226 14.8231 216.567 14.9764 216.853 15.1739L216.597 15.7769C216.291 15.5725 215.964 15.4226 215.616 15.3272C215.276 15.2319 214.945 15.1842 214.625 15.1842C214.196 15.1842 213.841 15.2421 213.562 15.3579C213.283 15.4737 213.075 15.6304 212.939 15.828C212.809 16.0187 212.745 16.2367 212.745 16.482C212.745 16.7613 212.823 16.9861 212.98 17.1564C213.143 17.3268 213.354 17.4596 213.613 17.555C213.879 17.6504 214.168 17.7355 214.482 17.8105C214.795 17.8854 215.105 17.9671 215.412 18.0557C215.725 18.1443 216.011 18.2601 216.27 18.4032C216.536 18.5394 216.747 18.7234 216.904 18.955C217.067 19.1866 217.149 19.4898 217.149 19.8645C217.149 20.2119 217.054 20.5355 216.863 20.8353C216.672 21.1282 216.379 21.3667 215.984 21.5506C215.596 21.7278 215.095 21.8163 214.482 21.8163ZM169.4 33.8163C168.869 33.8163 168.358 33.7312 167.867 33.5608C167.384 33.3837 167.009 33.1589 166.743 32.8864L167.04 32.3039C167.292 32.5492 167.629 32.7569 168.051 32.9273C168.481 33.0908 168.93 33.1725 169.4 33.1725C169.85 33.1725 170.214 33.118 170.494 33.009C170.78 32.8932 170.988 32.7399 171.117 32.5492C171.253 32.3584 171.321 32.1472 171.321 31.9156C171.321 31.6363 171.24 31.4114 171.076 31.2411C170.92 31.0708 170.712 30.938 170.453 30.8426C170.194 30.7404 169.908 30.6518 169.594 30.5769C169.281 30.5019 168.968 30.4236 168.654 30.3418C168.341 30.2533 168.051 30.1375 167.786 29.9944C167.527 29.8513 167.316 29.664 167.152 29.4324C166.995 29.1939 166.917 28.8839 166.917 28.5024C166.917 28.1482 167.009 27.8246 167.193 27.5316C167.384 27.2319 167.673 26.9934 168.062 26.8163C168.45 26.6323 168.947 26.5404 169.554 26.5404C169.956 26.5404 170.354 26.5983 170.749 26.7141C171.144 26.8231 171.485 26.9764 171.771 27.1739L171.516 27.7769C171.209 27.5725 170.882 27.4226 170.535 27.3272C170.194 27.2319 169.864 27.1842 169.543 27.1842C169.114 27.1842 168.76 27.2421 168.481 27.3579C168.201 27.4737 167.993 27.6304 167.857 27.828C167.728 28.0187 167.663 28.2367 167.663 28.482C167.663 28.7613 167.741 28.9861 167.898 29.1564C168.062 29.3268 168.273 29.4596 168.532 29.555C168.797 29.6504 169.087 29.7355 169.4 29.8105C169.714 29.8854 170.024 29.9671 170.33 30.0557C170.644 30.1443 170.93 30.2601 171.189 30.4032C171.454 30.5394 171.666 30.7234 171.822 30.955C171.986 31.1866 172.067 31.4898 172.067 31.8645C172.067 32.2119 171.972 32.5355 171.781 32.8353C171.591 33.1282 171.298 33.3667 170.903 33.5506C170.514 33.7278 170.013 33.8163 169.4 33.8163ZM172.795 33.755V26.6017H173.552V33.755H172.795ZM174.959 33.755V26.6017H175.583L180.519 32.8149H180.192V26.6017H180.938V33.755H180.314L175.389 27.5418H175.716V33.755H174.959ZM187.214 33.8163C186.676 33.8163 186.178 33.7278 185.722 33.5506C185.266 33.3667 184.87 33.1112 184.537 32.7842C184.203 32.4572 183.941 32.0723 183.75 31.6294C183.566 31.1866 183.474 30.7029 183.474 30.1783C183.474 29.6538 183.566 29.1701 183.75 28.7272C183.941 28.2844 184.203 27.8995 184.537 27.5725C184.877 27.2455 185.276 26.9934 185.732 26.8163C186.189 26.6323 186.686 26.5404 187.224 26.5404C187.742 26.5404 188.229 26.6289 188.686 26.8061C189.142 26.9764 189.527 27.2353 189.84 27.5827L189.36 28.063C189.067 27.7632 188.743 27.5486 188.389 27.4192C188.035 27.2829 187.653 27.2148 187.245 27.2148C186.815 27.2148 186.417 27.2898 186.049 27.4396C185.681 27.5827 185.361 27.7905 185.088 28.063C184.816 28.3287 184.601 28.6421 184.445 29.0032C184.295 29.3574 184.22 29.7491 184.22 30.1783C184.22 30.6075 184.295 31.0027 184.445 31.3638C184.601 31.718 184.816 32.0314 185.088 32.3039C185.361 32.5696 185.681 32.7774 186.049 32.9273C186.417 33.0703 186.815 33.1419 187.245 33.1419C187.653 33.1419 188.035 33.0737 188.389 32.9375C188.743 32.8012 189.067 32.5832 189.36 32.2835L189.84 32.7638C189.527 33.1112 189.142 33.3735 188.686 33.5506C188.229 33.7278 187.739 33.8163 187.214 33.8163ZM189.109 33.755L192.379 26.6017H193.125L196.395 33.755H195.598L192.593 27.0411H192.9L189.896 33.755H189.109ZM190.396 31.844L190.621 31.2309H194.78L195.005 31.844H190.396ZM196.658 33.755V26.6017H199.336C200.242 26.6017 200.954 26.8197 201.472 27.2557C201.996 27.6849 202.259 28.2844 202.259 29.0542C202.259 29.5584 202.139 29.9944 201.901 30.3623C201.669 30.7234 201.335 31.0027 200.899 31.2002C200.463 31.391 199.942 31.4864 199.336 31.4864H197.077L197.415 31.1389V33.755H196.658ZM201.543 33.755L199.704 31.1594H200.521L202.371 33.755H201.543ZM197.415 31.2002L197.077 30.8426H199.315C200.031 30.8426 200.572 30.6859 200.94 30.3725C201.315 30.0591 201.502 29.6197 201.502 29.0542C201.502 28.482 201.315 28.0392 200.94 27.7258C200.572 27.4124 200.031 27.2557 199.315 27.2557H197.077L197.415 26.898V31.2002ZM206.261 33.8163C205.716 33.8163 205.212 33.7278 204.748 33.5506C204.292 33.3667 203.893 33.1112 203.553 32.7842C203.219 32.4572 202.957 32.0723 202.766 31.6294C202.582 31.1866 202.49 30.7029 202.49 30.1783C202.49 29.6538 202.582 29.1701 202.766 28.7272C202.957 28.2844 203.222 27.8995 203.563 27.5725C203.904 27.2455 204.302 26.9934 204.759 26.8163C205.222 26.6323 205.726 26.5404 206.271 26.5404C206.816 26.5404 207.313 26.6255 207.763 26.7958C208.22 26.9662 208.608 27.225 208.928 27.5725L208.458 28.0528C208.158 27.753 207.828 27.5384 207.467 27.409C207.106 27.2795 206.717 27.2148 206.302 27.2148C205.859 27.2148 205.45 27.2898 205.075 27.4396C204.708 27.5827 204.384 27.7905 204.105 28.063C203.832 28.3287 203.618 28.6421 203.461 29.0032C203.311 29.3574 203.236 29.7491 203.236 30.1783C203.236 30.6007 203.311 30.9925 203.461 31.3535C203.618 31.7146 203.832 32.0314 204.105 32.3039C204.384 32.5696 204.708 32.7774 205.075 32.9273C205.45 33.0703 205.855 33.1419 206.292 33.1419C206.7 33.1419 207.085 33.0805 207.446 32.9579C207.814 32.8353 208.151 32.6275 208.458 32.3346L208.887 32.9068C208.547 33.2066 208.148 33.4348 207.692 33.5915C207.235 33.7414 206.758 33.8163 206.261 33.8163ZM208.887 32.9068L208.162 32.8149V30.1783H208.887V32.9068ZM213.235 33.8163C212.697 33.8163 212.196 33.7278 211.733 33.5506C211.276 33.3667 210.878 33.1112 210.537 32.7842C210.203 32.4504 209.941 32.0655 209.75 31.6294C209.566 31.1866 209.474 30.7029 209.474 30.1783C209.474 29.6538 209.566 29.1735 209.75 28.7375C209.941 28.2946 210.203 27.9097 210.537 27.5827C210.878 27.2489 211.276 26.9934 211.733 26.8163C212.189 26.6323 212.69 26.5404 213.235 26.5404C213.773 26.5404 214.27 26.6323 214.727 26.8163C215.183 26.9934 215.578 27.2455 215.912 27.5725C216.253 27.8995 216.515 28.2844 216.699 28.7272C216.89 29.1701 216.985 29.6538 216.985 30.1783C216.985 30.7029 216.89 31.1866 216.699 31.6294C216.515 32.0723 216.253 32.4572 215.912 32.7842C215.578 33.1112 215.183 33.3667 214.727 33.5506C214.27 33.7278 213.773 33.8163 213.235 33.8163ZM213.235 33.1419C213.664 33.1419 214.059 33.0703 214.42 32.9273C214.788 32.7774 215.105 32.5696 215.37 32.3039C215.643 32.0314 215.854 31.718 216.004 31.3638C216.154 31.0027 216.229 30.6075 216.229 30.1783C216.229 29.7491 216.154 29.3574 216.004 29.0032C215.854 28.6421 215.643 28.3287 215.37 28.063C215.105 27.7905 214.788 27.5827 214.42 27.4396C214.059 27.2898 213.664 27.2148 213.235 27.2148C212.806 27.2148 212.407 27.2898 212.039 27.4396C211.671 27.5827 211.351 27.7905 211.078 28.063C210.813 28.3287 210.602 28.6421 210.445 29.0032C210.295 29.3574 210.22 29.7491 210.22 30.1783C210.22 30.6007 210.295 30.9925 210.445 31.3535C210.602 31.7146 210.813 32.0314 211.078 32.3039C211.351 32.5696 211.671 32.7774 212.039 32.9273C212.407 33.0703 212.806 33.1419 213.235 33.1419Z" fill="#5C6E94"/>
<path d="M115.501 47.5994V40.7527L115.828 41.1001H113.815V40.4461H116.237V47.5994H115.501ZM118.631 43.6344C118.331 43.6344 118.055 43.5629 117.803 43.4198C117.558 43.27 117.364 43.0758 117.221 42.8374C117.078 42.5921 117.006 42.3162 117.006 42.0096C117.006 41.7099 117.078 41.4373 117.221 41.1921C117.364 40.9468 117.558 40.7527 117.803 40.6096C118.055 40.4665 118.331 40.395 118.631 40.395C118.938 40.395 119.214 40.4665 119.459 40.6096C119.711 40.7527 119.909 40.9468 120.052 41.1921C120.195 41.4373 120.266 41.7099 120.266 42.0096C120.266 42.3094 120.195 42.5819 120.052 42.8271C119.909 43.0724 119.711 43.27 119.459 43.4198C119.214 43.5629 118.938 43.6344 118.631 43.6344ZM118.641 43.2052C118.859 43.2052 119.057 43.1507 119.234 43.0417C119.418 42.9327 119.561 42.7897 119.663 42.6125C119.765 42.4354 119.817 42.2344 119.817 42.0096C119.817 41.7848 119.765 41.5838 119.663 41.4067C119.561 41.2227 119.418 41.0797 119.234 40.9775C119.057 40.8753 118.859 40.8242 118.641 40.8242C118.417 40.8242 118.212 40.8753 118.028 40.9775C117.851 41.0797 117.711 41.2227 117.609 41.4067C117.507 41.5838 117.456 41.7848 117.456 42.0096C117.456 42.2344 117.507 42.4388 117.609 42.6228C117.711 42.7999 117.851 42.943 118.028 43.052C118.212 43.1541 118.417 43.2052 118.641 43.2052ZM122.777 47.5994V40.4461H123.4L126.67 46.0257H126.343L129.583 40.4461H130.206V47.5994H129.48V41.5804H129.654L126.67 46.6899H126.312L123.308 41.5804H123.502V47.5994H122.777ZM131.617 47.5994V40.4461H136.522V41.1001H132.373V46.9454H136.675V47.5994H131.617ZM132.291 44.2885V43.6447H136.072V44.2885H132.291ZM139.505 47.6607C138.974 47.6607 138.463 47.5756 137.973 47.4053C137.489 47.2281 137.114 47.0033 136.848 46.7308L137.145 46.1483C137.397 46.3936 137.734 46.6014 138.157 46.7717C138.586 46.9352 139.035 47.0169 139.505 47.0169C139.955 47.0169 140.32 46.9624 140.599 46.8534C140.885 46.7376 141.093 46.5843 141.222 46.3936C141.358 46.2028 141.427 45.9916 141.427 45.76C141.427 45.4807 141.345 45.2559 141.181 45.0855C141.025 44.9152 140.817 44.7824 140.558 44.687C140.299 44.5848 140.013 44.4962 139.7 44.4213C139.386 44.3464 139.073 44.268 138.759 44.1863C138.446 44.0977 138.157 43.9819 137.891 43.8388C137.632 43.6958 137.421 43.5084 137.257 43.2768C137.101 43.0383 137.022 42.7284 137.022 42.3468C137.022 41.9926 137.114 41.669 137.298 41.376C137.489 41.0763 137.778 40.8378 138.167 40.6607C138.555 40.4768 139.052 40.3848 139.659 40.3848C140.061 40.3848 140.459 40.4427 140.854 40.5585C141.249 40.6675 141.59 40.8208 141.876 41.0184L141.621 41.6213C141.314 41.4169 140.987 41.267 140.64 41.1717C140.299 41.0763 139.969 41.0286 139.649 41.0286C139.219 41.0286 138.865 41.0865 138.586 41.2023C138.306 41.3181 138.099 41.4748 137.962 41.6724C137.833 41.8631 137.768 42.0811 137.768 42.3264C137.768 42.6057 137.847 42.8305 138.003 43.0009C138.167 43.1712 138.378 43.304 138.637 43.3994C138.903 43.4948 139.192 43.5799 139.505 43.6549C139.819 43.7298 140.129 43.8116 140.435 43.9001C140.749 43.9887 141.035 44.1045 141.294 44.2476C141.559 44.3838 141.771 44.5678 141.927 44.7994C142.091 45.031 142.173 45.3342 142.173 45.7089C142.173 46.0564 142.077 46.38 141.886 46.6797C141.696 46.9727 141.403 47.2111 141.008 47.395C140.619 47.5722 140.119 47.6607 139.505 47.6607ZM146.628 47.6607C146.096 47.6607 145.585 47.5756 145.095 47.4053C144.611 47.2281 144.236 47.0033 143.971 46.7308L144.267 46.1483C144.519 46.3936 144.856 46.6014 145.279 46.7717C145.708 46.9352 146.158 47.0169 146.628 47.0169C147.077 47.0169 147.442 46.9624 147.721 46.8534C148.007 46.7376 148.215 46.5843 148.344 46.3936C148.481 46.2028 148.549 45.9916 148.549 45.76C148.549 45.4807 148.467 45.2559 148.304 45.0855C148.147 44.9152 147.939 44.7824 147.68 44.687C147.421 44.5848 147.135 44.4962 146.822 44.4213C146.508 44.3464 146.195 44.268 145.882 44.1863C145.568 44.0977 145.279 43.9819 145.013 43.8388C144.754 43.6958 144.543 43.5084 144.379 43.2768C144.223 43.0383 144.144 42.7284 144.144 42.3468C144.144 41.9926 144.236 41.669 144.42 41.376C144.611 41.0763 144.901 40.8378 145.289 40.6607C145.677 40.4768 146.175 40.3848 146.781 40.3848C147.183 40.3848 147.581 40.4427 147.977 40.5585C148.372 40.6675 148.712 40.8208 148.998 41.0184L148.743 41.6213C148.436 41.4169 148.109 41.267 147.762 41.1717C147.421 41.0763 147.091 41.0286 146.771 41.0286C146.342 41.0286 145.987 41.0865 145.708 41.2023C145.429 41.3181 145.221 41.4748 145.085 41.6724C144.955 41.8631 144.89 42.0811 144.89 42.3264C144.89 42.6057 144.969 42.8305 145.125 43.0009C145.289 43.1712 145.5 43.304 145.759 43.3994C146.025 43.4948 146.314 43.5799 146.628 43.6549C146.941 43.7298 147.251 43.8116 147.558 43.9001C147.871 43.9887 148.157 44.1045 148.416 44.2476C148.682 44.3838 148.893 44.5678 149.05 44.7994C149.213 45.031 149.295 45.3342 149.295 45.7089C149.295 46.0564 149.199 46.38 149.009 46.6797C148.818 46.9727 148.525 47.2111 148.13 47.395C147.742 47.5722 147.241 47.6607 146.628 47.6607ZM150.023 47.5994V40.4461H150.779V47.5994H150.023ZM152.187 47.5994V40.4461H152.81L157.746 46.6593H157.419V40.4461H158.165V47.5994H157.541L152.616 41.3863H152.943V47.5994H152.187ZM164.441 47.6607C163.903 47.6607 163.406 47.5722 162.949 47.395C162.493 47.2111 162.098 46.9556 161.764 46.6286C161.43 46.3016 161.168 45.9167 160.977 45.4739C160.793 45.031 160.701 44.5473 160.701 44.0228C160.701 43.4982 160.793 43.0145 160.977 42.5717C161.168 42.1288 161.43 41.7439 161.764 41.4169C162.105 41.0899 162.503 40.8378 162.96 40.6607C163.416 40.4768 163.913 40.3848 164.452 40.3848C164.969 40.3848 165.456 40.4734 165.913 40.6505C166.369 40.8208 166.754 41.0797 167.068 41.4271L166.587 41.9074C166.294 41.6077 165.971 41.3931 165.617 41.2636C165.262 41.1274 164.881 41.0592 164.472 41.0592C164.043 41.0592 163.644 41.1342 163.276 41.2841C162.908 41.4271 162.588 41.6349 162.316 41.9074C162.043 42.1731 161.829 42.4865 161.672 42.8476C161.522 43.2018 161.447 43.5936 161.447 44.0228C161.447 44.452 161.522 44.8471 161.672 45.2082C161.829 45.5624 162.043 45.8758 162.316 46.1483C162.588 46.414 162.908 46.6218 163.276 46.7717C163.644 46.9148 164.043 46.9863 164.472 46.9863C164.881 46.9863 165.262 46.9182 165.617 46.7819C165.971 46.6456 166.294 46.4276 166.587 46.1279L167.068 46.6082C166.754 46.9556 166.369 47.2179 165.913 47.395C165.456 47.5722 164.966 47.6607 164.441 47.6607ZM166.336 47.5994L169.606 40.4461H170.352L173.622 47.5994H172.825L169.821 40.8855H170.127L167.123 47.5994H166.336ZM167.624 45.6885L167.848 45.0753H172.008L172.232 45.6885H167.624ZM173.886 47.5994V40.4461H176.563C177.469 40.4461 178.181 40.6641 178.699 41.1001C179.224 41.5293 179.486 42.1288 179.486 42.8987C179.486 43.4028 179.367 43.8388 179.128 44.2067C178.897 44.5678 178.563 44.8471 178.127 45.0447C177.691 45.2354 177.17 45.3308 176.563 45.3308H174.305L174.642 44.9834V47.5994H173.886ZM178.77 47.5994L176.931 45.0038H177.749L179.598 47.5994H178.77ZM174.642 45.0447L174.305 44.687H176.543C177.258 44.687 177.8 44.5303 178.168 44.2169C178.542 43.9035 178.73 43.4641 178.73 42.8987C178.73 42.3264 178.542 41.8836 178.168 41.5702C177.8 41.2568 177.258 41.1001 176.543 41.1001H174.305L174.642 40.7425V45.0447ZM183.488 47.6607C182.943 47.6607 182.439 47.5722 181.976 47.395C181.519 47.2111 181.121 46.9556 180.78 46.6286C180.446 46.3016 180.184 45.9167 179.993 45.4739C179.809 45.031 179.717 44.5473 179.717 44.0228C179.717 43.4982 179.809 43.0145 179.993 42.5717C180.184 42.1288 180.45 41.7439 180.79 41.4169C181.131 41.0899 181.53 40.8378 181.986 40.6607C182.449 40.4768 182.953 40.3848 183.498 40.3848C184.043 40.3848 184.541 40.4699 184.99 40.6403C185.447 40.8106 185.835 41.0695 186.155 41.4169L185.685 41.8972C185.386 41.5974 185.055 41.3828 184.694 41.2534C184.333 41.124 183.945 41.0592 183.529 41.0592C183.086 41.0592 182.677 41.1342 182.303 41.2841C181.935 41.4271 181.611 41.6349 181.332 41.9074C181.059 42.1731 180.845 42.4865 180.688 42.8476C180.538 43.2018 180.463 43.5936 180.463 44.0228C180.463 44.4451 180.538 44.8369 180.688 45.198C180.845 45.559 181.059 45.8758 181.332 46.1483C181.611 46.414 181.935 46.6218 182.303 46.7717C182.677 46.9148 183.083 46.9863 183.519 46.9863C183.928 46.9863 184.313 46.925 184.674 46.8023C185.041 46.6797 185.379 46.4719 185.685 46.179L186.114 46.7512C185.774 47.051 185.375 47.2792 184.919 47.4359C184.462 47.5858 183.986 47.6607 183.488 47.6607ZM186.114 46.7512L185.389 46.6593V44.0228H186.114V46.7512ZM190.462 47.6607C189.924 47.6607 189.423 47.5722 188.96 47.395C188.503 47.2111 188.105 46.9556 187.764 46.6286C187.43 46.2948 187.168 45.9099 186.977 45.4739C186.793 45.031 186.701 44.5473 186.701 44.0228C186.701 43.4982 186.793 43.0179 186.977 42.5819C187.168 42.1391 187.43 41.7541 187.764 41.4271C188.105 41.0933 188.503 40.8378 188.96 40.6607C189.416 40.4768 189.917 40.3848 190.462 40.3848C191 40.3848 191.498 40.4768 191.954 40.6607C192.41 40.8378 192.806 41.0899 193.139 41.4169C193.48 41.7439 193.742 42.1288 193.926 42.5717C194.117 43.0145 194.212 43.4982 194.212 44.0228C194.212 44.5473 194.117 45.031 193.926 45.4739C193.742 45.9167 193.48 46.3016 193.139 46.6286C192.806 46.9556 192.41 47.2111 191.954 47.395C191.498 47.5722 191 47.6607 190.462 47.6607ZM190.462 46.9863C190.891 46.9863 191.286 46.9148 191.647 46.7717C192.015 46.6218 192.332 46.414 192.598 46.1483C192.87 45.8758 193.082 45.5624 193.231 45.2082C193.381 44.8471 193.456 44.452 193.456 44.0228C193.456 43.5936 193.381 43.2018 193.231 42.8476C193.082 42.4865 192.87 42.1731 192.598 41.9074C192.332 41.6349 192.015 41.4271 191.647 41.2841C191.286 41.1342 190.891 41.0592 190.462 41.0592C190.033 41.0592 189.634 41.1342 189.266 41.2841C188.899 41.4271 188.578 41.6349 188.306 41.9074C188.04 42.1731 187.829 42.4865 187.672 42.8476C187.522 43.2018 187.447 43.5936 187.447 44.0228C187.447 44.4451 187.522 44.8369 187.672 45.198C187.829 45.559 188.04 45.8758 188.306 46.1483C188.578 46.414 188.899 46.6218 189.266 46.7717C189.634 46.9148 190.033 46.9863 190.462 46.9863ZM114.121 59.5994V59.0783L117.095 56.1658C117.367 55.9001 117.572 55.6685 117.708 55.4709C117.844 55.2666 117.936 55.0758 117.984 54.8987C118.032 54.7215 118.056 54.5546 118.056 54.3979C118.056 53.9824 117.912 53.6554 117.626 53.4169C117.347 53.1785 116.931 53.0592 116.38 53.0592C115.957 53.0592 115.583 53.124 115.256 53.2534C114.935 53.3828 114.659 53.5838 114.428 53.8563L113.907 53.4067C114.186 53.0797 114.544 52.8276 114.98 52.6505C115.416 52.4734 115.903 52.3848 116.441 52.3848C116.925 52.3848 117.344 52.4631 117.698 52.6198C118.052 52.7697 118.325 52.9911 118.515 53.2841C118.713 53.577 118.812 53.921 118.812 54.3162C118.812 54.5478 118.778 54.776 118.71 55.0009C118.648 55.2257 118.532 55.4641 118.362 55.7162C118.199 55.9614 117.957 56.2408 117.637 56.5542L114.908 59.2315L114.704 58.9454H119.139V59.5994H114.121ZM121.462 55.6344C121.162 55.6344 120.886 55.5629 120.634 55.4198C120.389 55.27 120.195 55.0758 120.052 54.8374C119.909 54.5921 119.837 54.3162 119.837 54.0096C119.837 53.7099 119.909 53.4373 120.052 53.1921C120.195 52.9468 120.389 52.7527 120.634 52.6096C120.886 52.4665 121.162 52.395 121.462 52.395C121.769 52.395 122.045 52.4665 122.29 52.6096C122.542 52.7527 122.74 52.9468 122.883 53.1921C123.026 53.4373 123.097 53.7099 123.097 54.0096C123.097 54.3094 123.026 54.5819 122.883 54.8271C122.74 55.0724 122.542 55.27 122.29 55.4198C122.045 55.5629 121.769 55.6344 121.462 55.6344ZM121.472 55.2052C121.69 55.2052 121.888 55.1507 122.065 55.0417C122.249 54.9327 122.392 54.7897 122.494 54.6125C122.596 54.4354 122.648 54.2344 122.648 54.0096C122.648 53.7848 122.596 53.5838 122.494 53.4067C122.392 53.2227 122.249 53.0797 122.065 52.9775C121.888 52.8753 121.69 52.8242 121.472 52.8242C121.248 52.8242 121.043 52.8753 120.859 52.9775C120.682 53.0797 120.542 53.2227 120.44 53.4067C120.338 53.5838 120.287 53.7848 120.287 54.0096C120.287 54.2344 120.338 54.4388 120.44 54.6228C120.542 54.7999 120.682 54.943 120.859 55.052C121.043 55.1541 121.248 55.2052 121.472 55.2052ZM128.745 59.5994V56.9425L128.919 57.4126L125.884 52.4461H126.691L129.358 56.8096H128.929L131.596 52.4461H132.352L129.317 57.4126L129.491 56.9425V59.5994H128.745ZM137.293 59.6607C136.775 59.6607 136.285 59.579 135.821 59.4155C135.365 59.2452 134.997 59.0203 134.718 58.741L135.075 58.1585C135.307 58.397 135.617 58.5946 136.005 58.7512C136.4 58.9079 136.83 58.9863 137.293 58.9863C137.886 58.9863 138.339 58.8568 138.652 58.598C138.972 58.3391 139.132 57.9916 139.132 57.5556C139.132 57.1196 138.976 56.7722 138.662 56.5133C138.356 56.2544 137.869 56.125 137.201 56.125H136.69V55.5833L138.897 52.814L139 53.1001H135.014V52.4461H139.613V52.9673L137.405 55.7366L137.048 55.5016H137.324C138.182 55.5016 138.822 55.6923 139.245 56.0739C139.674 56.4554 139.889 56.9459 139.889 57.5454C139.889 57.9473 139.793 58.3084 139.602 58.6286C139.412 58.9488 139.122 59.2009 138.734 59.3848C138.352 59.5688 137.872 59.6607 137.293 59.6607ZM144.795 55.6344C144.496 55.6344 144.22 55.5629 143.968 55.4198C143.722 55.27 143.528 55.0758 143.385 54.8374C143.242 54.5921 143.171 54.3162 143.171 54.0096C143.171 53.7099 143.242 53.4373 143.385 53.1921C143.528 52.9468 143.722 52.7527 143.968 52.6096C144.22 52.4665 144.496 52.395 144.795 52.395C145.102 52.395 145.378 52.4665 145.623 52.6096C145.875 52.7527 146.073 52.9468 146.216 53.1921C146.359 53.4373 146.431 53.7099 146.431 54.0096C146.431 54.3094 146.359 54.5819 146.216 54.8271C146.073 55.0724 145.875 55.27 145.623 55.4198C145.378 55.5629 145.102 55.6344 144.795 55.6344ZM144.806 55.2052C145.024 55.2052 145.221 55.1507 145.398 55.0417C145.582 54.9327 145.725 54.7897 145.828 54.6125C145.93 54.4354 145.981 54.2344 145.981 54.0096C145.981 53.7848 145.93 53.5838 145.828 53.4067C145.725 53.2227 145.582 53.0797 145.398 52.9775C145.221 52.8753 145.024 52.8242 144.806 52.8242C144.581 52.8242 144.376 52.8753 144.193 52.9775C144.015 53.0797 143.876 53.2227 143.774 53.4067C143.671 53.5838 143.62 53.7848 143.62 54.0096C143.62 54.2344 143.671 54.4388 143.774 54.6228C143.876 54.7999 144.015 54.943 144.193 55.052C144.376 55.1541 144.581 55.2052 144.806 55.2052ZM150.372 59.5994V52.4461H150.995L154.265 58.0257H153.938L157.178 52.4461H157.801V59.5994H157.075V53.5804H157.249L154.265 58.6899H153.907L150.903 53.5804H151.097V59.5994H150.372ZM159.927 59.5994V52.4461H164.832V53.1001H160.683V58.9454H164.986V59.5994H159.927ZM160.602 56.2885V55.6447H164.383V56.2885H160.602ZM168.531 59.6607C168 59.6607 167.489 59.5756 166.998 59.4053C166.515 59.2281 166.14 59.0033 165.874 58.7308L166.171 58.1483C166.423 58.3936 166.76 58.6014 167.182 58.7717C167.611 58.9352 168.061 59.0169 168.531 59.0169C168.981 59.0169 169.345 58.9624 169.625 58.8534C169.911 58.7376 170.118 58.5843 170.248 58.3936C170.384 58.2028 170.452 57.9916 170.452 57.76C170.452 57.4807 170.371 57.2559 170.207 57.0855C170.05 56.9152 169.843 56.7824 169.584 56.687C169.325 56.5848 169.039 56.4962 168.725 56.4213C168.412 56.3464 168.098 56.268 167.785 56.1863C167.472 56.0977 167.182 55.9819 166.916 55.8388C166.658 55.6958 166.446 55.5084 166.283 55.2768C166.126 55.0383 166.048 54.7284 166.048 54.3468C166.048 53.9926 166.14 53.669 166.324 53.376C166.515 53.0763 166.804 52.8378 167.192 52.6607C167.581 52.4768 168.078 52.3848 168.684 52.3848C169.086 52.3848 169.485 52.4427 169.88 52.5585C170.275 52.6675 170.616 52.8208 170.902 53.0184L170.646 53.6213C170.34 53.4169 170.013 53.267 169.665 53.1717C169.325 53.0763 168.994 53.0286 168.674 53.0286C168.245 53.0286 167.891 53.0865 167.611 53.2023C167.332 53.3181 167.124 53.4748 166.988 53.6724C166.859 53.8631 166.794 54.0811 166.794 54.3264C166.794 54.6057 166.872 54.8305 167.029 55.0009C167.192 55.1712 167.404 55.304 167.662 55.3994C167.928 55.4948 168.218 55.5799 168.531 55.6549C168.844 55.7298 169.154 55.8116 169.461 55.9001C169.774 55.9887 170.061 56.1045 170.319 56.2476C170.585 56.3838 170.796 56.5678 170.953 56.7994C171.117 57.031 171.198 57.3342 171.198 57.7089C171.198 58.0564 171.103 58.38 170.912 58.6797C170.721 58.9727 170.428 59.2111 170.033 59.395C169.645 59.5722 169.144 59.6607 168.531 59.6607ZM173.967 59.5994L177.237 52.4461H177.983L181.253 59.5994H180.456L177.452 52.8855H177.758L174.754 59.5994H173.967ZM175.255 57.6885L175.48 57.0753H179.639L179.864 57.6885H175.255ZM182.232 59.5994V52.4461H182.988V58.9454H186.994V59.5994H182.232ZM192.141 59.6607C191.63 59.6607 191.142 59.579 190.679 59.4155C190.216 59.2452 189.848 59.0203 189.576 58.741L189.933 58.1585C190.158 58.397 190.465 58.5946 190.853 58.7512C191.248 58.9079 191.674 58.9863 192.13 58.9863C192.737 58.9863 193.196 58.8534 193.51 58.5877C193.83 58.3152 193.99 57.961 193.99 57.525C193.99 57.2184 193.915 56.9561 193.765 56.7381C193.622 56.5133 193.377 56.3396 193.03 56.2169C192.682 56.0943 192.205 56.033 191.599 56.033H190.076L190.444 52.4461H194.358V53.1001H190.741L191.119 52.7425L190.802 55.7468L190.424 55.379H191.762C192.485 55.379 193.064 55.4675 193.5 55.6447C193.936 55.8218 194.249 56.0705 194.44 56.3906C194.637 56.704 194.736 57.0719 194.736 57.4943C194.736 57.8963 194.641 58.2641 194.45 58.598C194.259 58.925 193.973 59.1839 193.592 59.3746C193.21 59.5654 192.726 59.6607 192.141 59.6607ZM198.317 59.6607C197.765 59.6607 197.275 59.5177 196.845 59.2315C196.416 58.9386 196.079 58.523 195.834 57.9848C195.588 57.4398 195.466 56.7858 195.466 56.0228C195.466 55.2597 195.588 54.6091 195.834 54.0709C196.079 53.5259 196.416 53.1103 196.845 52.8242C197.275 52.5313 197.765 52.3848 198.317 52.3848C198.869 52.3848 199.359 52.5313 199.789 52.8242C200.218 53.1103 200.555 53.5259 200.8 54.0709C201.052 54.6091 201.178 55.2597 201.178 56.0228C201.178 56.7858 201.052 57.4398 200.8 57.9848C200.555 58.523 200.218 58.9386 199.789 59.2315C199.359 59.5177 198.869 59.6607 198.317 59.6607ZM198.317 58.9863C198.739 58.9863 199.107 58.8739 199.421 58.6491C199.734 58.4174 199.979 58.0836 200.156 57.6476C200.334 57.2048 200.422 56.6632 200.422 56.0228C200.422 55.3824 200.334 54.8442 200.156 54.4082C199.979 53.9653 199.734 53.6315 199.421 53.4067C199.107 53.1751 198.739 53.0592 198.317 53.0592C197.908 53.0592 197.544 53.1751 197.224 53.4067C196.903 53.6315 196.655 53.9653 196.478 54.4082C196.3 54.8442 196.212 55.3824 196.212 56.0228C196.212 56.6632 196.3 57.2048 196.478 57.6476C196.655 58.0836 196.903 58.4174 197.224 58.6491C197.544 58.8739 197.908 58.9863 198.317 58.9863ZM202.988 59.5994L207.873 52.4461H208.476L203.591 59.5994H202.988ZM203.54 56.2782C203.22 56.2782 202.937 56.1999 202.692 56.0432C202.447 55.8797 202.256 55.6515 202.12 55.3585C201.99 55.0656 201.925 54.7249 201.925 54.3366C201.925 53.9483 201.99 53.6077 202.12 53.3147C202.256 53.0218 202.447 52.797 202.692 52.6403C202.937 52.4768 203.22 52.395 203.54 52.395C203.86 52.395 204.14 52.4768 204.378 52.6403C204.623 52.797 204.814 53.0218 204.95 53.3147C205.086 53.6009 205.155 53.9415 205.155 54.3366C205.155 54.7249 205.086 55.0656 204.95 55.3585C204.814 55.6515 204.623 55.8797 204.378 56.0432C204.14 56.1999 203.86 56.2782 203.54 56.2782ZM203.54 55.8184C203.874 55.8184 204.14 55.6889 204.337 55.4301C204.541 55.1644 204.644 54.7999 204.644 54.3366C204.644 53.8734 204.541 53.5123 204.337 53.2534C204.14 52.9877 203.874 52.8549 203.54 52.8549C203.199 52.8549 202.93 52.9877 202.733 53.2534C202.535 53.5123 202.436 53.8734 202.436 54.3366C202.436 54.7999 202.535 55.1644 202.733 55.4301C202.93 55.6889 203.199 55.8184 203.54 55.8184ZM207.924 59.6505C207.611 59.6505 207.331 59.5722 207.086 59.4155C206.841 59.252 206.65 59.0238 206.514 58.7308C206.377 58.4379 206.309 58.0972 206.309 57.7089C206.309 57.3206 206.377 56.9799 206.514 56.687C206.65 56.3941 206.841 56.1692 207.086 56.0125C207.331 55.849 207.611 55.7673 207.924 55.7673C208.251 55.7673 208.534 55.849 208.772 56.0125C209.017 56.1692 209.205 56.3941 209.334 56.687C209.47 56.9799 209.539 57.3206 209.539 57.7089C209.539 58.0972 209.47 58.4379 209.334 58.7308C209.205 59.0238 209.017 59.252 208.772 59.4155C208.534 59.5722 208.251 59.6505 207.924 59.6505ZM207.924 59.1907C208.258 59.1907 208.523 59.0612 208.721 58.8023C208.925 58.5366 209.028 58.1722 209.028 57.7089C209.028 57.2456 208.925 56.8846 208.721 56.6257C208.523 56.36 208.258 56.2271 207.924 56.2271C207.59 56.2271 207.321 56.36 207.117 56.6257C206.919 56.8846 206.82 57.2456 206.82 57.7089C206.82 58.1722 206.919 58.5366 207.117 58.8023C207.321 59.0612 207.59 59.1907 207.924 59.1907Z" fill="#5C6E94"/>
<path d="M85.3299 8.85223V3.04782H83.0409V1.69891H89.2745V3.04782H86.9854V8.85223H85.3299ZM89.8587 8.85223V1.69891H95.2645V3.02738H91.5039V7.52376H95.3974V8.85223H89.8587ZM91.3813 5.86827V4.58068H94.8251V5.86827H91.3813ZM98.9955 8.85223V1.69891H100.651V8.85223H98.9955ZM102.042 8.85223V1.69891H103.411L107.632 6.8493H106.968V1.69891H108.603V8.85223H107.244L103.013 3.70184H103.677V8.85223H102.042ZM111.985 8.85223L108.899 1.69891H110.687L113.385 8.03471H112.332L115.071 1.69891H116.716L113.62 8.85223H111.985ZM117.007 8.85223V1.69891H118.662V8.85223H117.007ZM121.535 8.85223V3.04782H119.246V1.69891H125.48V3.04782H123.191V8.85223H121.535ZM124.765 8.85223L127.953 1.69891H129.588L132.787 8.85223H131.049L128.433 2.53687H129.087L126.461 8.85223H124.765ZM126.359 7.31938L126.798 6.06244H130.477L130.927 7.31938H126.359ZM133.222 8.85223V1.69891H134.591L137.637 6.74711H136.911L139.905 1.69891H141.264L141.285 8.85223H139.732L139.721 4.07994H140.008L137.616 8.09603H136.87L134.428 4.07994H134.775V8.85223H133.222ZM146.15 8.97486C145.585 8.97486 145.06 8.88289 144.576 8.69895C144.099 8.51501 143.684 8.25612 143.33 7.9223C142.982 7.58848 142.71 7.19675 142.512 6.74711C142.321 6.29747 142.226 5.80696 142.226 5.27557C142.226 4.74418 142.321 4.25367 142.512 3.80403C142.71 3.35439 142.985 2.96266 143.34 2.62884C143.694 2.29502 144.11 2.03614 144.586 1.85219C145.063 1.66825 145.581 1.57628 146.14 1.57628C146.705 1.57628 147.223 1.66825 147.693 1.85219C148.17 2.03614 148.582 2.29502 148.93 2.62884C149.284 2.96266 149.56 3.35439 149.757 3.80403C149.955 4.24685 150.054 4.73737 150.054 5.27557C150.054 5.80696 149.955 6.30088 149.757 6.75733C149.56 7.20697 149.284 7.5987 148.93 7.93252C148.582 8.25953 148.17 8.51501 147.693 8.69895C147.223 8.88289 146.709 8.97486 146.15 8.97486ZM146.14 7.56464C146.46 7.56464 146.753 7.51013 147.019 7.40113C147.291 7.29213 147.53 7.13544 147.734 6.93105C147.938 6.72667 148.095 6.48482 148.204 6.2055C148.32 5.92618 148.378 5.61621 148.378 5.27557C148.378 4.93494 148.32 4.62496 148.204 4.34564C148.095 4.06632 147.938 3.82447 147.734 3.62009C147.536 3.41571 147.301 3.25901 147.029 3.15001C146.756 3.04101 146.46 2.98651 146.14 2.98651C145.82 2.98651 145.523 3.04101 145.251 3.15001C144.985 3.25901 144.75 3.41571 144.546 3.62009C144.341 3.82447 144.181 4.06632 144.065 4.34564C143.956 4.62496 143.902 4.93494 143.902 5.27557C143.902 5.60939 143.956 5.91937 144.065 6.2055C144.181 6.48482 144.338 6.72667 144.535 6.93105C144.74 7.13544 144.978 7.29213 145.251 7.40113C145.523 7.51013 145.82 7.56464 146.14 7.56464ZM153.342 8.97486C152.769 8.97486 152.221 8.89992 151.696 8.75004C151.172 8.59335 150.749 8.39238 150.429 8.14712L150.991 6.9004C151.298 7.1184 151.659 7.29894 152.074 7.44201C152.497 7.57826 152.923 7.64639 153.352 7.64639C153.679 7.64639 153.941 7.61573 154.139 7.55442C154.343 7.48629 154.493 7.39432 154.588 7.2785C154.684 7.16269 154.731 7.02984 154.731 6.87996C154.731 6.6892 154.656 6.53932 154.507 6.43032C154.357 6.31451 154.159 6.22253 153.914 6.15441C153.669 6.07947 153.396 6.01134 153.096 5.95003C152.803 5.8819 152.507 5.80015 152.207 5.70477C151.914 5.60939 151.645 5.48676 151.4 5.33689C151.155 5.18701 150.954 4.98944 150.797 4.74418C150.647 4.49892 150.572 4.18554 150.572 3.80403C150.572 3.39527 150.681 3.02398 150.899 2.69015C151.124 2.34952 151.458 2.08042 151.901 1.88285C152.35 1.67847 152.912 1.57628 153.587 1.57628C154.037 1.57628 154.479 1.63078 154.915 1.73978C155.351 1.84197 155.736 1.99867 156.07 2.20986L155.559 3.4668C155.225 3.27605 154.892 3.13639 154.558 3.04782C154.224 2.95244 153.897 2.90475 153.577 2.90475C153.256 2.90475 152.994 2.94222 152.79 3.01716C152.585 3.0921 152.439 3.19089 152.35 3.31352C152.262 3.42933 152.218 3.56559 152.218 3.72228C152.218 3.90622 152.292 4.0561 152.442 4.17191C152.592 4.28092 152.79 4.36948 153.035 4.43761C153.28 4.50574 153.549 4.57386 153.842 4.64199C154.142 4.71012 154.438 4.78846 154.731 4.87703C155.031 4.96559 155.304 5.08482 155.549 5.23469C155.794 5.38457 155.992 5.58214 156.142 5.8274C156.298 6.07266 156.377 6.38263 156.377 6.75733C156.377 7.15928 156.264 7.52717 156.039 7.86099C155.815 8.19481 155.477 8.46391 155.028 8.66829C154.585 8.87267 154.023 8.97486 153.342 8.97486Z" fill="#5C6E94"/>
<path d="M18.7361 26.5875C19.3493 26.5875 19.8398 26.4581 20.2077 26.1992C20.5892 25.9267 20.7799 25.5316 20.7799 25.0138V24.9729C20.7799 24.4552 20.6028 24.0668 20.2485 23.808C19.8943 23.5355 19.397 23.3992 18.7566 23.3992H17.4485V26.5875H18.7361ZM12.666 19.5773H19.104C20.0578 19.5773 20.923 19.6863 21.6996 19.9043C22.4899 20.1087 23.1644 20.4221 23.723 20.8444C24.2817 21.2668 24.7177 21.7982 25.0311 22.4386C25.3444 23.079 25.5011 23.8216 25.5011 24.6664V24.7072C25.5011 25.5656 25.3444 26.3287 25.0311 26.9963C24.7177 27.6503 24.2748 28.2021 23.7026 28.6518C23.1303 29.1014 22.4422 29.4421 21.6383 29.6737C20.8481 29.8917 19.9692 30.0007 19.0018 30.0007H17.4485V33.8839H12.666V19.5773Z" fill="#5C6E94"/>
<path d="M33.303 28.57L31.995 25.0956L30.687 28.57H33.303ZM29.6651 19.4751H34.4067L40.4359 33.8839H35.2447L34.4885 31.9628H29.4811L28.7454 33.8839H23.6358L29.6651 19.4751Z" fill="#5C6E94"/>
<path d="M46.2772 34.1905C45.2826 34.1905 44.3356 34.0134 43.4363 33.6591C42.5507 33.3049 41.7672 32.8007 41.086 32.1467C40.4047 31.4927 39.8597 30.7092 39.4509 29.7963C39.0558 28.8834 38.8582 27.8751 38.8582 26.7715V26.7306C38.8582 25.6678 39.049 24.68 39.4305 23.7671C39.8256 22.8542 40.3638 22.0639 41.0451 21.3963C41.74 20.7286 42.5507 20.2109 43.4772 19.843C44.4037 19.4615 45.3984 19.2707 46.4612 19.2707C47.2514 19.2707 47.9736 19.3661 48.6276 19.5568C49.2952 19.734 49.8948 19.986 50.4262 20.313C50.9712 20.6401 51.4481 21.0352 51.8568 21.4985C52.2792 21.9481 52.6403 22.4454 52.94 22.9904L48.9955 25.2999C48.723 24.7822 48.3823 24.3666 47.9736 24.0532C47.5784 23.7262 47.0539 23.5627 46.3999 23.5627C45.9911 23.5627 45.6232 23.6445 45.2962 23.808C44.9692 23.9715 44.6899 24.1963 44.4582 24.4824C44.2266 24.7685 44.0427 25.1024 43.9064 25.4839C43.7838 25.8654 43.7225 26.2673 43.7225 26.6897V26.7306C43.7225 27.1939 43.7838 27.6231 43.9064 28.0182C44.0427 28.3997 44.2266 28.7335 44.4582 29.0197C44.7035 29.2922 44.9896 29.5102 45.3166 29.6737C45.6437 29.8236 46.0047 29.8985 46.3999 29.8985C47.0811 29.8985 47.6261 29.735 48.0349 29.408C48.4437 29.0674 48.7979 28.6313 49.0977 28.1L53.0422 30.3277C52.7425 30.8591 52.3882 31.3632 51.9795 31.8401C51.5707 32.3034 51.087 32.7121 50.5283 33.0664C49.9833 33.407 49.3566 33.6796 48.648 33.8839C47.9532 34.0883 47.1629 34.1905 46.2772 34.1905Z" fill="#5C6E94"/>
<path d="M53.7505 19.5773H58.533V24.9321L62.6002 19.5773H68.1594L63.1725 25.7905L68.2616 33.8839H62.5593L59.7593 29.3467L58.533 30.8387V33.8839H53.7505V19.5773Z" fill="#5C6E94"/>
<path d="M70.1904 19.5773H82.1671V23.6649H74.9729V25.4839H81.6562V29.2036H74.9729V33.8839H70.1904V19.5773Z" fill="#5C6E94"/>
<path d="M88.577 14.9378L93.0938 16.1028L89.7215 18.8619H86.615L88.577 14.9378ZM88.3522 34.1701C87.2894 34.1701 86.322 34.0474 85.45 33.8022C84.5916 33.5433 83.8558 33.1413 83.2427 32.5963C82.6295 32.0513 82.1526 31.3564 81.812 30.5116C81.485 29.6669 81.3215 28.6518 81.3215 27.4664V19.5773H86.1858V27.4051C86.1858 28.2907 86.3901 28.9379 86.7989 29.3467C87.2213 29.7418 87.7527 29.9394 88.3931 29.9394C89.0471 29.9394 89.5785 29.7554 89.9872 29.3876C90.396 29.006 90.6004 28.3793 90.6004 27.5073V19.5773H95.4646V27.3642C95.4646 28.5905 95.2943 29.6328 94.9537 30.4912C94.6131 31.3496 94.1294 32.0513 93.5026 32.5963C92.8895 33.1413 92.1401 33.5433 91.2544 33.8022C90.3824 34.0474 89.415 34.1701 88.3522 34.1701Z" fill="#5C6E94"/>
<path d="M98.7913 23.624H94.581V19.5773H107.784V23.624H103.574V33.8839H98.7913V23.624Z" fill="#5C6E94"/>
<path d="M114.076 30.2664C114.594 30.2664 114.982 30.171 115.241 29.9803C115.514 29.7895 115.65 29.5374 115.65 29.2241V29.1832C115.65 28.8698 115.521 28.6177 115.262 28.427C115.003 28.2362 114.615 28.1408 114.097 28.1408H111.685V30.2664H114.076ZM113.77 25.1977C114.778 25.1977 115.282 24.8707 115.282 24.2167V24.1758C115.282 23.5218 114.771 23.1948 113.749 23.1948H111.685V25.1977H113.77ZM107.025 19.5773H115.037C116.032 19.5773 116.849 19.6863 117.49 19.9043C118.144 20.1223 118.682 20.4425 119.104 20.8649C119.363 21.1238 119.574 21.4371 119.738 21.805C119.901 22.1729 119.983 22.6021 119.983 23.0926V23.1335C119.983 23.9919 119.751 24.6868 119.288 25.2182C118.825 25.736 118.205 26.1311 117.428 26.4036C118.355 26.6761 119.091 27.0781 119.636 27.6094C120.181 28.1408 120.453 28.897 120.453 29.8781V29.9189C120.453 30.4912 120.337 31.0226 120.106 31.5131C119.874 31.99 119.527 32.4056 119.063 32.7598C118.6 33.1141 118.021 33.3934 117.326 33.5978C116.645 33.7886 115.854 33.8839 114.955 33.8839H107.025V19.5773Z" fill="#5C6E94"/>
<path d="M127.157 29.9598C127.607 29.9598 128.015 29.8713 128.383 29.6941C128.751 29.517 129.064 29.2854 129.323 28.9992C129.582 28.6995 129.78 28.3588 129.916 27.9773C130.052 27.5958 130.12 27.1939 130.12 26.7715V26.7306C130.12 26.3082 130.045 25.9063 129.896 25.5248C129.759 25.1296 129.562 24.7822 129.303 24.4824C129.044 24.1827 128.731 23.9442 128.363 23.7671C127.995 23.59 127.579 23.5014 127.116 23.5014C126.666 23.5014 126.258 23.59 125.89 23.7671C125.522 23.9442 125.208 24.1827 124.95 24.4824C124.691 24.7685 124.493 25.1024 124.357 25.4839C124.221 25.8654 124.153 26.2673 124.153 26.6897V26.7306C124.153 27.153 124.221 27.5618 124.357 27.9569C124.507 28.3384 124.711 28.679 124.97 28.9788C125.229 29.2786 125.542 29.517 125.91 29.6941C126.278 29.8713 126.694 29.9598 127.157 29.9598ZM127.116 34.1905C126.012 34.1905 124.984 33.9997 124.03 33.6182C123.09 33.2367 122.265 32.7121 121.557 32.0445C120.862 31.3769 120.317 30.5934 119.922 29.6941C119.527 28.7812 119.329 27.807 119.329 26.7715V26.7306C119.329 25.6951 119.527 24.7277 119.922 23.8284C120.331 22.9155 120.882 22.1252 121.577 21.4576C122.286 20.7763 123.117 20.2449 124.071 19.8634C125.025 19.4683 126.053 19.2707 127.157 19.2707C128.261 19.2707 129.282 19.4615 130.223 19.843C131.176 20.2245 132.001 20.7491 132.696 21.4167C133.404 22.0843 133.956 22.8746 134.351 23.7875C134.746 24.6868 134.944 25.6542 134.944 26.6897V26.7306C134.944 27.7661 134.739 28.7403 134.331 29.6532C133.936 30.5525 133.384 31.3428 132.675 32.0241C131.98 32.6917 131.156 33.2231 130.202 33.6182C129.248 33.9997 128.22 34.1905 127.116 34.1905Z" fill="#5C6E94"/>
<path d="M134.403 19.5773H139.185V29.7963H145.909V33.8839H134.403V19.5773Z" fill="#5C6E94"/>
<path d="M34.1669 50.0028H30.9786V45.9561H34.1669V42.6042H38.3772V45.9561H41.5655V50.0028H38.3772V53.3547H34.1669V50.0028Z" fill="#5C6E94"/>
<path d="M239.222 66.8504H0.777893V3.83279H77.0738V5.53592H2.48102V65.1472H237.519V5.53592H162.074V3.83279H239.222V66.8504Z" fill="#5C6E94"/>
<path d="M84.8129 52.6569C86.7743 52.6569 88.3635 51.0651 88.3635 49.1065C88.3635 47.1433 86.7743 45.5541 84.8129 45.5541C82.8517 45.5541 81.2631 47.1433 81.2631 49.1065C81.2631 51.0651 82.8517 52.6569 84.8129 52.6569Z" fill="#5C6E94"/>
<path d="M58.4609 51.368V57.8652H63.2784V40.4187H58.4609V46.9877H55.3948V40.4187H50.5773V57.8652H55.3948V51.368H58.4609Z" fill="#5C6E94"/>
<path d="M75.9352 49.1064C75.9352 44.37 79.6414 40.4983 84.3135 40.2397H85.3106C89.9827 40.4983 93.6908 44.37 93.6908 49.1064C93.6908 54.0077 89.7167 57.9841 84.8129 57.9841C79.9092 57.9841 75.9352 54.0077 75.9352 49.1064ZM84.8129 53.5455C87.2651 53.5455 89.2521 51.5561 89.2521 49.1064C89.2521 46.6548 87.2651 44.6672 84.8129 44.6672C82.3614 44.6672 80.3744 46.6549 80.3744 49.1064C80.3744 51.5561 82.3614 53.5455 84.8129 53.5455Z" fill="#5C6E94"/>
<path d="M71.6738 40.4186C72.9884 40.4186 76.7093 41.1497 76.7093 44.8706C76.7093 47.8634 75.2696 48.7564 74.1559 48.9593C73.3513 49.1064 76.5622 48.9593 76.5622 52.6802C76.5622 58.0123 71.892 57.8652 71.892 57.8652H64.2988V40.4186L71.6738 40.4186ZM68.6056 44.6672V47.2947H71.1614C71.1614 47.2947 72.1862 47.1714 72.1862 45.915C72.1862 44.6525 71.1264 44.6672 71.1264 44.6672L68.6056 44.6672ZM68.6056 51.0915V53.7203H71.1614C71.1614 53.7203 72.1862 53.5952 72.1862 52.3387C72.1862 51.0762 71.1264 51.0915 71.1264 51.0915H68.6056Z" fill="#5C6E94"/>
<path d="M93.8444 42.5992H93.3897V40.47H94.1863C94.7351 40.47 95.0549 40.6251 95.0549 41.1113C95.0549 41.5033 94.8339 41.6428 94.547 41.6694L95.0942 42.5992H94.5517L94.0592 41.7024H93.8444V42.5992ZM94.2475 41.3433C94.4528 41.3433 94.5689 41.2994 94.5689 41.0673C94.5689 40.8462 94.3368 40.829 94.1643 40.829H93.8444V41.3433L94.2475 41.3433ZM94.1752 43.5119C93.12 43.5119 92.1839 42.7812 92.1839 41.5377C92.1839 40.2865 93.12 39.5573 94.1752 39.5573C95.2274 39.5573 96.1556 40.2865 96.1556 41.5377C96.1556 42.7812 95.2274 43.5119 94.1752 43.5119ZM94.1752 40.0168C93.3897 40.0168 92.7547 40.6251 92.7547 41.5377C92.7547 42.4441 93.3897 43.0587 94.1752 43.0524C94.9389 43.0524 95.5927 42.4441 95.5927 41.5377C95.5927 40.6251 94.9389 40.0168 94.1752 40.0168Z" fill="#5C6E94"/>
<line x1="157.257" y1="17.4582" x2="157.257" y2="33.2125" stroke="#5C6E94" stroke-width="0.425793"/>
<line x1="107.865" y1="41.7284" x2="107.865" y2="57.4827" stroke="#5C6E94" stroke-width="0.425793"/>
</svg>
