<svg width="240" height="67" viewBox="0 0 240 67" fill="none" xmlns="http://www.w3.org/2000/svg">
<path d="M168.041 21.7544V14.9076L168.368 15.2551H166.355V14.6011H168.777V21.7544H168.041ZM171.683 17.7894C171.383 17.7894 171.107 17.7179 170.855 17.5748C170.61 17.4249 170.415 17.2308 170.272 16.9923C170.129 16.7471 170.058 16.4712 170.058 16.1646C170.058 15.8648 170.129 15.5923 170.272 15.3471C170.415 15.1018 170.61 14.9076 170.855 14.7646C171.107 14.6215 171.383 14.55 171.683 14.55C171.989 14.55 172.265 14.6215 172.51 14.7646C172.762 14.9076 172.96 15.1018 173.103 15.3471C173.246 15.5923 173.318 15.8648 173.318 16.1646C173.318 16.4643 173.246 16.7368 173.103 16.9821C172.96 17.2274 172.762 17.4249 172.51 17.5748C172.265 17.7179 171.989 17.7894 171.683 17.7894ZM171.693 17.3602C171.911 17.3602 172.108 17.3057 172.285 17.1967C172.469 17.0877 172.612 16.9446 172.715 16.7675C172.817 16.5904 172.868 16.3894 172.868 16.1646C172.868 15.9398 172.817 15.7388 172.715 15.5617C172.612 15.3777 172.469 15.2346 172.285 15.1325C172.108 15.0303 171.911 14.9792 171.693 14.9792C171.468 14.9792 171.264 15.0303 171.08 15.1325C170.902 15.2346 170.763 15.3777 170.661 15.5617C170.558 15.7388 170.507 15.9398 170.507 16.1646C170.507 16.3894 170.558 16.5938 170.661 16.7777C170.763 16.9549 170.902 17.0979 171.08 17.2069C171.264 17.3091 171.468 17.3602 171.693 17.3602ZM178.557 21.7544V19.0974L178.73 19.5675L175.695 14.6011H176.502L179.17 18.9646H178.74L181.408 14.6011H182.164L179.129 19.5675L179.303 19.0974V21.7544H178.557ZM184.427 21.7544V21.2332L187.401 18.3208C187.673 18.0551 187.878 17.8235 188.014 17.6259C188.15 17.4215 188.242 17.2308 188.29 17.0536C188.338 16.8765 188.362 16.7096 188.362 16.5529C188.362 16.1373 188.218 15.8103 187.932 15.5719C187.653 15.3334 187.237 15.2142 186.686 15.2142C186.263 15.2142 185.889 15.2789 185.562 15.4084C185.241 15.5378 184.965 15.7388 184.734 16.0113L184.213 15.5617C184.492 15.2346 184.85 14.9826 185.286 14.8054C185.722 14.6283 186.209 14.5398 186.747 14.5398C187.231 14.5398 187.65 14.6181 188.004 14.7748C188.358 14.9247 188.631 15.1461 188.821 15.439C189.019 15.732 189.118 16.076 189.118 16.4712C189.118 16.7028 189.084 16.931 189.016 17.1558C188.954 17.3806 188.838 17.6191 188.668 17.8712C188.505 18.1164 188.263 18.3957 187.943 18.7091L185.214 21.3865L185.01 21.1004H189.445V21.7544H184.427ZM191.564 17.7894C191.264 17.7894 190.988 17.7179 190.736 17.5748C190.491 17.4249 190.297 17.2308 190.154 16.9923C190.01 16.7471 189.939 16.4712 189.939 16.1646C189.939 15.8648 190.01 15.5923 190.154 15.3471C190.297 15.1018 190.491 14.9076 190.736 14.7646C190.988 14.6215 191.264 14.55 191.564 14.55C191.87 14.55 192.146 14.6215 192.391 14.7646C192.644 14.9076 192.841 15.1018 192.984 15.3471C193.127 15.5923 193.199 15.8648 193.199 16.1646C193.199 16.4643 193.127 16.7368 192.984 16.9821C192.841 17.2274 192.644 17.4249 192.391 17.5748C192.146 17.7179 191.87 17.7894 191.564 17.7894ZM191.574 17.3602C191.792 17.3602 191.99 17.3057 192.167 17.1967C192.351 17.0877 192.494 16.9446 192.596 16.7675C192.698 16.5904 192.749 16.3894 192.749 16.1646C192.749 15.9398 192.698 15.7388 192.596 15.5617C192.494 15.3777 192.351 15.2346 192.167 15.1325C191.99 15.0303 191.792 14.9792 191.574 14.9792C191.349 14.9792 191.145 15.0303 190.961 15.1325C190.784 15.2346 190.644 15.3777 190.542 15.5617C190.44 15.7388 190.389 15.9398 190.389 16.1646C190.389 16.3894 190.44 16.5938 190.542 16.7777C190.644 16.9549 190.784 17.0979 190.961 17.2069C191.145 17.3091 191.349 17.3602 191.574 17.3602ZM196.731 21.7544V14.6011H197.355L200.625 20.1807H200.298L203.537 14.6011H204.16V21.7544H203.435V15.7354H203.609L200.625 20.8449H200.267L197.263 15.7354H197.457V21.7544H196.731ZM206.082 21.7544V14.6011H210.988V15.2551H206.839V21.1004H211.141V21.7544H206.082ZM206.757 18.4434V17.7996H210.538V18.4434H206.757ZM214.482 21.8157C213.95 21.8157 213.44 21.7306 212.949 21.5602C212.465 21.3831 212.091 21.1583 211.825 20.8858L212.121 20.3033C212.373 20.5485 212.711 20.7563 213.133 20.9267C213.562 21.0902 214.012 21.1719 214.482 21.1719C214.931 21.1719 215.296 21.1174 215.575 21.0084C215.861 20.8926 216.069 20.7393 216.199 20.5485C216.335 20.3578 216.403 20.1466 216.403 19.915C216.403 19.6356 216.321 19.4108 216.158 19.2405C216.001 19.0702 215.793 18.9373 215.534 18.842C215.276 18.7398 214.989 18.6512 214.676 18.5763C214.363 18.5013 214.049 18.423 213.736 18.3412C213.422 18.2527 213.133 18.1369 212.867 17.9938C212.608 17.8507 212.397 17.6634 212.234 17.4317C212.077 17.1933 211.999 16.8833 211.999 16.5018C211.999 16.1475 212.091 15.8239 212.275 15.531C212.465 15.2312 212.755 14.9928 213.143 14.8157C213.531 14.6317 214.029 14.5398 214.635 14.5398C215.037 14.5398 215.436 14.5977 215.831 14.7135C216.226 14.8225 216.567 14.9758 216.853 15.1733L216.597 15.7763C216.291 15.5719 215.964 15.422 215.616 15.3266C215.276 15.2312 214.945 15.1836 214.625 15.1836C214.196 15.1836 213.841 15.2415 213.562 15.3573C213.283 15.4731 213.075 15.6298 212.939 15.8274C212.809 16.0181 212.745 16.2361 212.745 16.4814C212.745 16.7607 212.823 16.9855 212.98 17.1558C213.143 17.3261 213.354 17.459 213.613 17.5544C213.879 17.6497 214.168 17.7349 214.482 17.8098C214.795 17.8848 215.105 17.9665 215.412 18.0551C215.725 18.1437 216.011 18.2595 216.27 18.4026C216.536 18.5388 216.747 18.7227 216.904 18.9544C217.067 19.186 217.149 19.4892 217.149 19.8639C217.149 20.2113 217.054 20.5349 216.863 20.8347C216.672 21.1276 216.379 21.3661 215.984 21.55C215.596 21.7271 215.095 21.8157 214.482 21.8157ZM169.4 33.8157C168.869 33.8157 168.358 33.7306 167.867 33.5602C167.384 33.3831 167.009 33.1583 166.743 32.8858L167.04 32.3033C167.292 32.5485 167.629 32.7563 168.051 32.9267C168.481 33.0902 168.93 33.1719 169.4 33.1719C169.85 33.1719 170.214 33.1174 170.494 33.0084C170.78 32.8926 170.988 32.7393 171.117 32.5485C171.253 32.3578 171.322 32.1466 171.322 31.915C171.322 31.6356 171.24 31.4108 171.076 31.2405C170.92 31.0702 170.712 30.9373 170.453 30.842C170.194 30.7398 169.908 30.6512 169.594 30.5763C169.281 30.5013 168.968 30.423 168.654 30.3412C168.341 30.2527 168.051 30.1369 167.786 29.9938C167.527 29.8507 167.316 29.6634 167.152 29.4317C166.995 29.1933 166.917 28.8833 166.917 28.5018C166.917 28.1475 167.009 27.8239 167.193 27.531C167.384 27.2312 167.673 26.9928 168.062 26.8157C168.45 26.6317 168.947 26.5398 169.554 26.5398C169.956 26.5398 170.354 26.5977 170.749 26.7135C171.144 26.8225 171.485 26.9758 171.771 27.1733L171.516 27.7763C171.209 27.5719 170.882 27.422 170.535 27.3266C170.194 27.2312 169.864 27.1836 169.543 27.1836C169.114 27.1836 168.76 27.2415 168.481 27.3573C168.201 27.4731 167.994 27.6298 167.857 27.8274C167.728 28.0181 167.663 28.2361 167.663 28.4814C167.663 28.7607 167.741 28.9855 167.898 29.1558C168.062 29.3261 168.273 29.459 168.532 29.5544C168.797 29.6497 169.087 29.7349 169.4 29.8098C169.714 29.8848 170.024 29.9665 170.33 30.0551C170.644 30.1437 170.93 30.2595 171.189 30.4026C171.454 30.5388 171.666 30.7227 171.822 30.9544C171.986 31.186 172.068 31.4892 172.068 31.8639C172.068 32.2113 171.972 32.5349 171.781 32.8347C171.591 33.1276 171.298 33.3661 170.903 33.55C170.514 33.7271 170.013 33.8157 169.4 33.8157ZM172.795 33.7544V26.6011H173.552V33.7544H172.795ZM174.959 33.7544V26.6011H175.583L180.519 32.8142H180.192V26.6011H180.938V33.7544H180.314L175.389 27.5412H175.716V33.7544H174.959ZM187.214 33.8157C186.676 33.8157 186.179 33.7271 185.722 33.55C185.266 33.3661 184.87 33.1106 184.537 32.7836C184.203 32.4566 183.941 32.0717 183.75 31.6288C183.566 31.186 183.474 30.7023 183.474 30.1777C183.474 29.6532 183.566 29.1695 183.75 28.7266C183.941 28.2838 184.203 27.8989 184.537 27.5719C184.877 27.2449 185.276 26.9928 185.732 26.8157C186.189 26.6317 186.686 26.5398 187.224 26.5398C187.742 26.5398 188.229 26.6283 188.686 26.8054C189.142 26.9758 189.527 27.2346 189.84 27.5821L189.36 28.0624C189.067 27.7626 188.743 27.548 188.389 27.4186C188.035 27.2823 187.653 27.2142 187.245 27.2142C186.815 27.2142 186.417 27.2892 186.049 27.439C185.681 27.5821 185.361 27.7899 185.088 28.0624C184.816 28.3281 184.601 28.6415 184.445 29.0025C184.295 29.3568 184.22 29.7485 184.22 30.1777C184.22 30.6069 184.295 31.0021 184.445 31.3631C184.601 31.7174 184.816 32.0308 185.088 32.3033C185.361 32.569 185.681 32.7768 186.049 32.9267C186.417 33.0697 186.815 33.1413 187.245 33.1413C187.653 33.1413 188.035 33.0731 188.389 32.9369C188.743 32.8006 189.067 32.5826 189.36 32.2829L189.84 32.7631C189.527 33.1106 189.142 33.3729 188.686 33.55C188.229 33.7271 187.739 33.8157 187.214 33.8157ZM189.109 33.7544L192.379 26.6011H193.125L196.395 33.7544H195.598L192.593 27.0405H192.9L189.896 33.7544H189.109ZM190.396 31.8434L190.621 31.2303H194.78L195.005 31.8434H190.396ZM196.659 33.7544V26.6011H199.336C200.242 26.6011 200.954 26.8191 201.472 27.2551C201.996 27.6843 202.259 28.2838 202.259 29.0536C202.259 29.5578 202.139 29.9938 201.901 30.3617C201.669 30.7227 201.335 31.0021 200.899 31.1996C200.463 31.3904 199.942 31.4858 199.336 31.4858H197.077L197.415 31.1383V33.7544H196.659ZM201.543 33.7544L199.704 31.1588H200.521L202.371 33.7544H201.543ZM197.415 31.1996L197.077 30.842H199.315C200.031 30.842 200.572 30.6853 200.94 30.3719C201.315 30.0585 201.502 29.6191 201.502 29.0536C201.502 28.4814 201.315 28.0385 200.94 27.7252C200.572 27.4118 200.031 27.2551 199.315 27.2551H197.077L197.415 26.8974V31.1996ZM206.261 33.8157C205.716 33.8157 205.212 33.7271 204.748 33.55C204.292 33.3661 203.893 33.1106 203.553 32.7836C203.219 32.4566 202.957 32.0717 202.766 31.6288C202.582 31.186 202.49 30.7023 202.49 30.1777C202.49 29.6532 202.582 29.1695 202.766 28.7266C202.957 28.2838 203.222 27.8989 203.563 27.5719C203.904 27.2449 204.302 26.9928 204.759 26.8157C205.222 26.6317 205.726 26.5398 206.271 26.5398C206.816 26.5398 207.313 26.6249 207.763 26.7952C208.22 26.9655 208.608 27.2244 208.928 27.5719L208.458 28.0522C208.158 27.7524 207.828 27.5378 207.467 27.4084C207.106 27.2789 206.717 27.2142 206.302 27.2142C205.859 27.2142 205.45 27.2892 205.075 27.439C204.708 27.5821 204.384 27.7899 204.105 28.0624C203.832 28.3281 203.618 28.6415 203.461 29.0025C203.311 29.3568 203.236 29.7485 203.236 30.1777C203.236 30.6001 203.311 30.9918 203.461 31.3529C203.618 31.714 203.832 32.0308 204.105 32.3033C204.384 32.569 204.708 32.7768 205.075 32.9267C205.45 33.0697 205.856 33.1413 206.292 33.1413C206.7 33.1413 207.085 33.0799 207.446 32.9573C207.814 32.8347 208.151 32.6269 208.458 32.3339L208.887 32.9062C208.547 33.206 208.148 33.4342 207.692 33.5909C207.235 33.7408 206.758 33.8157 206.261 33.8157ZM208.887 32.9062L208.162 32.8142V30.1777H208.887V32.9062ZM213.235 33.8157C212.697 33.8157 212.196 33.7271 211.733 33.55C211.276 33.3661 210.878 33.1106 210.537 32.7836C210.203 32.4498 209.941 32.0648 209.75 31.6288C209.566 31.186 209.474 30.7023 209.474 30.1777C209.474 29.6532 209.566 29.1729 209.75 28.7368C209.941 28.294 210.203 27.9091 210.537 27.5821C210.878 27.2483 211.276 26.9928 211.733 26.8157C212.189 26.6317 212.69 26.5398 213.235 26.5398C213.773 26.5398 214.27 26.6317 214.727 26.8157C215.183 26.9928 215.578 27.2449 215.912 27.5719C216.253 27.8989 216.515 28.2838 216.699 28.7266C216.89 29.1695 216.985 29.6532 216.985 30.1777C216.985 30.7023 216.89 31.186 216.699 31.6288C216.515 32.0717 216.253 32.4566 215.912 32.7836C215.578 33.1106 215.183 33.3661 214.727 33.55C214.27 33.7271 213.773 33.8157 213.235 33.8157ZM213.235 33.1413C213.664 33.1413 214.059 33.0697 214.42 32.9267C214.788 32.7768 215.105 32.569 215.371 32.3033C215.643 32.0308 215.854 31.7174 216.004 31.3631C216.154 31.0021 216.229 30.6069 216.229 30.1777C216.229 29.7485 216.154 29.3568 216.004 29.0025C215.854 28.6415 215.643 28.3281 215.371 28.0624C215.105 27.7899 214.788 27.5821 214.42 27.439C214.059 27.2892 213.664 27.2142 213.235 27.2142C212.806 27.2142 212.407 27.2892 212.039 27.439C211.671 27.5821 211.351 27.7899 211.079 28.0624C210.813 28.3281 210.602 28.6415 210.445 29.0025C210.295 29.3568 210.22 29.7485 210.22 30.1777C210.22 30.6001 210.295 30.9918 210.445 31.3529C210.602 31.714 210.813 32.0308 211.079 32.3033C211.351 32.569 211.671 32.7768 212.039 32.9267C212.407 33.0697 212.806 33.1413 213.235 33.1413Z" fill="white"/>
<path d="M115.501 47.5989V40.7521L115.828 41.0996H113.815V40.4456H116.237V47.5989H115.501ZM118.631 43.6339C118.331 43.6339 118.055 43.5624 117.803 43.4193C117.558 43.2694 117.364 43.0752 117.221 42.8368C117.078 42.5915 117.006 42.3156 117.006 42.0091C117.006 41.7093 117.078 41.4368 117.221 41.1915C117.364 40.9463 117.558 40.7521 117.803 40.6091C118.055 40.466 118.331 40.3945 118.631 40.3945C118.938 40.3945 119.214 40.466 119.459 40.6091C119.711 40.7521 119.909 40.9463 120.052 41.1915C120.195 41.4368 120.266 41.7093 120.266 42.0091C120.266 42.3088 120.195 42.5813 120.052 42.8266C119.909 43.0718 119.711 43.2694 119.459 43.4193C119.214 43.5624 118.938 43.6339 118.631 43.6339ZM118.641 43.2047C118.859 43.2047 119.057 43.1502 119.234 43.0412C119.418 42.9322 119.561 42.7891 119.663 42.612C119.765 42.4349 119.817 42.2339 119.817 42.0091C119.817 41.7842 119.765 41.5833 119.663 41.4061C119.561 41.2222 119.418 41.0791 119.234 40.9769C119.057 40.8748 118.859 40.8237 118.641 40.8237C118.417 40.8237 118.212 40.8748 118.028 40.9769C117.851 41.0791 117.711 41.2222 117.609 41.4061C117.507 41.5833 117.456 41.7842 117.456 42.0091C117.456 42.2339 117.507 42.4383 117.609 42.6222C117.711 42.7993 117.851 42.9424 118.028 43.0514C118.212 43.1536 118.417 43.2047 118.641 43.2047ZM122.777 47.5989V40.4456H123.4L126.67 46.0251H126.343L129.583 40.4456H130.206V47.5989H129.48V41.5799H129.654L126.67 46.6894H126.312L123.308 41.5799H123.502V47.5989H122.777ZM131.617 47.5989V40.4456H136.522V41.0996H132.373V46.9449H136.675V47.5989H131.617ZM132.291 44.2879V43.6441H136.072V44.2879H132.291ZM139.505 47.6602C138.974 47.6602 138.463 47.575 137.973 47.4047C137.489 47.2276 137.114 47.0028 136.848 46.7303L137.145 46.1478C137.397 46.393 137.734 46.6008 138.157 46.7711C138.586 46.9346 139.035 47.0164 139.505 47.0164C139.955 47.0164 140.32 46.9619 140.599 46.8529C140.885 46.7371 141.093 46.5838 141.222 46.393C141.358 46.2023 141.427 45.9911 141.427 45.7595C141.427 45.4801 141.345 45.2553 141.181 45.085C141.025 44.9147 140.817 44.7818 140.558 44.6865C140.299 44.5843 140.013 44.4957 139.7 44.4208C139.386 44.3458 139.073 44.2675 138.759 44.1857C138.446 44.0972 138.157 43.9813 137.891 43.8383C137.632 43.6952 137.421 43.5079 137.257 43.2762C137.101 43.0378 137.022 42.7278 137.022 42.3463C137.022 41.992 137.114 41.6684 137.298 41.3755C137.489 41.0757 137.778 40.8373 138.167 40.6602C138.555 40.4762 139.052 40.3842 139.659 40.3842C140.061 40.3842 140.459 40.4421 140.854 40.558C141.249 40.667 141.59 40.8202 141.876 41.0178L141.621 41.6207C141.314 41.4164 140.987 41.2665 140.64 41.1711C140.299 41.0757 139.969 41.028 139.649 41.028C139.219 41.028 138.865 41.0859 138.586 41.2018C138.306 41.3176 138.099 41.4743 137.962 41.6718C137.833 41.8626 137.768 42.0806 137.768 42.3259C137.768 42.6052 137.847 42.83 138.003 43.0003C138.167 43.1706 138.378 43.3035 138.637 43.3989C138.903 43.4942 139.192 43.5794 139.505 43.6543C139.819 43.7293 140.129 43.811 140.435 43.8996C140.749 43.9882 141.035 44.104 141.294 44.247C141.559 44.3833 141.771 44.5672 141.927 44.7989C142.091 45.0305 142.173 45.3337 142.173 45.7084C142.173 46.0558 142.077 46.3794 141.886 46.6792C141.696 46.9721 141.403 47.2106 141.008 47.3945C140.619 47.5716 140.119 47.6602 139.505 47.6602ZM146.628 47.6602C146.096 47.6602 145.585 47.575 145.095 47.4047C144.611 47.2276 144.236 47.0028 143.971 46.7303L144.267 46.1478C144.519 46.393 144.856 46.6008 145.279 46.7711C145.708 46.9346 146.158 47.0164 146.628 47.0164C147.077 47.0164 147.442 46.9619 147.721 46.8529C148.007 46.7371 148.215 46.5838 148.344 46.393C148.481 46.2023 148.549 45.9911 148.549 45.7595C148.549 45.4801 148.467 45.2553 148.304 45.085C148.147 44.9147 147.939 44.7818 147.68 44.6865C147.421 44.5843 147.135 44.4957 146.822 44.4208C146.508 44.3458 146.195 44.2675 145.882 44.1857C145.568 44.0972 145.279 43.9813 145.013 43.8383C144.754 43.6952 144.543 43.5079 144.379 43.2762C144.223 43.0378 144.144 42.7278 144.144 42.3463C144.144 41.992 144.236 41.6684 144.42 41.3755C144.611 41.0757 144.901 40.8373 145.289 40.6602C145.677 40.4762 146.175 40.3842 146.781 40.3842C147.183 40.3842 147.581 40.4421 147.977 40.558C148.372 40.667 148.712 40.8202 148.998 41.0178L148.743 41.6207C148.436 41.4164 148.109 41.2665 147.762 41.1711C147.421 41.0757 147.091 41.028 146.771 41.028C146.342 41.028 145.987 41.0859 145.708 41.2018C145.429 41.3176 145.221 41.4743 145.085 41.6718C144.955 41.8626 144.89 42.0806 144.89 42.3259C144.89 42.6052 144.969 42.83 145.125 43.0003C145.289 43.1706 145.5 43.3035 145.759 43.3989C146.025 43.4942 146.314 43.5794 146.628 43.6543C146.941 43.7293 147.251 43.811 147.558 43.8996C147.871 43.9882 148.157 44.104 148.416 44.247C148.682 44.3833 148.893 44.5672 149.05 44.7989C149.213 45.0305 149.295 45.3337 149.295 45.7084C149.295 46.0558 149.199 46.3794 149.009 46.6792C148.818 46.9721 148.525 47.2106 148.13 47.3945C147.742 47.5716 147.241 47.6602 146.628 47.6602ZM150.023 47.5989V40.4456H150.779V47.5989H150.023ZM152.187 47.5989V40.4456H152.81L157.746 46.6587H157.419V40.4456H158.165V47.5989H157.541L152.616 41.3857H152.943V47.5989H152.187ZM164.441 47.6602C163.903 47.6602 163.406 47.5716 162.949 47.3945C162.493 47.2106 162.098 46.9551 161.764 46.6281C161.43 46.3011 161.168 45.9161 160.977 45.4733C160.793 45.0305 160.701 44.5468 160.701 44.0222C160.701 43.4976 160.793 43.0139 160.977 42.5711C161.168 42.1283 161.43 41.7434 161.764 41.4164C162.105 41.0893 162.503 40.8373 162.96 40.6602C163.416 40.4762 163.913 40.3842 164.452 40.3842C164.969 40.3842 165.456 40.4728 165.913 40.6499C166.369 40.8202 166.754 41.0791 167.068 41.4266L166.587 41.9069C166.294 41.6071 165.971 41.3925 165.617 41.2631C165.262 41.1268 164.881 41.0587 164.472 41.0587C164.043 41.0587 163.644 41.1336 163.276 41.2835C162.908 41.4266 162.588 41.6344 162.316 41.9069C162.043 42.1726 161.829 42.486 161.672 42.847C161.522 43.2013 161.447 43.593 161.447 44.0222C161.447 44.4514 161.522 44.8465 161.672 45.2076C161.829 45.5619 162.043 45.8753 162.316 46.1478C162.588 46.4135 162.908 46.6213 163.276 46.7711C163.644 46.9142 164.043 46.9857 164.472 46.9857C164.881 46.9857 165.262 46.9176 165.617 46.7814C165.971 46.6451 166.294 46.4271 166.587 46.1273L167.068 46.6076C166.754 46.9551 166.369 47.2174 165.913 47.3945C165.456 47.5716 164.966 47.6602 164.441 47.6602ZM166.336 47.5989L169.606 40.4456H170.352L173.622 47.5989H172.825L169.821 40.885H170.127L167.123 47.5989H166.336ZM167.624 45.6879L167.848 45.0748H172.008L172.232 45.6879H167.624ZM173.886 47.5989V40.4456H176.563C177.469 40.4456 178.181 40.6636 178.699 41.0996C179.224 41.5288 179.486 42.1283 179.486 42.8981C179.486 43.4023 179.367 43.8383 179.128 44.2062C178.897 44.5672 178.563 44.8465 178.127 45.0441C177.691 45.2349 177.17 45.3303 176.563 45.3303H174.305L174.642 44.9828V47.5989H173.886ZM178.77 47.5989L176.931 45.0032H177.749L179.598 47.5989H178.77ZM174.642 45.0441L174.305 44.6865H176.543C177.258 44.6865 177.8 44.5298 178.168 44.2164C178.542 43.903 178.73 43.4636 178.73 42.8981C178.73 42.3259 178.542 41.883 178.168 41.5696C177.8 41.2563 177.258 41.0996 176.543 41.0996H174.305L174.642 40.7419V45.0441ZM183.488 47.6602C182.943 47.6602 182.439 47.5716 181.976 47.3945C181.519 47.2106 181.121 46.9551 180.78 46.6281C180.446 46.3011 180.184 45.9161 179.993 45.4733C179.809 45.0305 179.717 44.5468 179.717 44.0222C179.717 43.4976 179.809 43.0139 179.993 42.5711C180.184 42.1283 180.45 41.7434 180.79 41.4164C181.131 41.0893 181.53 40.8373 181.986 40.6602C182.449 40.4762 182.953 40.3842 183.498 40.3842C184.043 40.3842 184.541 40.4694 184.99 40.6397C185.447 40.81 185.835 41.0689 186.155 41.4164L185.685 41.8967C185.386 41.5969 185.055 41.3823 184.694 41.2529C184.333 41.1234 183.945 41.0587 183.529 41.0587C183.086 41.0587 182.677 41.1336 182.303 41.2835C181.935 41.4266 181.611 41.6344 181.332 41.9069C181.059 42.1726 180.845 42.486 180.688 42.847C180.538 43.2013 180.463 43.593 180.463 44.0222C180.463 44.4446 180.538 44.8363 180.688 45.1974C180.845 45.5585 181.059 45.8753 181.332 46.1478C181.611 46.4135 181.935 46.6213 182.303 46.7711C182.677 46.9142 183.083 46.9857 183.519 46.9857C183.928 46.9857 184.313 46.9244 184.674 46.8018C185.041 46.6792 185.379 46.4714 185.685 46.1784L186.114 46.7507C185.774 47.0505 185.375 47.2787 184.919 47.4354C184.462 47.5853 183.986 47.6602 183.488 47.6602ZM186.114 46.7507L185.389 46.6587V44.0222H186.114V46.7507ZM190.462 47.6602C189.924 47.6602 189.423 47.5716 188.96 47.3945C188.503 47.2106 188.105 46.9551 187.764 46.6281C187.43 46.2942 187.168 45.9093 186.977 45.4733C186.793 45.0305 186.701 44.5468 186.701 44.0222C186.701 43.4976 186.793 43.0173 186.977 42.5813C187.168 42.1385 187.43 41.7536 187.764 41.4266C188.105 41.0928 188.503 40.8373 188.96 40.6602C189.416 40.4762 189.917 40.3842 190.462 40.3842C191 40.3842 191.498 40.4762 191.954 40.6602C192.41 40.8373 192.806 41.0893 193.139 41.4164C193.48 41.7434 193.742 42.1283 193.926 42.5711C194.117 43.0139 194.212 43.4976 194.212 44.0222C194.212 44.5468 194.117 45.0305 193.926 45.4733C193.742 45.9161 193.48 46.3011 193.139 46.6281C192.806 46.9551 192.41 47.2106 191.954 47.3945C191.498 47.5716 191 47.6602 190.462 47.6602ZM190.462 46.9857C190.891 46.9857 191.286 46.9142 191.647 46.7711C192.015 46.6213 192.332 46.4135 192.598 46.1478C192.87 45.8753 193.082 45.5619 193.231 45.2076C193.381 44.8465 193.456 44.4514 193.456 44.0222C193.456 43.593 193.381 43.2013 193.231 42.847C193.082 42.486 192.87 42.1726 192.598 41.9069C192.332 41.6344 192.015 41.4266 191.647 41.2835C191.286 41.1336 190.891 41.0587 190.462 41.0587C190.033 41.0587 189.634 41.1336 189.266 41.2835C188.899 41.4266 188.578 41.6344 188.306 41.9069C188.04 42.1726 187.829 42.486 187.672 42.847C187.522 43.2013 187.447 43.593 187.447 44.0222C187.447 44.4446 187.522 44.8363 187.672 45.1974C187.829 45.5585 188.04 45.8753 188.306 46.1478C188.578 46.4135 188.899 46.6213 189.266 46.7711C189.634 46.9142 190.033 46.9857 190.462 46.9857ZM114.121 59.5989V59.0777L117.095 56.1653C117.367 55.8996 117.572 55.668 117.708 55.4704C117.844 55.266 117.936 55.0752 117.984 54.8981C118.032 54.721 118.056 54.5541 118.056 54.3974C118.056 53.9818 117.912 53.6548 117.626 53.4164C117.347 53.1779 116.931 53.0587 116.38 53.0587C115.957 53.0587 115.583 53.1234 115.256 53.2529C114.935 53.3823 114.659 53.5833 114.428 53.8558L113.907 53.4061C114.186 53.0791 114.544 52.8271 114.98 52.6499C115.416 52.4728 115.903 52.3842 116.441 52.3842C116.925 52.3842 117.344 52.4626 117.698 52.6193C118.052 52.7692 118.325 52.9906 118.515 53.2835C118.713 53.5765 118.812 53.9205 118.812 54.3156C118.812 54.5473 118.778 54.7755 118.71 55.0003C118.648 55.2251 118.532 55.4636 118.362 55.7156C118.199 55.9609 117.957 56.2402 117.637 56.5536L114.908 59.231L114.704 58.9449H119.139V59.5989H114.121ZM121.462 55.6339C121.162 55.6339 120.886 55.5624 120.634 55.4193C120.389 55.2694 120.195 55.0752 120.052 54.8368C119.909 54.5915 119.837 54.3156 119.837 54.0091C119.837 53.7093 119.909 53.4368 120.052 53.1915C120.195 52.9463 120.389 52.7521 120.634 52.6091C120.886 52.466 121.162 52.3945 121.462 52.3945C121.769 52.3945 122.045 52.466 122.29 52.6091C122.542 52.7521 122.74 52.9463 122.883 53.1915C123.026 53.4368 123.097 53.7093 123.097 54.0091C123.097 54.3088 123.026 54.5813 122.883 54.8266C122.74 55.0718 122.542 55.2694 122.29 55.4193C122.045 55.5624 121.769 55.6339 121.462 55.6339ZM121.472 55.2047C121.69 55.2047 121.888 55.1502 122.065 55.0412C122.249 54.9322 122.392 54.7891 122.494 54.612C122.596 54.4349 122.648 54.2339 122.648 54.0091C122.648 53.7842 122.596 53.5833 122.494 53.4061C122.392 53.2222 122.249 53.0791 122.065 52.9769C121.888 52.8748 121.69 52.8237 121.472 52.8237C121.248 52.8237 121.043 52.8748 120.859 52.9769C120.682 53.0791 120.542 53.2222 120.44 53.4061C120.338 53.5833 120.287 53.7842 120.287 54.0091C120.287 54.2339 120.338 54.4383 120.44 54.6222C120.542 54.7993 120.682 54.9424 120.859 55.0514C121.043 55.1536 121.248 55.2047 121.472 55.2047ZM128.745 59.5989V56.9419L128.919 57.412L125.884 52.4456H126.691L129.358 56.8091H128.929L131.596 52.4456H132.352L129.317 57.412L129.491 56.9419V59.5989H128.745ZM137.293 59.6602C136.775 59.6602 136.285 59.5784 135.821 59.4149C135.365 59.2446 134.997 59.0198 134.718 58.7405L135.075 58.158C135.307 58.3964 135.617 58.594 136.005 58.7507C136.4 58.9074 136.83 58.9857 137.293 58.9857C137.886 58.9857 138.339 58.8563 138.652 58.5974C138.972 58.3385 139.132 57.9911 139.132 57.5551C139.132 57.1191 138.976 56.7716 138.662 56.5127C138.356 56.2538 137.869 56.1244 137.201 56.1244H136.69V55.5828L138.897 52.8134L139 53.0996H135.014V52.4456H139.613V52.9667L137.405 55.7361L137.048 55.501H137.324C138.182 55.501 138.822 55.6918 139.245 56.0733C139.674 56.4548 139.889 56.9453 139.889 57.5449C139.889 57.9468 139.793 58.3079 139.602 58.6281C139.412 58.9483 139.122 59.2003 138.734 59.3843C138.352 59.5682 137.872 59.6602 137.293 59.6602ZM144.795 55.6339C144.496 55.6339 144.22 55.5624 143.968 55.4193C143.722 55.2694 143.528 55.0752 143.385 54.8368C143.242 54.5915 143.171 54.3156 143.171 54.0091C143.171 53.7093 143.242 53.4368 143.385 53.1915C143.528 52.9463 143.722 52.7521 143.968 52.6091C144.22 52.466 144.496 52.3945 144.795 52.3945C145.102 52.3945 145.378 52.466 145.623 52.6091C145.875 52.7521 146.073 52.9463 146.216 53.1915C146.359 53.4368 146.431 53.7093 146.431 54.0091C146.431 54.3088 146.359 54.5813 146.216 54.8266C146.073 55.0718 145.875 55.2694 145.623 55.4193C145.378 55.5624 145.102 55.6339 144.795 55.6339ZM144.806 55.2047C145.024 55.2047 145.221 55.1502 145.398 55.0412C145.582 54.9322 145.725 54.7891 145.828 54.612C145.93 54.4349 145.981 54.2339 145.981 54.0091C145.981 53.7842 145.93 53.5833 145.828 53.4061C145.725 53.2222 145.582 53.0791 145.398 52.9769C145.221 52.8748 145.024 52.8237 144.806 52.8237C144.581 52.8237 144.376 52.8748 144.193 52.9769C144.015 53.0791 143.876 53.2222 143.774 53.4061C143.671 53.5833 143.62 53.7842 143.62 54.0091C143.62 54.2339 143.671 54.4383 143.774 54.6222C143.876 54.7993 144.015 54.9424 144.193 55.0514C144.376 55.1536 144.581 55.2047 144.806 55.2047ZM150.372 59.5989V52.4456H150.995L154.265 58.0251H153.938L157.178 52.4456H157.801V59.5989H157.075V53.5799H157.249L154.265 58.6894H153.907L150.903 53.5799H151.097V59.5989H150.372ZM159.927 59.5989V52.4456H164.832V53.0996H160.683V58.9449H164.986V59.5989H159.927ZM160.602 56.2879V55.6441H164.383V56.2879H160.602ZM168.531 59.6602C168 59.6602 167.489 59.575 166.998 59.4047C166.515 59.2276 166.14 59.0028 165.874 58.7303L166.171 58.1478C166.423 58.393 166.76 58.6008 167.182 58.7711C167.611 58.9346 168.061 59.0164 168.531 59.0164C168.981 59.0164 169.345 58.9619 169.625 58.8529C169.911 58.7371 170.118 58.5838 170.248 58.393C170.384 58.2023 170.452 57.9911 170.452 57.7595C170.452 57.4801 170.371 57.2553 170.207 57.085C170.05 56.9147 169.843 56.7818 169.584 56.6865C169.325 56.5843 169.039 56.4957 168.725 56.4208C168.412 56.3458 168.098 56.2675 167.785 56.1857C167.472 56.0972 167.182 55.9813 166.916 55.8383C166.658 55.6952 166.446 55.5079 166.283 55.2762C166.126 55.0378 166.048 54.7278 166.048 54.3463C166.048 53.992 166.14 53.6684 166.324 53.3755C166.515 53.0757 166.804 52.8373 167.192 52.6602C167.581 52.4762 168.078 52.3842 168.684 52.3842C169.086 52.3842 169.485 52.4421 169.88 52.558C170.275 52.667 170.616 52.8202 170.902 53.0178L170.646 53.6207C170.34 53.4164 170.013 53.2665 169.665 53.1711C169.325 53.0757 168.994 53.028 168.674 53.028C168.245 53.028 167.891 53.0859 167.611 53.2018C167.332 53.3176 167.124 53.4743 166.988 53.6718C166.859 53.8626 166.794 54.0806 166.794 54.3259C166.794 54.6052 166.872 54.83 167.029 55.0003C167.192 55.1706 167.404 55.3035 167.662 55.3989C167.928 55.4942 168.218 55.5794 168.531 55.6543C168.844 55.7293 169.154 55.811 169.461 55.8996C169.774 55.9882 170.061 56.104 170.319 56.247C170.585 56.3833 170.796 56.5672 170.953 56.7989C171.117 57.0305 171.198 57.3337 171.198 57.7084C171.198 58.0558 171.103 58.3794 170.912 58.6792C170.721 58.9721 170.428 59.2106 170.033 59.3945C169.645 59.5716 169.144 59.6602 168.531 59.6602ZM173.967 59.5989L177.237 52.4456H177.983L181.253 59.5989H180.456L177.452 52.885H177.758L174.754 59.5989H173.967ZM175.255 57.6879L175.48 57.0748H179.639L179.864 57.6879H175.255ZM182.232 59.5989V52.4456H182.988V58.9449H186.994V59.5989H182.232ZM192.141 59.6602C191.63 59.6602 191.142 59.5784 190.679 59.4149C190.216 59.2446 189.848 59.0198 189.576 58.7405L189.933 58.158C190.158 58.3964 190.465 58.594 190.853 58.7507C191.248 58.9074 191.674 58.9857 192.13 58.9857C192.737 58.9857 193.196 58.8529 193.51 58.5872C193.83 58.3147 193.99 57.9604 193.99 57.5244C193.99 57.2178 193.915 56.9556 193.765 56.7375C193.622 56.5127 193.377 56.339 193.03 56.2164C192.682 56.0937 192.205 56.0324 191.599 56.0324H190.076L190.444 52.4456H194.358V53.0996H190.741L191.119 52.7419L190.802 55.7463L190.424 55.3784H191.762C192.485 55.3784 193.064 55.467 193.5 55.6441C193.936 55.8212 194.249 56.0699 194.44 56.3901C194.637 56.7035 194.736 57.0714 194.736 57.4938C194.736 57.8957 194.641 58.2636 194.45 58.5974C194.259 58.9244 193.973 59.1833 193.592 59.3741C193.21 59.5648 192.726 59.6602 192.141 59.6602ZM198.317 59.6602C197.765 59.6602 197.275 59.5171 196.845 59.231C196.416 58.938 196.079 58.5225 195.834 57.9843C195.588 57.4393 195.466 56.7852 195.466 56.0222C195.466 55.2592 195.588 54.6086 195.834 54.0704C196.079 53.5254 196.416 53.1098 196.845 52.8237C197.275 52.5307 197.765 52.3842 198.317 52.3842C198.869 52.3842 199.359 52.5307 199.789 52.8237C200.218 53.1098 200.555 53.5254 200.8 54.0704C201.052 54.6086 201.178 55.2592 201.178 56.0222C201.178 56.7852 201.052 57.4393 200.8 57.9843C200.555 58.5225 200.218 58.938 199.789 59.231C199.359 59.5171 198.869 59.6602 198.317 59.6602ZM198.317 58.9857C198.739 58.9857 199.107 58.8733 199.421 58.6485C199.734 58.4169 199.979 58.0831 200.156 57.647C200.334 57.2042 200.422 56.6626 200.422 56.0222C200.422 55.3818 200.334 54.8436 200.156 54.4076C199.979 53.9648 199.734 53.631 199.421 53.4061C199.107 53.1745 198.739 53.0587 198.317 53.0587C197.908 53.0587 197.544 53.1745 197.224 53.4061C196.903 53.631 196.655 53.9648 196.478 54.4076C196.3 54.8436 196.212 55.3818 196.212 56.0222C196.212 56.6626 196.3 57.2042 196.478 57.647C196.655 58.0831 196.903 58.4169 197.224 58.6485C197.544 58.8733 197.908 58.9857 198.317 58.9857ZM202.988 59.5989L207.873 52.4456H208.476L203.591 59.5989H202.988ZM203.54 56.2777C203.22 56.2777 202.937 56.1993 202.692 56.0427C202.447 55.8791 202.256 55.6509 202.12 55.358C201.99 55.065 201.925 54.7244 201.925 54.3361C201.925 53.9477 201.99 53.6071 202.12 53.3142C202.256 53.0212 202.447 52.7964 202.692 52.6397C202.937 52.4762 203.22 52.3945 203.54 52.3945C203.86 52.3945 204.14 52.4762 204.378 52.6397C204.623 52.7964 204.814 53.0212 204.95 53.3142C205.086 53.6003 205.155 53.9409 205.155 54.3361C205.155 54.7244 205.086 55.065 204.95 55.358C204.814 55.6509 204.623 55.8791 204.378 56.0427C204.14 56.1993 203.86 56.2777 203.54 56.2777ZM203.54 55.8178C203.874 55.8178 204.14 55.6884 204.337 55.4295C204.541 55.1638 204.644 54.7993 204.644 54.3361C204.644 53.8728 204.541 53.5117 204.337 53.2529C204.14 52.9872 203.874 52.8543 203.54 52.8543C203.199 52.8543 202.93 52.9872 202.733 53.2529C202.535 53.5117 202.436 53.8728 202.436 54.3361C202.436 54.7993 202.535 55.1638 202.733 55.4295C202.93 55.6884 203.199 55.8178 203.54 55.8178ZM207.924 59.65C207.611 59.65 207.331 59.5716 207.086 59.4149C206.841 59.2514 206.65 59.0232 206.514 58.7303C206.377 58.4373 206.309 58.0967 206.309 57.7084C206.309 57.32 206.377 56.9794 206.514 56.6865C206.65 56.3935 206.841 56.1687 207.086 56.012C207.331 55.8485 207.611 55.7667 207.924 55.7667C208.251 55.7667 208.534 55.8485 208.772 56.012C209.017 56.1687 209.205 56.3935 209.334 56.6865C209.47 56.9794 209.539 57.32 209.539 57.7084C209.539 58.0967 209.47 58.4373 209.334 58.7303C209.205 59.0232 209.017 59.2514 208.772 59.4149C208.534 59.5716 208.251 59.65 207.924 59.65ZM207.924 59.1901C208.258 59.1901 208.523 59.0607 208.721 58.8018C208.925 58.5361 209.028 58.1716 209.028 57.7084C209.028 57.2451 208.925 56.884 208.721 56.6251C208.523 56.3594 208.258 56.2266 207.924 56.2266C207.59 56.2266 207.321 56.3594 207.117 56.6251C206.919 56.884 206.82 57.2451 206.82 57.7084C206.82 58.1716 206.919 58.5361 207.117 58.8018C207.321 59.0607 207.59 59.1901 207.924 59.1901Z" fill="white"/>
<path d="M85.3299 8.85168V3.04727H83.0409V1.69836H89.2745V3.04727H86.9854V8.85168H85.3299ZM89.8587 8.85168V1.69836H95.2645V3.02683H91.5039V7.52321H95.3974V8.85168H89.8587ZM91.3813 5.86773V4.58013H94.8251V5.86773H91.3813ZM98.9955 8.85168V1.69836H100.651V8.85168H98.9955ZM102.042 8.85168V1.69836H103.411L107.632 6.84875H106.968V1.69836H108.603V8.85168H107.244L103.013 3.70129H103.677V8.85168H102.042ZM111.985 8.85168L108.899 1.69836H110.687L113.385 8.03416H112.332L115.071 1.69836H116.716L113.62 8.85168H111.985ZM117.007 8.85168V1.69836H118.662V8.85168H117.007ZM121.535 8.85168V3.04727H119.246V1.69836H125.48V3.04727H123.191V8.85168H121.535ZM124.765 8.85168L127.953 1.69836H129.588L132.787 8.85168H131.049L128.433 2.53632H129.087L126.461 8.85168H124.765ZM126.359 7.31883L126.798 6.06189H130.477L130.927 7.31883H126.359ZM133.222 8.85168V1.69836H134.591L137.637 6.74656H136.911L139.905 1.69836H141.264L141.285 8.85168H139.732L139.721 4.07939H140.008L137.616 8.09548H136.87L134.428 4.07939H134.775V8.85168H133.222ZM146.15 8.97431C145.585 8.97431 145.06 8.88234 144.576 8.6984C144.099 8.51446 143.684 8.25557 143.33 7.92175C142.982 7.58793 142.71 7.1962 142.512 6.74656C142.321 6.29693 142.226 5.80641 142.226 5.27502C142.226 4.74363 142.321 4.25312 142.512 3.80348C142.71 3.35384 142.985 2.96211 143.34 2.62829C143.694 2.29447 144.11 2.03559 144.586 1.85164C145.063 1.6677 145.581 1.57573 146.14 1.57573C146.705 1.57573 147.223 1.6677 147.693 1.85164C148.17 2.03559 148.582 2.29447 148.93 2.62829C149.284 2.96211 149.56 3.35384 149.757 3.80348C149.955 4.24631 150.054 4.73682 150.054 5.27502C150.054 5.80641 149.955 6.30033 149.757 6.75678C149.56 7.20642 149.284 7.59815 148.93 7.93197C148.582 8.25898 148.17 8.51446 147.693 8.6984C147.223 8.88234 146.709 8.97431 146.15 8.97431ZM146.14 7.56409C146.46 7.56409 146.753 7.50958 147.019 7.40058C147.291 7.29158 147.53 7.13489 147.734 6.93051C147.938 6.72612 148.095 6.48427 148.204 6.20495C148.32 5.92563 148.378 5.61566 148.378 5.27502C148.378 4.93439 148.32 4.62441 148.204 4.34509C148.095 4.06577 147.938 3.82392 147.734 3.61954C147.536 3.41516 147.301 3.25846 147.029 3.14946C146.756 3.04046 146.46 2.98596 146.14 2.98596C145.82 2.98596 145.523 3.04046 145.251 3.14946C144.985 3.25846 144.75 3.41516 144.546 3.61954C144.341 3.82392 144.181 4.06577 144.065 4.34509C143.956 4.62441 143.902 4.93439 143.902 5.27502C143.902 5.60884 143.956 5.91882 144.065 6.20495C144.181 6.48427 144.338 6.72612 144.535 6.93051C144.74 7.13489 144.978 7.29158 145.251 7.40058C145.523 7.50958 145.82 7.56409 146.14 7.56409ZM153.342 8.97431C152.769 8.97431 152.221 8.89937 151.696 8.74949C151.172 8.5928 150.749 8.39183 150.429 8.14657L150.991 6.89985C151.298 7.11785 151.659 7.29839 152.074 7.44146C152.497 7.57771 152.923 7.64584 153.352 7.64584C153.679 7.64584 153.941 7.61518 154.139 7.55387C154.343 7.48574 154.493 7.39377 154.588 7.27795C154.684 7.16214 154.731 7.02929 154.731 6.87941C154.731 6.68865 154.656 6.53878 154.507 6.42977C154.357 6.31396 154.159 6.22199 153.914 6.15386C153.669 6.07892 153.396 6.01079 153.096 5.94948C152.803 5.88135 152.507 5.7996 152.207 5.70422C151.914 5.60884 151.645 5.48621 151.4 5.33634C151.155 5.18646 150.954 4.98889 150.797 4.74363C150.647 4.49837 150.572 4.18499 150.572 3.80348C150.572 3.39472 150.681 3.02343 150.899 2.6896C151.124 2.34897 151.458 2.07987 151.901 1.8823C152.35 1.67792 152.912 1.57573 153.587 1.57573C154.037 1.57573 154.479 1.63023 154.915 1.73923C155.351 1.84142 155.736 1.99812 156.07 2.20931L155.559 3.46625C155.225 3.2755 154.892 3.13584 154.558 3.04727C154.224 2.95189 153.897 2.9042 153.577 2.9042C153.256 2.9042 152.994 2.94167 152.79 3.01661C152.585 3.09155 152.439 3.19034 152.35 3.31297C152.262 3.42878 152.218 3.56504 152.218 3.72173C152.218 3.90567 152.292 4.05555 152.442 4.17137C152.592 4.28037 152.79 4.36893 153.035 4.43706C153.28 4.50519 153.549 4.57331 153.842 4.64144C154.142 4.70957 154.438 4.78791 154.731 4.87648C155.031 4.96504 155.304 5.08427 155.549 5.23415C155.794 5.38402 155.992 5.58159 156.142 5.82685C156.298 6.07211 156.377 6.38208 156.377 6.75678C156.377 7.15873 156.264 7.52662 156.039 7.86044C155.815 8.19426 155.477 8.46336 155.028 8.66774C154.585 8.87212 154.023 8.97431 153.342 8.97431Z" fill="white"/>
<path d="M18.7361 26.587C19.3493 26.587 19.8398 26.4575 20.2077 26.1986C20.5892 25.9261 20.7799 25.531 20.7799 25.0132V24.9724C20.7799 24.4546 20.6028 24.0663 20.2485 23.8074C19.8943 23.5349 19.397 23.3986 18.7566 23.3986H17.4485V26.587H18.7361ZM12.666 19.5767H19.104C20.0578 19.5767 20.923 19.6857 21.6996 19.9037C22.4899 20.1081 23.1644 20.4215 23.723 20.8439C24.2817 21.2662 24.7177 21.7976 25.0311 22.438C25.3444 23.0784 25.5011 23.821 25.5011 24.6658V24.7067C25.5011 25.5651 25.3444 26.3281 25.0311 26.9957C24.7177 27.6497 24.2748 28.2016 23.7026 28.6512C23.1303 29.1008 22.4422 29.4415 21.6383 29.6731C20.8481 29.8911 19.9692 30.0001 19.0018 30.0001H17.4485V33.8834H12.666V19.5767Z" fill="white"/>
<path d="M33.303 28.5695L31.995 25.095L30.687 28.5695H33.303ZM29.6651 19.4745H34.4067L40.4359 33.8834H35.2447L34.4885 31.9622H29.4811L28.7454 33.8834H23.6358L29.6651 19.4745Z" fill="white"/>
<path d="M46.2772 34.1899C45.2826 34.1899 44.3356 34.0128 43.4363 33.6585C42.5507 33.3043 41.7672 32.8001 41.086 32.1461C40.4047 31.4921 39.8597 30.7086 39.4509 29.7957C39.0558 28.8828 38.8582 27.8746 38.8582 26.7709V26.73C38.8582 25.6672 39.049 24.6794 39.4305 23.7665C39.8256 22.8536 40.3638 22.0633 41.0451 21.3957C41.74 20.728 42.5507 20.2103 43.4772 19.8424C44.4037 19.4609 45.3984 19.2701 46.4612 19.2701C47.2514 19.2701 47.9736 19.3655 48.6276 19.5563C49.2952 19.7334 49.8948 19.9855 50.4262 20.3125C50.9712 20.6395 51.4481 21.0346 51.8568 21.4979C52.2792 21.9475 52.6403 22.4448 52.94 22.9899L48.9955 25.2994C48.723 24.7816 48.3823 24.366 47.9736 24.0526C47.5784 23.7256 47.0539 23.5621 46.3999 23.5621C45.9911 23.5621 45.6232 23.6439 45.2962 23.8074C44.9692 23.9709 44.6899 24.1957 44.4582 24.4818C44.2266 24.768 44.0427 25.1018 43.9064 25.4833C43.7838 25.8648 43.7225 26.2668 43.7225 26.6891V26.73C43.7225 27.1933 43.7838 27.6225 43.9064 28.0176C44.0427 28.3991 44.2266 28.733 44.4582 29.0191C44.7035 29.2916 44.9896 29.5096 45.3166 29.6731C45.6437 29.823 46.0047 29.8979 46.3999 29.8979C47.0811 29.8979 47.6261 29.7344 48.0349 29.4074C48.4437 29.0668 48.7979 28.6308 49.0977 28.0994L53.0422 30.3271C52.7425 30.8585 52.3882 31.3627 51.9795 31.8395C51.5707 32.3028 51.087 32.7116 50.5283 33.0658C49.9833 33.4065 49.3566 33.679 48.648 33.8834C47.9532 34.0877 47.1629 34.1899 46.2772 34.1899Z" fill="white"/>
<path d="M53.7505 19.5767H58.533V24.9315L62.6002 19.5767H68.1594L63.1725 25.7899L68.2616 33.8834H62.5593L59.7593 29.3461L58.533 30.8381V33.8834H53.7505V19.5767Z" fill="white"/>
<path d="M70.1904 19.5767H82.1671V23.6643H74.9729V25.4833H81.6562V29.203H74.9729V33.8834H70.1904V19.5767Z" fill="white"/>
<path d="M88.577 14.9373L93.0938 16.1022L89.7215 18.8614H86.615L88.577 14.9373ZM88.3522 34.1695C87.2894 34.1695 86.322 34.0469 85.45 33.8016C84.5916 33.5427 83.8558 33.1408 83.2427 32.5958C82.6295 32.0507 82.1526 31.3558 81.812 30.5111C81.485 29.6663 81.3215 28.6512 81.3215 27.4658V19.5767H86.1858V27.4045C86.1858 28.2901 86.3901 28.9373 86.7989 29.3461C87.2213 29.7412 87.7527 29.9388 88.3931 29.9388C89.0471 29.9388 89.5785 29.7549 89.9872 29.387C90.396 29.0055 90.6004 28.3787 90.6004 27.5067V19.5767H95.4646V27.3636C95.4646 28.5899 95.2943 29.6322 94.9537 30.4906C94.6131 31.349 94.1294 32.0507 93.5026 32.5958C92.8895 33.1408 92.1401 33.5427 91.2544 33.8016C90.3824 34.0469 89.415 34.1695 88.3522 34.1695Z" fill="white"/>
<path d="M98.7913 23.6234H94.581V19.5767H107.784V23.6234H103.574V33.8834H98.7913V23.6234Z" fill="white"/>
<path d="M114.076 30.2658C114.594 30.2658 114.982 30.1704 115.241 29.9797C115.514 29.7889 115.65 29.5369 115.65 29.2235V29.1826C115.65 28.8692 115.521 28.6171 115.262 28.4264C115.003 28.2356 114.615 28.1403 114.097 28.1403H111.685V30.2658H114.076ZM113.77 25.1972C114.778 25.1972 115.282 24.8702 115.282 24.2161V24.1753C115.282 23.5212 114.771 23.1942 113.749 23.1942H111.685V25.1972H113.77ZM107.025 19.5767H115.037C116.032 19.5767 116.849 19.6857 117.49 19.9037C118.144 20.1217 118.682 20.4419 119.104 20.8643C119.363 21.1232 119.574 21.4366 119.738 21.8044C119.901 22.1723 119.983 22.6015 119.983 23.092V23.1329C119.983 23.9913 119.751 24.6862 119.288 25.2176C118.825 25.7354 118.205 26.1305 117.428 26.403C118.355 26.6755 119.091 27.0775 119.636 27.6089C120.181 28.1403 120.453 28.8965 120.453 29.8775V29.9184C120.453 30.4906 120.337 31.022 120.106 31.5125C119.874 31.9894 119.527 32.405 119.063 32.7593C118.6 33.1135 118.021 33.3928 117.326 33.5972C116.645 33.788 115.854 33.8834 114.955 33.8834H107.025V19.5767Z" fill="white"/>
<path d="M127.157 29.9592C127.607 29.9592 128.015 29.8707 128.383 29.6935C128.751 29.5164 129.064 29.2848 129.323 28.9987C129.582 28.6989 129.78 28.3583 129.916 27.9767C130.052 27.5952 130.12 27.1933 130.12 26.7709V26.73C130.12 26.3076 130.045 25.9057 129.896 25.5242C129.759 25.129 129.562 24.7816 129.303 24.4818C129.044 24.1821 128.731 23.9436 128.363 23.7665C127.995 23.5894 127.579 23.5008 127.116 23.5008C126.666 23.5008 126.258 23.5894 125.89 23.7665C125.522 23.9436 125.208 24.1821 124.95 24.4818C124.691 24.768 124.493 25.1018 124.357 25.4833C124.221 25.8648 124.153 26.2668 124.153 26.6891V26.73C124.153 27.1524 124.221 27.5612 124.357 27.9563C124.507 28.3378 124.711 28.6785 124.97 28.9782C125.229 29.278 125.542 29.5164 125.91 29.6935C126.278 29.8707 126.694 29.9592 127.157 29.9592ZM127.116 34.1899C126.012 34.1899 124.984 33.9992 124.03 33.6177C123.09 33.2361 122.265 32.7116 121.557 32.0439C120.862 31.3763 120.317 30.5928 119.922 29.6935C119.527 28.7806 119.329 27.8064 119.329 26.7709V26.73C119.329 25.6945 119.527 24.7271 119.922 23.8278C120.331 22.9149 120.882 22.1246 121.577 21.457C122.286 20.7757 123.117 20.2443 124.071 19.8628C125.025 19.4677 126.053 19.2701 127.157 19.2701C128.261 19.2701 129.282 19.4609 130.223 19.8424C131.176 20.2239 132.001 20.7485 132.696 21.4161C133.404 22.0838 133.956 22.874 134.351 23.7869C134.746 24.6862 134.944 25.6536 134.944 26.6891V26.73C134.944 27.7656 134.739 28.7398 134.331 29.6527C133.936 30.5519 133.384 31.3422 132.675 32.0235C131.98 32.6911 131.156 33.2225 130.202 33.6177C129.248 33.9992 128.22 34.1899 127.116 34.1899Z" fill="white"/>
<path d="M134.403 19.5767H139.185V29.7957H145.909V33.8834H134.403V19.5767Z" fill="white"/>
<path d="M34.1669 50.0022H30.9786V45.9555H34.1669V42.6036H38.3772V45.9555H41.5655V50.0022H38.3772V53.3541H34.1669V50.0022Z" fill="white"/>
<path d="M239.222 66.8499H0.777893V3.83228H77.0738V5.5354H2.48102V65.1467H237.519V5.5354H162.074V3.83228H239.222V66.8499Z" fill="white"/>
<path d="M84.8129 52.6564C86.7743 52.6564 88.3635 51.0646 88.3635 49.106C88.3635 47.1428 86.7743 45.5536 84.8129 45.5536C82.8517 45.5536 81.2631 47.1428 81.2631 49.106C81.2631 51.0646 82.8517 52.6564 84.8129 52.6564Z" fill="white"/>
<path d="M58.4609 51.3675V57.8648H63.2784V40.4182H58.4609V46.9872H55.3948V40.4182H50.5773V57.8648H55.3948V51.3675H58.4609Z" fill="white"/>
<path d="M75.9352 49.106C75.9352 44.3695 79.6414 40.4978 84.3135 40.2393H85.3106C89.9827 40.4979 93.6908 44.3695 93.6908 49.106C93.6908 54.0073 89.7167 57.9837 84.8129 57.9837C79.9092 57.9837 75.9352 54.0073 75.9352 49.106ZM84.8129 53.5451C87.2651 53.5451 89.2521 51.5556 89.2521 49.106C89.2521 46.6544 87.2651 44.6668 84.8129 44.6668C82.3614 44.6668 80.3744 46.6544 80.3744 49.106C80.3744 51.5557 82.3614 53.5451 84.8129 53.5451Z" fill="white"/>
<path d="M71.6738 40.4182C72.9884 40.4182 76.7093 41.1493 76.7093 44.8702C76.7093 47.863 75.2696 48.756 74.1559 48.9589C73.3513 49.106 76.5622 48.9589 76.5622 52.6798C76.5622 58.0119 71.892 57.8648 71.892 57.8648H64.2988V40.4182L71.6738 40.4182ZM68.6056 44.6668V47.2943H71.1614C71.1614 47.2943 72.1862 47.171 72.1862 45.9146C72.1862 44.6521 71.1264 44.6668 71.1264 44.6668L68.6056 44.6668ZM68.6056 51.0911V53.7199H71.1614C71.1614 53.7199 72.1862 53.5948 72.1862 52.3383C72.1862 51.0758 71.1264 51.0911 71.1264 51.0911H68.6056Z" fill="white"/>
<path d="M93.8443 42.5988H93.3897V40.4695H94.1863C94.7351 40.4695 95.0549 40.6247 95.0549 41.1108C95.0549 41.5028 94.8339 41.6424 94.547 41.6689L95.0941 42.5988H94.5516L94.0592 41.7019H93.8443V42.5988ZM94.2475 41.3429C94.4528 41.3429 94.5688 41.2989 94.5688 41.0669C94.5688 40.8458 94.3368 40.8286 94.1643 40.8286H93.8443V41.3429L94.2475 41.3429ZM94.1752 43.5114C93.12 43.5114 92.1839 42.7808 92.1839 41.5373C92.1839 40.2861 93.12 39.5569 94.1752 39.5569C95.2274 39.5569 96.1556 40.2861 96.1556 41.5373C96.1556 42.7808 95.2274 43.5114 94.1752 43.5114ZM94.1752 40.0163C93.3897 40.0163 92.7547 40.6247 92.7547 41.5373C92.7547 42.4436 93.3897 43.0582 94.1752 43.052C94.9388 43.052 95.5927 42.4436 95.5927 41.5373C95.5927 40.6247 94.9388 40.0163 94.1752 40.0163Z" fill="white"/>
<line x1="157.257" y1="17.4576" x2="157.257" y2="33.212" stroke="white" stroke-width="0.425793"/>
<line x1="107.865" y1="41.7278" x2="107.865" y2="57.4821" stroke="white" stroke-width="0.425793"/>
</svg>
