<svg width="210" height="69" viewBox="0 0 210 69" fill="none" xmlns="http://www.w3.org/2000/svg">
<path d="M153.561 19.2867L156.532 16.6672C156.843 16.3865 157.109 16.1332 157.327 15.9071C157.545 15.681 157.721 15.4705 157.853 15.2756C157.986 15.0729 158.083 14.878 158.145 14.6909C158.208 14.496 158.239 14.2972 158.239 14.0945C158.239 13.8528 158.192 13.6384 158.099 13.4513C158.013 13.2564 157.896 13.0927 157.748 12.9602C157.6 12.8198 157.424 12.7146 157.222 12.6444C157.019 12.5665 156.808 12.5275 156.59 12.5275C156.122 12.5275 155.721 12.6483 155.386 12.89C155.05 13.1239 154.719 13.4708 154.392 13.9308L153.713 13.4396C153.9 13.1668 154.091 12.9212 154.286 12.7029C154.481 12.4846 154.692 12.3014 154.918 12.1533C155.152 12.0052 155.409 11.8921 155.69 11.8141C155.978 11.7362 156.302 11.6972 156.66 11.6972C157.027 11.6972 157.366 11.7557 157.678 11.8726C157.989 11.9896 158.258 12.1533 158.485 12.3638C158.711 12.5665 158.886 12.8081 159.011 13.0888C159.135 13.3695 159.198 13.6774 159.198 14.0126V14.036C159.198 14.3323 159.155 14.609 159.069 14.8663C158.991 15.1158 158.867 15.3652 158.695 15.6147C158.531 15.8564 158.317 16.1059 158.052 16.3631C157.795 16.6204 157.487 16.905 157.128 17.2168L154.941 19.158H159.28V20H153.561V19.2867ZM163.729 11.8141H164.664L167.646 16.2813L170.628 11.8141H171.564V20H170.64V13.3695L167.658 17.7547H167.611L164.629 13.3812V20H163.729V11.8141ZM173.413 11.8141H179.33V12.6561H174.337V15.451H178.804V16.293H174.337V19.158H179.389V20H173.413V11.8141ZM183.586 20.1169C182.931 20.1169 182.331 20.0117 181.785 19.8012C181.247 19.5829 180.733 19.2516 180.242 18.8072L180.815 18.1289C181.243 18.5188 181.676 18.8111 182.113 19.006C182.549 19.1931 183.052 19.2867 183.621 19.2867C184.175 19.2867 184.615 19.158 184.943 18.9008C185.278 18.6357 185.445 18.3005 185.445 17.8951V17.8717C185.445 17.6846 185.414 17.517 185.352 17.3688C185.29 17.2129 185.18 17.0726 185.024 16.9478C184.869 16.8231 184.65 16.7101 184.37 16.6087C184.097 16.5074 183.746 16.4099 183.317 16.3164C182.849 16.215 182.44 16.0981 182.089 15.9655C181.746 15.833 181.462 15.6732 181.236 15.4861C181.01 15.299 180.842 15.0807 180.733 14.8312C180.624 14.5817 180.569 14.2894 180.569 13.9542V13.9308C180.569 13.6111 180.635 13.3149 180.768 13.042C180.9 12.7692 181.087 12.5353 181.329 12.3404C181.571 12.1377 181.855 11.9818 182.183 11.8726C182.51 11.7557 182.869 11.6972 183.259 11.6972C183.859 11.6972 184.381 11.783 184.826 11.9545C185.278 12.1182 185.714 12.3677 186.135 12.7029L185.598 13.4162C185.216 13.1044 184.83 12.8783 184.44 12.738C184.058 12.5977 183.656 12.5275 183.235 12.5275C182.697 12.5275 182.272 12.6561 181.961 12.9134C181.649 13.1629 181.493 13.4747 181.493 13.8489V13.8723C181.493 14.0672 181.524 14.2426 181.586 14.3985C181.649 14.5467 181.762 14.687 181.926 14.8195C182.089 14.9443 182.315 15.0612 182.604 15.1703C182.892 15.2717 183.263 15.3691 183.715 15.4627C184.627 15.6654 185.297 15.9461 185.726 16.3047C186.163 16.6633 186.381 17.1544 186.381 17.7781V17.8015C186.381 18.1523 186.311 18.472 186.171 18.7604C186.03 19.0411 185.835 19.2828 185.586 19.4855C185.344 19.6882 185.052 19.8441 184.709 19.9532C184.366 20.0624 183.992 20.1169 183.586 20.1169ZM187.792 11.8141H193.709V12.6561H188.716V15.451H193.183V16.293H188.716V19.158H193.768V20H187.792V11.8141ZM197.965 20.1169C197.31 20.1169 196.71 20.0117 196.164 19.8012C195.626 19.5829 195.111 19.2516 194.62 18.8072L195.193 18.1289C195.622 18.5188 196.055 18.8111 196.491 19.006C196.928 19.1931 197.431 19.2867 198 19.2867C198.553 19.2867 198.994 19.158 199.321 18.9008C199.657 18.6357 199.824 18.3005 199.824 17.8951V17.8717C199.824 17.6846 199.793 17.517 199.731 17.3688C199.668 17.2129 199.559 17.0726 199.403 16.9478C199.247 16.8231 199.029 16.7101 198.748 16.6087C198.475 16.5074 198.125 16.4099 197.696 16.3164C197.228 16.215 196.819 16.0981 196.468 15.9655C196.125 15.833 195.84 15.6732 195.614 15.4861C195.388 15.299 195.221 15.0807 195.111 14.8312C195.002 14.5817 194.948 14.2894 194.948 13.9542V13.9308C194.948 13.6111 195.014 13.3149 195.147 13.042C195.279 12.7692 195.466 12.5353 195.708 12.3404C195.95 12.1377 196.234 11.9818 196.562 11.8726C196.889 11.7557 197.248 11.6972 197.637 11.6972C198.238 11.6972 198.76 11.783 199.204 11.9545C199.657 12.1182 200.093 12.3677 200.514 12.7029L199.976 13.4162C199.594 13.1044 199.208 12.8783 198.818 12.738C198.436 12.5977 198.035 12.5275 197.614 12.5275C197.076 12.5275 196.651 12.6561 196.339 12.9134C196.027 13.1629 195.872 13.4747 195.872 13.8489V13.8723C195.872 14.0672 195.903 14.2426 195.965 14.3985C196.027 14.5467 196.141 14.687 196.304 14.8195C196.468 14.9443 196.694 15.0612 196.983 15.1703C197.271 15.2717 197.641 15.3691 198.093 15.4627C199.006 15.6654 199.676 15.9461 200.105 16.3047C200.541 16.6633 200.76 17.1544 200.76 17.7781V17.8015C200.76 18.1523 200.69 18.472 200.549 18.7604C200.409 19.0411 200.214 19.2828 199.965 19.4855C199.723 19.6882 199.43 19.8441 199.087 19.9532C198.744 20.0624 198.37 20.1169 197.965 20.1169ZM157.958 31.1403C157.311 31.1403 156.73 31.0312 156.216 30.8129C155.709 30.5946 155.273 30.2945 154.906 29.9125C154.548 29.5304 154.271 29.0861 154.076 28.5793C153.889 28.0648 153.795 27.5152 153.795 26.9305V26.9071C153.795 26.3458 153.893 25.8117 154.088 25.305C154.29 24.7904 154.571 24.3383 154.93 23.9485C155.288 23.5587 155.717 23.2507 156.216 23.0246C156.723 22.7908 157.284 22.6738 157.9 22.6738C158.243 22.6738 158.555 22.6972 158.835 22.744C159.124 22.7908 159.389 22.8609 159.631 22.9545C159.88 23.048 160.11 23.165 160.32 23.3053C160.539 23.4378 160.749 23.5899 160.952 23.7614L160.356 24.463C160.2 24.3227 160.036 24.1979 159.864 24.0888C159.693 23.9719 159.506 23.8744 159.303 23.7964C159.108 23.7107 158.89 23.6444 158.648 23.5977C158.414 23.5509 158.153 23.5275 157.865 23.5275C157.413 23.5275 156.995 23.6171 156.613 23.7964C156.231 23.9758 155.904 24.2174 155.631 24.5215C155.358 24.8255 155.144 25.1841 154.988 25.5973C154.832 26.0027 154.754 26.4315 154.754 26.8837V26.9071C154.754 27.3982 154.828 27.8504 154.976 28.2636C155.132 28.6768 155.351 29.0354 155.631 29.3394C155.912 29.6435 156.251 29.8813 156.649 30.0528C157.046 30.2243 157.494 30.31 157.993 30.31C158.461 30.31 158.902 30.2321 159.315 30.0762C159.728 29.9125 160.075 29.7175 160.356 29.4915V27.4567H157.865V26.6264H161.244V29.8891C160.862 30.2321 160.391 30.5283 159.829 30.7778C159.276 31.0195 158.652 31.1403 157.958 31.1403ZM166.298 26.9889C166.602 26.9889 166.883 26.95 167.14 26.872C167.398 26.794 167.62 26.6849 167.807 26.5446C167.994 26.3964 168.138 26.221 168.239 26.0183C168.349 25.8078 168.403 25.5701 168.403 25.305V25.2816C168.403 24.7749 168.22 24.3812 167.854 24.1005C167.487 23.812 166.973 23.6678 166.31 23.6678H163.784V26.9889H166.298ZM162.86 22.8141H166.38C166.887 22.8141 167.335 22.8882 167.725 23.0363C168.123 23.1767 168.45 23.3755 168.707 23.6327C168.91 23.8354 169.066 24.0732 169.175 24.3461C169.284 24.6189 169.339 24.9191 169.339 25.2465V25.2699C169.339 25.6129 169.284 25.9209 169.175 26.1937C169.066 26.4588 168.91 26.6927 168.707 26.8954C168.512 27.0903 168.278 27.254 168.006 27.3865C167.733 27.5113 167.436 27.6009 167.117 27.6555L169.631 31H168.497L166.123 27.8192H166.099H163.784V31H162.86V22.8141ZM176.152 28.0063L174.293 23.8315L172.422 28.0063H176.152ZM173.872 22.7557H174.737L178.468 31H177.474L176.515 28.8366H172.059L171.089 31H170.142L173.872 22.7557ZM181.778 23.6678H179.03V22.8141H185.461V23.6678H182.713V31H181.778V23.6678ZM186.811 22.8141H187.735V31H186.811V22.8141ZM192.471 31.1169C191.816 31.1169 191.216 31.0117 190.67 30.8012C190.133 30.5829 189.618 30.2516 189.127 29.8072L189.7 29.1289C190.129 29.5188 190.561 29.8111 190.998 30.006C191.434 30.1931 191.937 30.2867 192.506 30.2867C193.06 30.2867 193.5 30.158 193.828 29.9008C194.163 29.6357 194.331 29.3005 194.331 28.8951V28.8717C194.331 28.6846 194.3 28.517 194.237 28.3688C194.175 28.2129 194.066 28.0726 193.91 27.9478C193.754 27.8231 193.536 27.7101 193.255 27.6087C192.982 27.5074 192.631 27.4099 192.202 27.3164C191.735 27.215 191.325 27.0981 190.974 26.9655C190.631 26.833 190.347 26.6732 190.121 26.4861C189.895 26.299 189.727 26.0807 189.618 25.8312C189.509 25.5817 189.454 25.2894 189.454 24.9542V24.9308C189.454 24.6111 189.521 24.3149 189.653 24.042C189.786 23.7692 189.973 23.5353 190.214 23.3404C190.456 23.1377 190.741 22.9818 191.068 22.8726C191.395 22.7557 191.754 22.6972 192.144 22.6972C192.744 22.6972 193.267 22.783 193.711 22.9545C194.163 23.1182 194.6 23.3677 195.021 23.7029L194.483 24.4162C194.101 24.1044 193.715 23.8783 193.325 23.738C192.943 23.5977 192.542 23.5275 192.121 23.5275C191.583 23.5275 191.158 23.6561 190.846 23.9134C190.534 24.1629 190.378 24.4747 190.378 24.8489V24.8723C190.378 25.0672 190.409 25.2426 190.472 25.3985C190.534 25.5467 190.647 25.687 190.811 25.8195C190.974 25.9443 191.201 26.0612 191.489 26.1703C191.777 26.2717 192.148 26.3691 192.6 26.4627C193.512 26.6654 194.183 26.9461 194.611 27.3047C195.048 27.6633 195.266 28.1544 195.266 28.7781V28.8015C195.266 29.1523 195.196 29.472 195.056 29.7604C194.915 30.0411 194.721 30.2828 194.471 30.4855C194.229 30.6882 193.937 30.8441 193.594 30.9532C193.251 31.0624 192.877 31.1169 192.471 31.1169Z" fill="white"/>
<path d="M105.023 41.9599L103.531 42.4232L103.316 41.7L105.249 41.0332H105.904V49H105.023V41.9599ZM109.523 41.0897H110.427L113.308 45.4065L116.19 41.0897H117.094V49H116.201V42.5927L113.32 46.8303H113.274L110.393 42.604V49H109.523V41.0897ZM118.316 41.0897H124.034V41.9034H119.209V44.6042H123.526V45.4178H119.209V48.1864H124.091V49H118.316V41.0897ZM127.582 49.113C126.949 49.113 126.369 49.0113 125.841 48.8079C125.321 48.597 124.824 48.2768 124.35 47.8474L124.903 47.1919C125.318 47.5686 125.736 47.8511 126.158 48.0395C126.58 48.2203 127.066 48.3107 127.615 48.3107C128.15 48.3107 128.576 48.1864 128.892 47.9378C129.216 47.6816 129.378 47.3577 129.378 46.9659V46.9433C129.378 46.7625 129.348 46.6006 129.288 46.4574C129.228 46.3067 129.122 46.1711 128.972 46.0506C128.821 45.9301 128.61 45.8208 128.339 45.7229C128.075 45.625 127.736 45.5308 127.322 45.4404C126.87 45.3424 126.474 45.2294 126.135 45.1014C125.804 44.9733 125.529 44.8189 125.31 44.6381C125.092 44.4573 124.93 44.2463 124.824 44.0052C124.719 43.7642 124.666 43.4817 124.666 43.1577V43.1351C124.666 42.8262 124.73 42.54 124.858 42.2763C124.986 42.0126 125.167 41.7866 125.401 41.5983C125.634 41.4024 125.909 41.2517 126.226 41.1462C126.542 41.0332 126.888 40.9767 127.265 40.9767C127.845 40.9767 128.35 41.0596 128.779 41.2253C129.216 41.3836 129.638 41.6246 130.045 41.9486L129.525 42.6379C129.156 42.3365 128.783 42.1181 128.406 41.9825C128.037 41.8469 127.649 41.7791 127.243 41.7791C126.723 41.7791 126.312 41.9034 126.011 42.152C125.709 42.3931 125.559 42.6944 125.559 43.056V43.0786C125.559 43.2669 125.589 43.4365 125.649 43.5871C125.709 43.7303 125.819 43.8659 125.977 43.9939C126.135 44.1145 126.354 44.2275 126.632 44.3329C126.911 44.4309 127.269 44.5251 127.706 44.6155C128.587 44.8113 129.235 45.0825 129.65 45.4291C130.071 45.7756 130.282 46.2502 130.282 46.8529V46.8755C130.282 47.2145 130.215 47.5234 130.079 47.8022C129.943 48.0734 129.755 48.3069 129.514 48.5028C129.28 48.6987 128.998 48.8493 128.666 48.9548C128.335 49.0603 127.973 49.113 127.582 49.113ZM137.124 49.1356C136.499 49.1356 135.938 49.0301 135.44 48.8192C134.951 48.6083 134.529 48.3182 134.175 47.9491C133.828 47.5799 133.561 47.1505 133.372 46.6608C133.192 46.1636 133.101 45.6325 133.101 45.0675V45.0449C133.101 44.5025 133.195 43.9864 133.384 43.4967C133.58 42.9995 133.851 42.5626 134.197 42.1859C134.544 41.8092 134.958 41.5116 135.44 41.2931C135.93 41.0671 136.473 40.9541 137.068 40.9541C137.399 40.9541 137.701 40.9767 137.972 41.0219C138.25 41.0671 138.507 41.1349 138.74 41.2253C138.981 41.3157 139.203 41.4288 139.407 41.5644C139.618 41.6924 139.821 41.8393 140.017 42.0051L139.441 42.6831C139.29 42.5475 139.132 42.427 138.966 42.3215C138.8 42.2085 138.62 42.1143 138.424 42.039C138.235 41.9561 138.024 41.8921 137.791 41.8469C137.565 41.8017 137.313 41.7791 137.034 41.7791C136.597 41.7791 136.194 41.8657 135.825 42.039C135.456 42.2122 135.139 42.4458 134.875 42.7396C134.612 43.0334 134.405 43.3799 134.254 43.7792C134.103 44.171 134.028 44.5853 134.028 45.0223V45.0449C134.028 45.5195 134.099 45.9564 134.243 46.3557C134.393 46.755 134.604 47.1015 134.875 47.3953C135.147 47.6892 135.474 47.9189 135.859 48.0847C136.243 48.2504 136.676 48.3333 137.158 48.3333C137.61 48.3333 138.036 48.2579 138.435 48.1073C138.834 47.9491 139.17 47.7607 139.441 47.5423V45.576H137.034V44.7737H140.3V47.9265C139.93 48.2579 139.475 48.5442 138.932 48.7853C138.397 49.0188 137.795 49.1356 137.124 49.1356ZM144.618 45.124C144.912 45.124 145.183 45.0863 145.432 45.011C145.681 44.9356 145.895 44.8302 146.076 44.6946C146.257 44.5514 146.396 44.3819 146.494 44.186C146.6 43.9826 146.652 43.7529 146.652 43.4967V43.4741C146.652 42.9844 146.475 42.604 146.121 42.3328C145.767 42.054 145.27 41.9147 144.63 41.9147H142.189V45.124H144.618ZM141.296 41.0897H144.697C145.187 41.0897 145.62 41.1613 145.997 41.3044C146.381 41.4401 146.698 41.6322 146.946 41.8808C147.142 42.0766 147.293 42.3064 147.398 42.5701C147.504 42.8338 147.556 43.1238 147.556 43.4402V43.4628C147.556 43.7943 147.504 44.0919 147.398 44.3555C147.293 44.6117 147.142 44.8377 146.946 45.0336C146.758 45.2219 146.532 45.3801 146.268 45.5082C146.005 45.6287 145.718 45.7154 145.409 45.7681L147.839 49H146.743L144.449 45.9263H144.426H142.189V49H141.296V41.0897ZM153.576 46.1071L151.779 42.0729L149.971 46.1071H153.576ZM151.372 41.0332H152.208L155.813 49H154.853L153.926 46.9094H149.621L148.683 49H147.767L151.372 41.0332ZM158.447 41.9147H155.791V41.0897H162.006V41.9147H159.351V49H158.447V41.9147ZM162.746 41.0897H163.638V49H162.746V41.0897ZM167.65 49.113C167.017 49.113 166.437 49.0113 165.91 48.8079C165.39 48.597 164.893 48.2768 164.418 47.8474L164.972 47.1919C165.386 47.5686 165.804 47.8511 166.226 48.0395C166.648 48.2203 167.134 48.3107 167.684 48.3107C168.219 48.3107 168.645 48.1864 168.961 47.9378C169.285 47.6816 169.447 47.3577 169.447 46.9659V46.9433C169.447 46.7625 169.417 46.6006 169.357 46.4574C169.296 46.3067 169.191 46.1711 169.04 46.0506C168.889 45.9301 168.679 45.8208 168.407 45.7229C168.144 45.625 167.805 45.5308 167.39 45.4404C166.938 45.3424 166.543 45.2294 166.204 45.1014C165.872 44.9733 165.597 44.8189 165.379 44.6381C165.16 44.4573 164.998 44.2463 164.893 44.0052C164.787 43.7642 164.735 43.4817 164.735 43.1577V43.1351C164.735 42.8262 164.799 42.54 164.927 42.2763C165.055 42.0126 165.236 41.7866 165.469 41.5983C165.703 41.4024 165.978 41.2517 166.294 41.1462C166.611 41.0332 166.957 40.9767 167.334 40.9767C167.914 40.9767 168.419 41.0596 168.848 41.2253C169.285 41.3836 169.707 41.6246 170.114 41.9486L169.594 42.6379C169.225 42.3365 168.852 42.1181 168.475 41.9825C168.106 41.8469 167.718 41.7791 167.311 41.7791C166.791 41.7791 166.381 41.9034 166.079 42.152C165.778 42.3931 165.627 42.6944 165.627 43.056V43.0786C165.627 43.2669 165.658 43.4365 165.718 43.5871C165.778 43.7303 165.887 43.8659 166.046 43.9939C166.204 44.1145 166.422 44.2275 166.701 44.3329C166.98 44.4309 167.338 44.5251 167.775 44.6155C168.656 44.8113 169.304 45.0825 169.718 45.4291C170.14 45.7756 170.351 46.2502 170.351 46.8529V46.8755C170.351 47.2145 170.283 47.5234 170.148 47.8022C170.012 48.0734 169.824 48.3069 169.583 48.5028C169.349 48.6987 169.067 48.8493 168.735 48.9548C168.404 49.0603 168.042 49.113 167.65 49.113ZM103.542 59.3107L106.413 56.7794C106.714 56.5082 106.97 56.2633 107.181 56.0449C107.392 55.8264 107.562 55.623 107.69 55.4347C107.818 55.2388 107.912 55.0504 107.972 54.8696C108.032 54.6813 108.063 54.4892 108.063 54.2933C108.063 54.0598 108.017 53.8526 107.927 53.6718C107.844 53.4835 107.731 53.3252 107.588 53.1972C107.445 53.0616 107.275 52.9599 107.079 52.8921C106.884 52.8167 106.68 52.7791 106.469 52.7791C106.017 52.7791 105.629 52.8958 105.305 53.1294C104.981 53.3554 104.661 53.6906 104.345 54.1351L103.689 53.6605C103.87 53.3968 104.055 53.1595 104.243 52.9486C104.431 52.7376 104.635 52.5606 104.853 52.4175C105.079 52.2743 105.328 52.1651 105.599 52.0897C105.878 52.0144 106.19 51.9767 106.537 51.9767C106.891 51.9767 107.219 52.0332 107.52 52.1462C107.821 52.2592 108.081 52.4175 108.3 52.6209C108.518 52.8167 108.688 53.0503 108.808 53.3215C108.929 53.5927 108.989 53.8903 108.989 54.2142V54.2368C108.989 54.5231 108.948 54.7905 108.865 55.0391C108.79 55.2802 108.669 55.5213 108.503 55.7624C108.345 55.9959 108.138 56.237 107.882 56.4856C107.633 56.7342 107.336 57.0092 106.989 57.3105L104.876 59.1864H109.068V60H103.542V59.3107ZM112.237 52.0897H113.141L116.023 56.4065L118.905 52.0897H119.809V60H118.916V53.5927L116.034 57.8303H115.989L113.107 53.604V60H112.237V52.0897ZM121.031 52.0897H126.749V52.9034H121.924V55.6042H126.24V56.4178H121.924V59.1864H126.805V60H121.031V52.0897ZM130.296 60.113C129.663 60.113 129.083 60.0113 128.556 59.8079C128.036 59.597 127.539 59.2768 127.064 58.8474L127.618 58.1919C128.032 58.5686 128.451 58.8511 128.872 59.0395C129.294 59.2203 129.78 59.3107 130.33 59.3107C130.865 59.3107 131.291 59.1864 131.607 58.9378C131.931 58.6816 132.093 58.3577 132.093 57.9659V57.9433C132.093 57.7625 132.063 57.6006 132.003 57.4574C131.942 57.3067 131.837 57.1711 131.686 57.0506C131.536 56.9301 131.325 56.8208 131.053 56.7229C130.79 56.625 130.451 56.5308 130.036 56.4404C129.584 56.3424 129.189 56.2294 128.85 56.1014C128.518 55.9733 128.243 55.8189 128.025 55.6381C127.806 55.4573 127.644 55.2463 127.539 55.0052C127.434 54.7642 127.381 54.4817 127.381 54.1577V54.1351C127.381 53.8262 127.445 53.54 127.573 53.2763C127.701 53.0126 127.882 52.7866 128.115 52.5983C128.349 52.4024 128.624 52.2517 128.94 52.1462C129.257 52.0332 129.603 51.9767 129.98 51.9767C130.56 51.9767 131.065 52.0596 131.494 52.2253C131.931 52.3836 132.353 52.6246 132.76 52.9486L132.24 53.6379C131.871 53.3365 131.498 53.1181 131.121 52.9825C130.752 52.8469 130.364 52.7791 129.957 52.7791C129.437 52.7791 129.027 52.9034 128.726 53.152C128.424 53.3931 128.274 53.6944 128.274 54.056V54.0786C128.274 54.2669 128.304 54.4365 128.364 54.5871C128.424 54.7303 128.533 54.8659 128.692 54.9939C128.85 55.1145 129.068 55.2275 129.347 55.3329C129.626 55.4309 129.984 55.5251 130.421 55.6155C131.302 55.8113 131.95 56.0825 132.364 56.4291C132.786 56.7756 132.997 57.2502 132.997 57.8529V57.8755C132.997 58.2145 132.929 58.5234 132.794 58.8022C132.658 59.0734 132.47 59.3069 132.229 59.5028C131.995 59.6987 131.713 59.8493 131.381 59.9548C131.05 60.0603 130.688 60.113 130.296 60.113ZM133.795 52.0897H139.513V52.9034H134.688V55.6042H139.005V56.4178H134.688V59.1864H139.57V60H133.795V52.0897ZM143.061 60.113C142.428 60.113 141.848 60.0113 141.321 59.8079C140.801 59.597 140.304 59.2768 139.829 58.8474L140.383 58.1919C140.797 58.5686 141.215 58.8511 141.637 59.0395C142.059 59.2203 142.545 59.3107 143.095 59.3107C143.63 59.3107 144.055 59.1864 144.372 58.9378C144.696 58.6816 144.858 58.3577 144.858 57.9659V57.9433C144.858 57.7625 144.827 57.6006 144.767 57.4574C144.707 57.3067 144.601 57.1711 144.451 57.0506C144.3 56.9301 144.089 56.8208 143.818 56.7229C143.554 56.625 143.215 56.5308 142.801 56.4404C142.349 56.3424 141.953 56.2294 141.614 56.1014C141.283 55.9733 141.008 55.8189 140.789 55.6381C140.571 55.4573 140.409 55.2463 140.304 55.0052C140.198 54.7642 140.145 54.4817 140.145 54.1577V54.1351C140.145 53.8262 140.209 53.54 140.337 53.2763C140.466 53.0126 140.646 52.7866 140.88 52.5983C141.113 52.4024 141.388 52.2517 141.705 52.1462C142.021 52.0332 142.368 51.9767 142.744 51.9767C143.325 51.9767 143.829 52.0596 144.259 52.2253C144.696 52.3836 145.118 52.6246 145.524 52.9486L145.005 53.6379C144.635 53.3365 144.262 53.1181 143.886 52.9825C143.517 52.8469 143.129 52.7791 142.722 52.7791C142.202 52.7791 141.791 52.9034 141.49 53.152C141.189 53.3931 141.038 53.6944 141.038 54.056V54.0786C141.038 54.2669 141.068 54.4365 141.129 54.5871C141.189 54.7303 141.298 54.8659 141.456 54.9939C141.614 55.1145 141.833 55.2275 142.112 55.3329C142.39 55.4309 142.748 55.5251 143.185 55.6155C144.067 55.8113 144.714 56.0825 145.129 56.4291C145.551 56.7756 145.762 57.2502 145.762 57.8529V57.8755C145.762 58.2145 145.694 58.5234 145.558 58.8022C145.423 59.0734 145.234 59.3069 144.993 59.5028C144.76 59.6987 144.477 59.8493 144.146 59.9548C143.814 60.0603 143.453 60.113 143.061 60.113ZM154.061 57.1071L152.264 53.0729L150.456 57.1071H154.061ZM151.858 52.0332H152.694L156.299 60H155.338L154.412 57.9094H150.106L149.168 60H148.253L151.858 52.0332ZM156.842 52.0897H157.734V59.1751H162.187V60H156.842V52.0897ZM167.497 60.1356C166.932 60.1356 166.409 60.0188 165.926 59.7853C165.452 59.5442 165.034 59.2429 164.672 58.8813L165.26 58.2371C165.606 58.5762 165.964 58.8436 166.333 59.0395C166.71 59.2278 167.102 59.322 167.509 59.322C167.787 59.322 168.043 59.2805 168.277 59.1977C168.518 59.1073 168.721 58.983 168.887 58.8248C169.053 58.6666 169.181 58.482 169.271 58.271C169.369 58.0526 169.418 57.819 169.418 57.5704V57.5478C169.418 57.2992 169.369 57.0732 169.271 56.8698C169.173 56.6664 169.038 56.4931 168.865 56.35C168.691 56.1993 168.484 56.0863 168.243 56.011C168.002 55.9281 167.738 55.8867 167.452 55.8867C167.113 55.8867 166.808 55.9319 166.537 56.0223C166.273 56.1051 166.024 56.2106 165.791 56.3387L165.192 55.9432L165.418 52.0897H169.972V52.9147H166.198L166.028 55.446C166.262 55.3405 166.495 55.2576 166.729 55.1973C166.97 55.1295 167.256 55.0956 167.588 55.0956C167.972 55.0956 168.33 55.1521 168.661 55.2651C168.993 55.3706 169.283 55.5288 169.531 55.7398C169.78 55.9507 169.972 56.2068 170.108 56.5082C170.251 56.802 170.322 57.1372 170.322 57.5139V57.5365C170.322 57.9207 170.251 58.2748 170.108 58.5988C169.972 58.9152 169.78 59.1901 169.531 59.4237C169.283 59.6497 168.985 59.8267 168.639 59.9548C168.292 60.0753 167.912 60.1356 167.497 60.1356ZM174.032 59.322C174.401 59.322 174.733 59.2353 175.027 59.0621C175.328 58.8813 175.58 58.644 175.784 58.3501C175.995 58.0488 176.153 57.7023 176.258 57.3105C176.371 56.9112 176.428 56.4969 176.428 56.0675V56.0449C176.428 55.6155 176.371 55.2049 176.258 54.8131C176.145 54.4139 175.983 54.0635 175.773 53.7622C175.562 53.4609 175.305 53.2198 175.004 53.039C174.71 52.8582 174.379 52.7678 174.01 52.7678C173.641 52.7678 173.305 52.8582 173.004 53.039C172.71 53.2122 172.458 53.4496 172.247 53.7509C172.043 54.0447 171.885 54.3875 171.772 54.7792C171.659 55.171 171.603 55.5853 171.603 56.0223V56.0449C171.603 56.4743 171.659 56.8886 171.772 57.2879C171.885 57.6797 172.047 58.0262 172.258 58.3275C172.469 58.6289 172.725 58.87 173.027 59.0508C173.328 59.2316 173.663 59.322 174.032 59.322ZM174.01 60.1356C173.497 60.1356 173.034 60.0301 172.62 59.8192C172.213 59.6007 171.863 59.3069 171.569 58.9378C171.283 58.5611 171.06 58.1279 170.902 57.6382C170.751 57.1485 170.676 56.625 170.676 56.0675V56.0449C170.676 55.4949 170.755 54.9713 170.913 54.4741C171.072 53.9769 171.298 53.5437 171.591 53.1746C171.885 52.7979 172.236 52.5003 172.642 52.2818C173.057 52.0634 173.52 51.9541 174.032 51.9541C174.537 51.9541 174.993 52.0634 175.4 52.2818C175.814 52.4928 176.164 52.7866 176.451 53.1633C176.744 53.5324 176.967 53.9656 177.117 54.4628C177.275 54.9525 177.355 55.4723 177.355 56.0223V56.0449C177.355 56.6024 177.275 57.1297 177.117 57.6269C176.959 58.1166 176.733 58.5498 176.439 58.9265C176.153 59.2956 175.803 59.5894 175.388 59.8079C174.974 60.0264 174.514 60.1356 174.01 60.1356ZM184.088 59.4576C184.246 59.4576 184.385 59.4237 184.506 59.3559C184.634 59.2805 184.743 59.1826 184.834 59.0621C184.924 58.934 184.992 58.7871 185.037 58.6214C185.09 58.4556 185.116 58.2786 185.116 58.0902V58.0676C185.116 57.8718 185.09 57.691 185.037 57.5252C184.984 57.3519 184.909 57.205 184.811 57.0845C184.713 56.9564 184.6 56.8585 184.472 56.7907C184.344 56.7154 184.208 56.6777 184.065 56.6777C183.915 56.6777 183.775 56.7154 183.647 56.7907C183.519 56.8585 183.41 56.9564 183.319 57.0845C183.229 57.205 183.157 57.3482 183.105 57.5139C183.059 57.6797 183.037 57.8567 183.037 58.045V58.0676C183.037 58.2635 183.063 58.4481 183.116 58.6214C183.169 58.7871 183.244 58.934 183.342 59.0621C183.44 59.1826 183.549 59.2805 183.67 59.3559C183.798 59.4237 183.937 59.4576 184.088 59.4576ZM179.432 55.412C179.583 55.412 179.722 55.3781 179.85 55.3103C179.978 55.235 180.087 55.1371 180.178 55.0165C180.268 54.8885 180.336 54.7416 180.381 54.5758C180.434 54.4101 180.46 54.233 180.46 54.0447V54.0221C180.46 53.8262 180.43 53.6454 180.37 53.4797C180.317 53.3064 180.242 53.1595 180.144 53.039C180.054 52.9109 179.944 52.813 179.816 52.7452C179.688 52.6698 179.553 52.6322 179.409 52.6322C179.251 52.6322 179.108 52.6698 178.98 52.7452C178.86 52.813 178.754 52.9109 178.664 53.039C178.573 53.1595 178.502 53.3026 178.449 53.4684C178.404 53.6341 178.381 53.8112 178.381 53.9995V54.0221C178.381 54.218 178.408 54.4026 178.46 54.5758C178.513 54.7416 178.588 54.8885 178.686 55.0165C178.784 55.1371 178.893 55.235 179.014 55.3103C179.142 55.3781 179.281 55.412 179.432 55.412ZM184.065 60.0904C183.802 60.0904 183.56 60.0377 183.342 59.9322C183.124 59.8192 182.935 59.6723 182.777 59.4915C182.626 59.3031 182.506 59.0884 182.415 58.8474C182.333 58.6063 182.291 58.3539 182.291 58.0902V58.0676C182.291 57.7964 182.333 57.5403 182.415 57.2992C182.506 57.0581 182.63 56.8434 182.788 56.6551C182.946 56.4668 183.135 56.3198 183.353 56.2144C183.572 56.1014 183.817 56.0449 184.088 56.0449C184.359 56.0449 184.604 56.1014 184.822 56.2144C185.041 56.3198 185.225 56.4668 185.376 56.6551C185.534 56.8359 185.655 57.0468 185.738 57.2879C185.821 57.529 185.862 57.7814 185.862 58.045V58.0676C185.862 58.3388 185.817 58.595 185.726 58.8361C185.644 59.0771 185.523 59.2918 185.365 59.4802C185.214 59.6685 185.026 59.8192 184.8 59.9322C184.581 60.0377 184.336 60.0904 184.065 60.0904ZM184.246 52.0897H185.048L179.251 60H178.438L184.246 52.0897ZM179.409 56.0449C179.138 56.0449 178.893 55.9921 178.675 55.8867C178.456 55.7737 178.268 55.6268 178.11 55.446C177.959 55.2576 177.839 55.0429 177.748 54.8018C177.665 54.5608 177.624 54.3084 177.624 54.0447V54.0221C177.624 53.7509 177.665 53.4948 177.748 53.2537C177.839 53.0126 177.963 52.7979 178.121 52.6096C178.279 52.4212 178.468 52.2743 178.686 52.1688C178.912 52.0558 179.161 51.9993 179.432 51.9993C179.696 51.9993 179.937 52.0558 180.155 52.1688C180.374 52.2743 180.558 52.4212 180.709 52.6096C180.867 52.7904 180.988 53.0013 181.071 53.2424C181.161 53.4835 181.206 53.7358 181.206 53.9995V54.0221C181.206 54.2933 181.161 54.5495 181.071 54.7905C180.988 55.0316 180.867 55.2463 180.709 55.4347C180.551 55.623 180.362 55.7737 180.144 55.8867C179.926 55.9921 179.681 56.0449 179.409 56.0449Z" fill="white"/>
<path d="M74.223 1.978H72.306V0.700002H77.526V1.978H75.609V7H74.223V1.978ZM78.3219 0.700002H83.0739V1.933H79.6989V3.211H82.6689V4.444H79.6989V5.767H83.1189V7H78.3219V0.700002ZM86.5725 0.700002H87.9585V7H86.5725V0.700002ZM89.2629 0.700002H90.5409L93.4929 4.579V0.700002H94.8609V7H93.6819L90.6309 2.995V7H89.2629V0.700002ZM95.5633 0.700002H97.0933L98.7403 5.137L100.387 0.700002H101.881L99.3343 7.045H98.1103L95.5633 0.700002ZM102.646 0.700002H104.032V7H102.646V0.700002ZM106.804 1.978H104.887V0.700002H110.107V1.978H108.19V7H106.804V1.978ZM114.521 4.363L113.684 2.32L112.847 4.363H114.521ZM113.063 0.655002H114.341L117.041 7H115.592L115.016 5.587H112.352L111.776 7H110.363L113.063 0.655002ZM117.743 0.700002H119.237L120.893 3.364L122.549 0.700002H124.043V7H122.666V2.887L120.893 5.578H120.857L119.102 2.914V7H117.743V0.700002ZM128.364 5.83C128.64 5.83 128.895 5.779 129.129 5.677C129.363 5.575 129.561 5.434 129.723 5.254C129.891 5.074 130.02 4.867 130.11 4.633C130.206 4.393 130.254 4.138 130.254 3.868V3.85C130.254 3.58 130.206 3.325 130.11 3.085C130.02 2.845 129.888 2.635 129.714 2.455C129.546 2.275 129.345 2.134 129.111 2.032C128.877 1.924 128.622 1.87 128.346 1.87C128.064 1.87 127.806 1.921 127.572 2.023C127.344 2.125 127.146 2.266 126.978 2.446C126.816 2.626 126.687 2.836 126.591 3.076C126.501 3.31 126.456 3.562 126.456 3.832V3.85C126.456 4.12 126.501 4.375 126.591 4.615C126.687 4.855 126.819 5.065 126.987 5.245C127.161 5.425 127.362 5.569 127.59 5.677C127.824 5.779 128.082 5.83 128.364 5.83ZM128.346 7.108C127.86 7.108 127.413 7.024 127.005 6.856C126.597 6.682 126.243 6.451 125.943 6.163C125.649 5.869 125.418 5.527 125.25 5.137C125.088 4.741 125.007 4.318 125.007 3.868V3.85C125.007 3.4 125.091 2.98 125.259 2.59C125.427 2.194 125.658 1.849 125.952 1.555C126.252 1.255 126.606 1.021 127.014 0.853002C127.428 0.679002 127.878 0.592002 128.364 0.592002C128.85 0.592002 129.297 0.679002 129.705 0.853002C130.113 1.021 130.464 1.252 130.758 1.546C131.058 1.834 131.289 2.176 131.451 2.572C131.619 2.962 131.703 3.382 131.703 3.832V3.85C131.703 4.3 131.619 4.723 131.451 5.119C131.283 5.509 131.049 5.854 130.749 6.154C130.455 6.448 130.101 6.682 129.687 6.856C129.279 7.024 128.832 7.108 128.346 7.108ZM134.904 7.09C134.424 7.09 133.953 7.009 133.491 6.847C133.029 6.679 132.609 6.424 132.231 6.082L133.05 5.101C133.338 5.335 133.632 5.521 133.932 5.659C134.238 5.797 134.571 5.866 134.931 5.866C135.219 5.866 135.441 5.815 135.597 5.713C135.759 5.605 135.84 5.458 135.84 5.272V5.254C135.84 5.164 135.822 5.086 135.786 5.02C135.756 4.948 135.693 4.882 135.597 4.822C135.507 4.762 135.378 4.702 135.21 4.642C135.048 4.582 134.835 4.519 134.571 4.453C134.253 4.375 133.965 4.288 133.707 4.192C133.449 4.096 133.23 3.979 133.05 3.841C132.87 3.697 132.729 3.52 132.627 3.31C132.531 3.1 132.483 2.839 132.483 2.527V2.509C132.483 2.221 132.537 1.963 132.645 1.735C132.753 1.501 132.903 1.3 133.095 1.132C133.293 0.964002 133.527 0.835002 133.797 0.745002C134.067 0.655002 134.364 0.610002 134.688 0.610002C135.15 0.610002 135.573 0.679002 135.957 0.817002C136.347 0.955002 136.704 1.153 137.028 1.411L136.308 2.455C136.026 2.263 135.75 2.113 135.48 2.005C135.21 1.891 134.94 1.834 134.67 1.834C134.4 1.834 134.196 1.888 134.058 1.996C133.926 2.098 133.86 2.227 133.86 2.383V2.401C133.86 2.503 133.878 2.593 133.914 2.671C133.956 2.743 134.028 2.809 134.13 2.869C134.232 2.929 134.37 2.986 134.544 3.04C134.724 3.094 134.949 3.157 135.219 3.229C135.537 3.313 135.819 3.409 136.065 3.517C136.317 3.619 136.527 3.745 136.695 3.895C136.869 4.039 136.998 4.21 137.082 4.408C137.172 4.606 137.217 4.843 137.217 5.119V5.137C137.217 5.449 137.16 5.728 137.046 5.974C136.932 6.214 136.773 6.418 136.569 6.586C136.365 6.748 136.122 6.874 135.84 6.964C135.558 7.048 135.246 7.09 134.904 7.09Z" fill="white"/>
<path d="M15.816 24.574C16.356 24.574 16.788 24.46 17.112 24.232C17.448 23.992 17.616 23.644 17.616 23.188V23.152C17.616 22.696 17.46 22.354 17.148 22.126C16.836 21.886 16.398 21.766 15.834 21.766H14.682V24.574H15.816ZM10.47 18.4H16.14C16.98 18.4 17.742 18.496 18.426 18.688C19.122 18.868 19.716 19.144 20.208 19.516C20.7 19.888 21.084 20.356 21.36 20.92C21.636 21.484 21.774 22.138 21.774 22.882V22.918C21.774 23.674 21.636 24.346 21.36 24.934C21.084 25.51 20.694 25.996 20.19 26.392C19.686 26.788 19.08 27.088 18.372 27.292C17.676 27.484 16.902 27.58 16.05 27.58H14.682V31H10.47V18.4ZM28.6452 26.32L27.4932 23.26L26.3412 26.32H28.6452ZM25.4412 18.31H29.6172L34.9272 31H30.3552L29.6892 29.308H25.2792L24.6312 31H20.1312L25.4412 18.31ZM40.0717 31.27C39.1957 31.27 38.3617 31.114 37.5697 30.802C36.7897 30.49 36.0997 30.046 35.4997 29.47C34.8997 28.894 34.4197 28.204 34.0597 27.4C33.7117 26.596 33.5377 25.708 33.5377 24.736V24.7C33.5377 23.764 33.7057 22.894 34.0417 22.09C34.3897 21.286 34.8637 20.59 35.4637 20.002C36.0757 19.414 36.7897 18.958 37.6057 18.634C38.4217 18.298 39.2977 18.13 40.2337 18.13C40.9297 18.13 41.5657 18.214 42.1417 18.382C42.7297 18.538 43.2577 18.76 43.7257 19.048C44.2057 19.336 44.6257 19.684 44.9857 20.092C45.3577 20.488 45.6757 20.926 45.9397 21.406L42.4657 23.44C42.2257 22.984 41.9257 22.618 41.5657 22.342C41.2177 22.054 40.7557 21.91 40.1797 21.91C39.8197 21.91 39.4957 21.982 39.2077 22.126C38.9197 22.27 38.6737 22.468 38.4697 22.72C38.2657 22.972 38.1037 23.266 37.9837 23.602C37.8757 23.938 37.8217 24.292 37.8217 24.664V24.7C37.8217 25.108 37.8757 25.486 37.9837 25.834C38.1037 26.17 38.2657 26.464 38.4697 26.716C38.6857 26.956 38.9377 27.148 39.2257 27.292C39.5137 27.424 39.8317 27.49 40.1797 27.49C40.7797 27.49 41.2597 27.346 41.6197 27.058C41.9797 26.758 42.2917 26.374 42.5557 25.906L46.0297 27.868C45.7657 28.336 45.4537 28.78 45.0937 29.2C44.7337 29.608 44.3077 29.968 43.8157 30.28C43.3357 30.58 42.7837 30.82 42.1597 31C41.5477 31.18 40.8517 31.27 40.0717 31.27ZM46.6535 18.4H50.8655V23.116L54.4475 18.4H59.3435L54.9515 23.872L59.4335 31H54.4115L51.9455 27.004L50.8655 28.318V31H46.6535V18.4ZM61.1322 18.4H71.6802V22H65.3442V23.602H71.2302V26.878H65.3442V31H61.1322V18.4ZM77.3255 14.314L81.3035 15.34L78.3335 17.77H75.5975L77.3255 14.314ZM77.1275 31.252C76.1915 31.252 75.3395 31.144 74.5715 30.928C73.8155 30.7 73.1675 30.346 72.6275 29.866C72.0875 29.386 71.6675 28.774 71.3675 28.03C71.0795 27.286 70.9355 26.392 70.9355 25.348V18.4H75.2195V25.294C75.2195 26.074 75.3995 26.644 75.7595 27.004C76.1315 27.352 76.5995 27.526 77.1635 27.526C77.7395 27.526 78.2075 27.364 78.5675 27.04C78.9275 26.704 79.1075 26.152 79.1075 25.384V18.4H83.3915V25.258C83.3915 26.338 83.2415 27.256 82.9415 28.012C82.6415 28.768 82.2155 29.386 81.6635 29.866C81.1235 30.346 80.4635 30.7 79.6835 30.928C78.9155 31.144 78.0635 31.252 77.1275 31.252ZM86.3213 21.964H82.6133V18.4H94.2413V21.964H90.5333V31H86.3213V21.964ZM99.783 27.814C100.239 27.814 100.581 27.73 100.809 27.562C101.049 27.394 101.169 27.172 101.169 26.896V26.86C101.169 26.584 101.055 26.362 100.827 26.194C100.599 26.026 100.257 25.942 99.801 25.942H97.677V27.814H99.783ZM99.513 23.35C100.401 23.35 100.845 23.062 100.845 22.486V22.45C100.845 21.874 100.395 21.586 99.495 21.586H97.677V23.35H99.513ZM93.573 18.4H100.629C101.505 18.4 102.225 18.496 102.789 18.688C103.365 18.88 103.839 19.162 104.211 19.534C104.439 19.762 104.625 20.038 104.769 20.362C104.913 20.686 104.985 21.064 104.985 21.496V21.532C104.985 22.288 104.781 22.9 104.373 23.368C103.965 23.824 103.419 24.172 102.735 24.412C103.551 24.652 104.199 25.006 104.679 25.474C105.159 25.942 105.399 26.608 105.399 27.472V27.508C105.399 28.012 105.297 28.48 105.093 28.912C104.889 29.332 104.583 29.698 104.175 30.01C103.767 30.322 103.257 30.568 102.645 30.748C102.045 30.916 101.349 31 100.557 31H93.573V18.4ZM111.303 27.544C111.699 27.544 112.059 27.466 112.383 27.31C112.707 27.154 112.983 26.95 113.211 26.698C113.439 26.434 113.613 26.134 113.733 25.798C113.853 25.462 113.913 25.108 113.913 24.736V24.7C113.913 24.328 113.847 23.974 113.715 23.638C113.595 23.29 113.421 22.984 113.193 22.72C112.965 22.456 112.689 22.246 112.365 22.09C112.041 21.934 111.675 21.856 111.267 21.856C110.871 21.856 110.511 21.934 110.187 22.09C109.863 22.246 109.587 22.456 109.359 22.72C109.131 22.972 108.957 23.266 108.837 23.602C108.717 23.938 108.657 24.292 108.657 24.664V24.7C108.657 25.072 108.717 25.432 108.837 25.78C108.969 26.116 109.149 26.416 109.377 26.68C109.605 26.944 109.881 27.154 110.205 27.31C110.529 27.466 110.895 27.544 111.303 27.544ZM111.267 31.27C110.295 31.27 109.389 31.102 108.549 30.766C107.721 30.43 106.995 29.968 106.371 29.38C105.759 28.792 105.279 28.102 104.931 27.31C104.583 26.506 104.409 25.648 104.409 24.736V24.7C104.409 23.788 104.583 22.936 104.931 22.144C105.291 21.34 105.777 20.644 106.389 20.056C107.013 19.456 107.745 18.988 108.585 18.652C109.425 18.304 110.331 18.13 111.303 18.13C112.275 18.13 113.175 18.298 114.003 18.634C114.843 18.97 115.569 19.432 116.181 20.02C116.805 20.608 117.291 21.304 117.639 22.108C117.987 22.9 118.161 23.752 118.161 24.664V24.7C118.161 25.612 117.981 26.47 117.621 27.274C117.273 28.066 116.787 28.762 116.163 29.362C115.551 29.95 114.825 30.418 113.985 30.766C113.145 31.102 112.239 31.27 111.267 31.27ZM117.685 18.4H121.897V27.4H127.819V31H117.685V18.4Z" fill="white"/>
<path d="M29.406 51.1961H26.598V47.6321H29.406V44.6801H33.114V47.6321H35.922V51.1961H33.114V54.1481H29.406V51.1961Z" fill="white"/>
<path d="M210 69H0V2.625H66.125V4.125H1.5V67.5H208.5V4.125H143.125V2.625H210V69Z" fill="white"/>
<path d="M74.0104 53.6249C75.7378 53.6249 77.1374 52.223 77.1374 50.498C77.1374 48.769 75.7378 47.3694 74.0104 47.3694C72.2831 47.3694 70.884 48.769 70.884 50.498C70.884 52.223 72.2831 53.6249 74.0104 53.6249Z" fill="white"/>
<path d="M50.8019 52.4896V58.2118H55.0447V42.8464H50.8019V48.6318H48.1015V42.8464H43.8588V58.2118H48.1015V52.4896H50.8019Z" fill="white"/>
<path d="M66.1917 50.498C66.1917 46.3265 69.4557 42.9167 73.5705 42.689H74.4487C78.5635 42.9167 81.8291 46.3265 81.8291 50.498C81.8291 54.8146 78.3292 58.3166 74.0103 58.3166C69.6916 58.3166 66.1917 54.8146 66.1917 50.498ZM74.0103 54.4075C76.17 54.4075 77.92 52.6554 77.92 50.498C77.92 48.3388 76.17 46.5883 74.0103 46.5883C71.8513 46.5883 70.1013 48.3388 70.1013 50.498C70.1013 52.6554 71.8513 54.4075 74.0103 54.4075Z" fill="white"/>
<path d="M62.4387 42.8465C63.5965 42.8465 66.8735 43.4903 66.8735 46.7673C66.8735 49.4031 65.6055 50.1896 64.6247 50.3683C63.9161 50.4979 66.7439 50.3683 66.7439 53.6453C66.7439 58.3413 62.6308 58.2118 62.6308 58.2118H55.9435V42.8464L62.4387 42.8465ZM59.7365 46.5882V48.9022H61.9874C61.9874 48.9022 62.8899 48.7937 62.8899 47.6872C62.8899 46.5753 61.9566 46.5882 61.9566 46.5882L59.7365 46.5882ZM59.7365 52.2461V54.5613H61.9874C61.9874 54.5613 62.8899 54.4512 62.8899 53.3445C62.8899 52.2327 61.9566 52.2461 61.9566 52.2461H59.7365Z" fill="white"/>
<path d="M81.9645 44.767H81.5641V42.8918H82.2657C82.749 42.8918 83.0306 43.0284 83.0306 43.4566C83.0306 43.8018 82.836 43.9247 82.5833 43.9481L83.0652 44.767H82.5874L82.1537 43.9772H81.9645V44.767ZM82.3195 43.661C82.5004 43.661 82.6025 43.6223 82.6025 43.4179C82.6025 43.2231 82.3982 43.208 82.2462 43.208H81.9645V43.661L82.3195 43.661ZM82.2559 45.5708C81.3265 45.5708 80.5021 44.9273 80.5021 43.8322C80.5021 42.7302 81.3265 42.088 82.2559 42.088C83.1825 42.088 84 42.7302 84 43.8322C84 44.9273 83.1825 45.5708 82.2559 45.5708ZM82.2559 42.4927C81.5641 42.4927 81.0048 43.0284 81.0048 43.8322C81.0048 44.6304 81.5641 45.1717 82.2559 45.1662C82.9284 45.1662 83.5042 44.6304 83.5042 43.8322C83.5042 43.0284 82.9284 42.4927 82.2559 42.4927Z" fill="white"/>
<line x1="137.812" y1="16.625" x2="137.812" y2="30.5" stroke="white" stroke-width="0.375"/>
<line x1="94.3125" y1="44" x2="94.3125" y2="57.875" stroke="white" stroke-width="0.375"/>
</svg>
