<svg width="50" height="50" viewBox="0 0 50 50" fill="none" xmlns="http://www.w3.org/2000/svg">
<g clip-path="url(#clip0_112_531)">
<path d="M48.393 4.32654H1.60726C0.719586 4.32654 0.00012207 5.046 0.00012207 5.93368V37.3521C0.00012207 38.2398 0.719586 38.9592 1.60726 38.9592H23.3808V42.4592H18.1537C17.266 42.4592 16.5466 43.1787 16.5466 44.0664C16.5466 44.954 17.266 45.6735 18.1537 45.6735H31.8469C32.7346 45.6735 33.4541 44.954 33.4541 44.0664C33.4541 43.1787 32.7346 42.4592 31.8469 42.4592H26.5953V38.9592H48.393C49.2807 38.9592 50.0001 38.2398 50.0001 37.3521V5.93368C50.0001 5.046 49.2807 4.32654 48.393 4.32654ZM46.7858 35.7449H3.21441V7.54082H46.7858V35.7449Z" fill="white"/>
<path d="M15.5038 23.0882H19.5559L17.8515 29.449H22.2936L26.477 13.8365H22.035L20.5952 19.2099H16.5429L17.9827 13.8365H13.5404L9.35699 29.449H13.7993L15.5038 23.0882Z" fill="white"/>
<path d="M31.6868 29.449C36.4315 29.449 39.2233 25.3387 40.254 21.4919C40.6431 20.0399 41.0881 17.3333 39.6968 15.5203C38.8395 14.403 37.4633 13.8365 35.6061 13.8365H28.7959L24.6125 29.449H31.6868ZM32.1395 17.7149H34.4359C35.1529 17.7149 35.5786 17.8532 35.8165 18.1635C36.2122 18.679 36.2038 19.8069 35.7933 21.3396C35.5272 22.3323 34.4665 25.571 31.9874 25.571H30.0342L32.1395 17.7149Z" fill="white"/>
</g>
<defs>
<clipPath id="clip0_112_531">
<rect width="50" height="50" fill="white"/>
</clipPath>
</defs>
</svg>
