<svg width="154" height="60" viewBox="0 0 154 60" fill="none" xmlns="http://www.w3.org/2000/svg">
<path d="M15.6339 60C11.7431 60 8.0118 58.4544 5.26065 55.7033C2.50951 52.9521 0.963928 49.2208 0.963928 45.3301V0H138.366C142.257 0 145.988 1.54558 148.739 4.29672C151.49 7.04787 153.036 10.7792 153.036 14.6699V59.9633L15.6339 60Z" fill="url(#paint0_linear_1_7)"/>
<path d="M118.067 38.0226V42.2219C115.965 43.3233 113.617 43.8664 111.245 43.7989C109.765 43.8226 108.291 43.5899 106.89 43.1112C105.662 42.6914 104.541 42.0058 103.608 41.1033C102.695 40.18 102 39.065 101.572 37.8392C101.079 36.4569 100.837 34.9975 100.857 33.53C100.834 31.7041 101.19 29.8934 101.902 28.2121C102.547 26.6686 103.635 25.3509 105.029 24.4254C106.53 23.4703 108.284 22.9879 110.062 23.041C113.528 23.041 115.973 24.0862 117.397 26.1767C118.822 28.2671 119.528 31.2194 119.515 35.0336H105.826C105.845 35.7281 106.006 36.4114 106.297 37.0419C106.589 37.6724 107.006 38.237 107.523 38.7011C108.635 39.6142 110.046 40.0844 111.484 40.0214C113.811 39.9197 116.075 39.2322 118.067 38.0226ZM105.826 31.4578H114.61C114.587 30.2459 114.19 29.0707 113.473 28.0929C113.101 27.6515 112.629 27.3043 112.097 27.0797C111.565 26.855 110.987 26.7592 110.411 26.8001C109.811 26.7653 109.211 26.8613 108.652 27.0813C108.093 27.3014 107.589 27.6403 107.174 28.0746C106.357 29.0179 105.885 30.2109 105.836 31.4578H105.826Z" fill="white"/>
<path d="M79.8606 43.3405V16.1094H86.5996C88.4333 16.1094 90.0195 16.1644 91.2756 16.2836C92.5069 16.3965 93.7148 16.69 94.8606 17.1547C95.9862 17.5944 96.9473 18.3729 97.6112 19.3826C98.3399 20.6178 98.6906 22.0395 98.6198 23.4719C98.6282 24.4956 98.3958 25.5069 97.9413 26.4242C97.4843 27.3245 96.8099 28.0966 95.9792 28.6705C95.0937 29.2791 94.0748 29.6659 93.0085 29.7983V29.8625C94.1271 29.945 95.0898 30.8894 95.8875 32.6773L100.215 43.3405H94.1271L90.8539 34.8319C90.642 34.2536 90.3619 33.7026 90.0195 33.1907C89.739 32.7835 89.3476 32.4653 88.8918 32.2738C88.303 32.0686 87.6811 31.9753 87.058 31.9988H85.3068V43.3405H79.8606ZM85.316 20.4187V27.7537H87.1039C88.5393 27.8081 89.9693 27.5484 91.294 26.9927C92.3484 26.4976 92.8801 25.489 92.8801 23.967C92.961 23.3849 92.8533 22.7922 92.5728 22.2757C92.2923 21.7593 91.8538 21.3463 91.3215 21.0972C89.9728 20.6008 88.54 20.3734 87.1039 20.4279L85.316 20.4187Z" fill="white"/>
<path d="M73.1674 38.9028V42.5703L72.0489 42.9921C71.6179 43.1479 71.132 43.2855 70.6736 43.4138C69.4749 43.7159 68.2421 43.8608 67.0061 43.8447C65.0305 43.9094 63.072 43.4609 61.3215 42.5428C59.8308 41.7105 58.6428 40.4263 57.9291 38.8753C57.1503 37.0998 56.7715 35.1748 56.8197 33.2366C56.7677 31.4359 57.1515 29.6493 57.9382 28.0287C58.6534 26.5641 59.7776 25.338 61.1748 24.4988C62.639 23.6331 64.3152 23.1919 66.0159 23.2243C67.8124 23.1388 69.5891 23.6304 71.0862 24.6271C72.3939 25.5967 73.3577 26.9588 73.8368 28.5147C74.423 30.3955 74.7047 32.3579 74.6711 34.3276H60.643C60.6343 35.515 60.9514 36.6821 61.5599 37.7017C62.1292 38.6794 62.9531 39.4842 63.9437 40.0306C64.9146 40.5875 66.0152 40.8784 67.1344 40.8741C68.3141 40.8568 69.4814 40.6302 70.5819 40.2048C71.5147 39.9148 72.3941 39.475 73.1858 38.9028H73.1674ZM60.643 31.6229H70.8111C70.8203 30.675 70.6232 29.7364 70.2335 28.8723C69.869 28.0635 69.2804 27.3762 68.5373 26.8918C67.7534 26.4082 66.8447 26.1659 65.9242 26.195C64.9287 26.1619 63.9477 26.4408 63.1185 26.9927C62.3963 27.4863 61.8149 28.1593 61.4315 28.9456C61.0366 29.7814 60.7826 30.6767 60.6797 31.5954L60.643 31.6229Z" fill="white"/>
<path d="M49.2005 16.0544H52.8221V43.3405H49.2005V16.0544Z" fill="white"/>
<path d="M43.3875 38.9211V42.5886C43.0757 42.717 42.709 42.8453 42.278 43.0104C41.8471 43.1754 41.3612 43.3038 40.9027 43.4321C40.4443 43.5605 39.8758 43.6522 39.2707 43.7439C38.5834 43.8296 37.8912 43.8694 37.1986 43.8631C35.223 43.9278 33.2645 43.4792 31.514 42.5611C30.0233 41.7288 28.8354 40.4446 28.1216 38.8936C27.3437 37.1179 26.965 35.193 27.0122 33.2549C26.9687 31.445 27.3651 29.6516 28.1674 28.0287C28.8826 26.5641 30.0067 25.338 31.404 24.4988C32.8638 23.6396 34.5331 23.2017 36.2267 23.2335C38.0118 23.1586 39.7746 23.653 41.2603 24.6455C42.5681 25.615 43.5318 26.9771 44.0109 28.533C44.5972 30.4138 44.8789 32.3762 44.8453 34.346H30.8172C30.8047 35.5338 31.1221 36.7019 31.734 37.72C32.3023 38.6953 33.1225 39.4998 34.1087 40.0489C35.0842 40.6017 36.1874 40.8894 37.3086 40.8832C38.4878 40.8695 39.6552 40.6459 40.7561 40.2231C41.6869 39.9354 42.5637 39.4955 43.3508 38.9211H43.3875ZM30.8722 31.6412H41.0403C41.0505 30.6922 40.85 29.7528 40.4535 28.8906C40.0963 28.053 39.4949 27.3425 38.7278 26.8518C37.9607 26.3611 37.0635 26.1131 36.1534 26.14C35.1579 26.1069 34.1769 26.3858 33.3477 26.9376C32.5997 27.4464 32.0014 28.146 31.6148 28.9639C31.2259 29.8013 30.9751 30.6961 30.8722 31.6137V31.6412Z" fill="white"/>
<path d="M137 43.368V41.2867H136.917C136.16 42.1371 135.219 42.8049 134.166 43.24C133.113 43.6751 131.976 43.8661 130.839 43.7989C129.527 43.835 128.225 43.5683 127.034 43.0196C126.004 42.5299 125.115 41.7889 124.448 40.8649C123.767 39.9387 123.272 38.8895 122.99 37.7751C122.367 35.3356 122.367 32.7787 122.99 30.3392C123.272 29.2361 123.767 28.1988 124.448 27.2861C125.12 26.3829 126.01 25.6639 127.034 25.1956C128.228 24.6569 129.529 24.3967 130.839 24.4346C131.956 24.3981 133.067 24.6112 134.092 25.0585C135.117 25.5058 136.029 26.1759 136.762 27.0202H136.835V16.0177H141.997V43.368H137ZM127.905 34.0801C127.881 35.5342 128.238 36.9691 128.941 38.2427C129.261 38.8332 129.744 39.3196 130.332 39.6445C130.92 39.9695 131.589 40.1193 132.26 40.0764C133.219 40.1159 134.157 39.7879 134.882 39.1595C135.564 38.5452 136.07 37.7604 136.349 36.8857C136.649 35.9776 136.8 35.0272 136.798 34.0709C136.793 33.372 136.704 32.6764 136.532 31.9988C136.356 31.322 136.077 30.6759 135.707 30.0825C135.336 29.517 134.84 29.0436 134.258 28.698C133.628 28.3382 132.912 28.1574 132.186 28.1754C131.256 28.1398 130.348 28.4688 129.656 29.0923C129.015 29.7115 128.55 30.4899 128.308 31.3478C128.04 32.24 127.904 33.1668 127.905 34.0984V34.0801Z" fill="white"/>
<path d="M18.1919 19.4468H9.69257V15.9994H30.6064V19.4468H22.107V43.2855H18.1919V19.4468Z" fill="white"/>
<defs>
<linearGradient id="paint0_linear_1_7" x1="77.0183" y1="60.1834" x2="77.0183" y2="-1.2011" gradientUnits="userSpaceOnUse">
<stop stop-color="#004772"/>
<stop offset="1" stop-color="#0274B9"/>
</linearGradient>
</defs>
</svg>
