<svg width="75" height="59" viewBox="0 0 75 59" fill="none" xmlns="http://www.w3.org/2000/svg">
<path d="M4.78265 49.6268V17.5499H10.9231L24.5787 40.187H21.3252L34.7516 17.5499H40.8462L40.9379 49.6268H33.9726L33.9268 28.2269H35.2099L24.487 46.2358H21.1419L10.1899 28.2269H11.7479V49.6268H4.78265ZM43.0494 49.6268V17.5499H58.7212C62.7538 17.5499 65.7782 18.3136 67.7944 19.8411C69.8412 21.3685 70.8646 23.3848 70.8646 25.8899C70.8646 27.5701 70.4522 29.0364 69.6274 30.289C68.8025 31.5109 67.6722 32.458 66.2364 33.1301C64.8006 33.8022 63.1509 34.1382 61.2874 34.1382L62.158 32.2594C64.1743 32.2594 65.9615 32.5955 67.5195 33.2675C69.0775 33.9091 70.2842 34.8714 71.1396 36.1545C72.0255 37.4375 72.4685 39.0108 72.4685 40.8743C72.4685 43.6238 71.384 45.7775 69.215 47.3355C67.046 48.863 63.8535 49.6268 59.6377 49.6268H43.0494ZM50.4271 44.0362H59.0878C61.0124 44.0362 62.4635 43.7307 63.4411 43.1197C64.4493 42.4782 64.9533 41.4701 64.9533 40.0953C64.9533 38.7512 64.4493 37.7583 63.4411 37.1168C62.4635 36.4447 61.0124 36.1086 59.0878 36.1086H49.8772V30.7014H57.8048C59.6072 30.7014 60.9819 30.3959 61.9289 29.7849C62.9065 29.1434 63.3953 28.1811 63.3953 26.898C63.3953 25.6455 62.9065 24.7137 61.9289 24.1027C60.9819 23.4612 59.6072 23.1404 57.8048 23.1404H50.4271V44.0362Z" fill="#1B6796"/>
<path d="M47.7709 5.47873H49.6723L48.1091 12.8627H45.8345C45.5934 12.0306 45.3834 11.2179 45.2046 10.4247C45.0335 9.63147 44.8702 8.78381 44.7146 7.88172H44.6913C44.5124 8.78381 44.3336 9.63147 44.1547 10.4247C43.9836 11.2179 43.7892 12.0306 43.5715 12.8627H41.2968L39.7337 5.47873H41.6351C41.7517 6.02309 41.8567 6.5558 41.95 7.07683C42.0433 7.59787 42.1328 8.13057 42.2183 8.67494C42.3116 9.21153 42.405 9.79478 42.4983 10.4247H42.5216C42.6383 9.79478 42.751 9.21153 42.8599 8.67494C42.9688 8.13057 43.0815 7.59787 43.1982 7.07683C43.3148 6.5558 43.4393 6.02309 43.5715 5.47873H45.8345C46.0133 6.30305 46.1883 7.12738 46.3594 7.95171C46.5383 8.77604 46.7132 9.60036 46.8843 10.4247H46.9077C47.0554 9.60036 47.1993 8.77604 47.3393 7.95171C47.4792 7.12738 47.6231 6.30305 47.7709 5.47873ZM52.3622 5.07045C52.3856 5.35041 52.3972 5.58371 52.3972 5.77035C52.3972 5.87922 52.3933 5.99199 52.3856 6.10864C52.3856 6.21751 52.3778 6.34194 52.3622 6.48192C52.1989 6.51302 52.0395 6.53635 51.884 6.55191C51.7284 6.56746 51.5729 6.57524 51.4174 6.57524C51.2696 6.57524 51.118 6.56746 50.9624 6.55191C50.8147 6.53635 50.663 6.51302 50.5075 6.48192C50.4919 6.34971 50.4803 6.22917 50.4725 6.1203C50.4647 6.00365 50.4608 5.89089 50.4608 5.78202C50.4608 5.68092 50.4647 5.57205 50.4725 5.45539C50.4803 5.33874 50.4919 5.21043 50.5075 5.07045C50.663 5.03157 50.8186 5.00824 50.9741 5.00046C51.1374 4.98491 51.2968 4.97713 51.4524 4.97713C51.6001 4.97713 51.7479 4.98491 51.8956 5.00046C52.0512 5.00824 52.2067 5.03157 52.3622 5.07045ZM52.3622 12.8627H50.4958V7.18182H52.3622V12.8627ZM53.3038 10.6697V9.21153H58.0631V10.6697H53.3038ZM60.9768 12.8627H59.1104V5.47873H64.5929V6.99518H60.9768V8.68661H64.3596V10.2031H60.9768V12.8627ZM67.2283 5.07045C67.2516 5.35041 67.2633 5.58371 67.2633 5.77035C67.2633 5.87922 67.2594 5.99199 67.2516 6.10864C67.2516 6.21751 67.2438 6.34194 67.2283 6.48192C67.065 6.51302 66.9056 6.53635 66.75 6.55191C66.5945 6.56746 66.439 6.57524 66.2834 6.57524C66.1357 6.57524 65.984 6.56746 65.8285 6.55191C65.6807 6.53635 65.5291 6.51302 65.3736 6.48192C65.358 6.34971 65.3463 6.22917 65.3386 6.1203C65.3308 6.00365 65.3269 5.89089 65.3269 5.78202C65.3269 5.68092 65.3308 5.57205 65.3386 5.45539C65.3463 5.33874 65.358 5.21043 65.3736 5.07045C65.5291 5.03157 65.6846 5.00824 65.8402 5.00046C66.0035 4.98491 66.1629 4.97713 66.3184 4.97713C66.4662 4.97713 66.6139 4.98491 66.7617 5.00046C66.9172 5.00824 67.0728 5.03157 67.2283 5.07045ZM67.2283 12.8627H65.3619V7.18182H67.2283V12.8627Z" fill="#1B6796"/>
<path d="M22.9778 3.29741C18.307 3.29741 13.9699 4.97613 10.7448 8.12379C10.0776 8.75332 10.0776 9.80255 10.7448 10.4321C11.0784 10.7469 11.5233 10.9567 11.9682 10.9567C12.413 10.9567 12.8578 10.7469 13.1914 10.4321C15.8604 7.91396 19.3079 6.65489 22.9778 6.65489C26.6476 6.65489 30.2064 8.01888 32.7642 10.4321C33.4314 11.0616 34.5434 11.0616 35.2107 10.4321C35.8779 9.80255 35.8779 8.75332 35.2107 8.12379C31.9856 4.97613 27.6485 3.29741 22.9778 3.29741Z" fill="#1B6796"/>
<path d="M22.9761 16.726C22.0865 16.726 21.308 17.0408 20.752 17.5654C20.1959 18.09 19.8623 18.8244 19.8623 19.6638C19.8623 20.5032 20.1959 21.2376 20.752 21.7623C21.308 22.2869 22.0865 22.6016 22.9761 22.6016C23.8658 22.6016 24.6443 22.2869 25.2003 21.7623C25.7563 21.2376 26.09 20.5032 26.09 19.6638C26.09 18.8244 25.7563 18.09 25.2003 17.5654C24.6443 17.0408 23.8658 16.726 22.9761 16.726Z" fill="#1B6796"/>
<path d="M15.6376 12.7386C14.9704 13.3681 14.9704 14.4173 15.6376 15.0469C16.3049 15.6764 17.417 15.6764 18.0842 15.0469C20.7533 12.5287 25.2016 12.5287 27.8706 15.0469C28.2042 15.3616 28.649 15.5715 29.0939 15.5715C29.5387 15.5715 29.9836 15.3616 30.3172 15.0469C30.9844 14.4173 30.9844 13.3681 30.3172 12.7386C26.3137 8.8565 19.6412 8.8565 15.6376 12.7386Z" fill="#1B6796"/>
<path d="M33.986 10.9566C33.5411 10.9566 33.0963 10.7468 32.7627 10.432C30.0937 7.91388 26.6462 6.65481 22.9763 6.65481C19.3064 6.65481 15.7478 8.01881 13.19 10.432C12.8563 10.7468 12.4115 10.9566 11.9667 10.9566C11.5219 10.9566 11.077 10.7468 10.7434 10.432C10.4097 10.1172 10.1873 9.69755 10.1873 9.27786C10.1873 8.85817 10.4097 8.43848 10.7434 8.12371C13.9684 5.08098 18.4168 3.29733 22.9763 3.29733C27.6471 3.29733 31.9842 4.97606 35.2092 8.12371C35.5429 8.43848 35.7653 8.85817 35.7653 9.27786C35.7653 9.69755 35.5429 10.1172 35.2092 10.432C34.9868 10.7468 34.542 10.9566 33.986 10.9566ZM22.9763 6.54989C26.6462 6.54989 30.2049 7.91388 32.7627 10.432C33.0963 10.7468 33.5411 10.9566 33.986 10.9566C34.4308 10.9566 34.8756 10.7468 35.2092 10.432C35.5429 10.1172 35.7653 9.69755 35.7653 9.27786C35.7653 8.85817 35.5429 8.43848 35.2092 8.12371C31.9842 5.08098 27.5359 3.29733 22.9763 3.29733C18.3055 3.29733 13.9684 4.97606 10.7434 8.12371C10.4097 8.43848 10.1873 8.85817 10.1873 9.27786C10.1873 9.69755 10.4097 10.1172 10.7434 10.432C11.077 10.7468 11.5219 10.9566 11.9667 10.9566C12.4115 10.9566 12.8563 10.7468 13.19 10.432C15.7478 7.91388 19.3064 6.54989 22.9763 6.54989Z" fill="#1B6796"/>
</svg>
