<svg width="73" height="50" viewBox="0 0 73 50" fill="none" xmlns="http://www.w3.org/2000/svg">
<path d="M4.23836 42.4702V14.8802H9.51987L21.2653 34.3509H18.4669L30.0153 14.8802H35.2574L35.3362 42.4702H29.3452L29.3058 24.0638H30.4094L21.1865 39.5536H18.3092L8.88924 24.0638H10.2293V42.4702H4.23836ZM37.1523 42.4702V14.8802H50.632C54.1005 14.8802 56.7018 15.5372 58.436 16.851C60.1965 18.1648 61.0768 19.899 61.0768 22.0536C61.0768 23.4988 60.722 24.7601 60.0126 25.8374C59.3031 26.8885 58.3309 27.703 57.0959 28.2811C55.861 28.8592 54.442 29.1482 52.8392 29.1482L53.5881 27.5322C55.3223 27.5322 56.8594 27.8213 58.1995 28.3993C59.5396 28.9511 60.5775 29.7788 61.3133 30.8824C62.0753 31.986 62.4563 33.3392 62.4563 34.9421C62.4563 37.3069 61.5235 39.1594 59.6579 40.4995C57.7923 41.8133 55.0464 42.4702 51.4203 42.4702H37.1523ZM43.498 37.6617H50.9473C52.6027 37.6617 53.8508 37.3989 54.6917 36.8734C55.5588 36.3216 55.9923 35.4545 55.9923 34.2721C55.9923 33.1159 55.5588 32.2619 54.6917 31.7101C53.8508 31.1321 52.6027 30.843 50.9473 30.843H43.0251V26.1921H49.8437C51.394 26.1921 52.5764 25.9294 53.391 25.4038C54.2318 24.852 54.6523 24.0244 54.6523 22.9208C54.6523 21.8434 54.2318 21.042 53.391 20.5165C52.5764 19.9647 51.394 19.6888 49.8437 19.6888H43.498V37.6617Z" fill="white"/>
<path d="M45.7925 5.02144H47.428L46.0835 11.3725H44.127C43.9197 10.6568 43.7391 9.95783 43.5852 9.27557C43.4381 8.5933 43.2976 7.86421 43.1638 7.08831H43.1437C42.9899 7.86421 42.8361 8.5933 42.6822 9.27557C42.5351 9.95783 42.3678 10.6568 42.1806 11.3725H40.2241L38.8796 5.02144H40.515C40.6154 5.48966 40.7057 5.94785 40.7859 6.39601C40.8662 6.84416 40.9431 7.30235 41.0167 7.77057C41.097 8.2321 41.1772 8.73377 41.2575 9.27557H41.2776C41.3779 8.73377 41.4749 8.2321 41.5685 7.77057C41.6622 7.30235 41.7592 6.84416 41.8595 6.39601C41.9598 5.94785 42.0668 5.48966 42.1806 5.02144H44.127C44.2809 5.73046 44.4314 6.43948 44.5785 7.14851C44.7324 7.85753 44.8829 8.56655 45.03 9.27557H45.0501C45.1772 8.56655 45.3009 7.85753 45.4213 7.14851C45.5417 6.43948 45.6655 5.73046 45.7925 5.02144ZM49.7417 4.67028C49.7617 4.91108 49.7718 5.11174 49.7718 5.27228C49.7718 5.36592 49.7684 5.46291 49.7617 5.56324C49.7617 5.65689 49.755 5.76391 49.7417 5.88431C49.6012 5.91106 49.4641 5.93113 49.3303 5.94451C49.1965 5.95789 49.0627 5.96457 48.929 5.96457C48.8019 5.96457 48.6715 5.95789 48.5377 5.94451C48.4106 5.93113 48.2802 5.91106 48.1464 5.88431C48.133 5.7706 48.123 5.66692 48.1163 5.57328C48.1096 5.47294 48.1062 5.37595 48.1062 5.28231C48.1062 5.19535 48.1096 5.10171 48.1163 5.00138C48.123 4.90104 48.133 4.79068 48.1464 4.67028C48.2802 4.63683 48.4139 4.61677 48.5477 4.61008C48.6882 4.5967 48.8253 4.59001 48.9591 4.59001C49.0862 4.59001 49.2132 4.5967 49.3403 4.61008C49.4741 4.61677 49.6079 4.63683 49.7417 4.67028ZM49.7417 11.3725H48.1363V6.48631H49.7417V11.3725ZM50.5515 9.48627V8.2321H54.6451V9.48627H50.5515ZM57.1512 11.3725H55.5459V5.02144H60.2615V6.32577H57.1512V7.7806H60.0609V9.08493H57.1512V11.3725ZM62.5283 4.67028C62.5483 4.91108 62.5584 5.11174 62.5584 5.27228C62.5584 5.36592 62.555 5.46291 62.5483 5.56324C62.5483 5.65689 62.5416 5.76391 62.5283 5.88431C62.3878 5.91106 62.2507 5.93113 62.1169 5.94451C61.9831 5.95789 61.8493 5.96457 61.7156 5.96457C61.5885 5.96457 61.458 5.95789 61.3243 5.94451C61.1972 5.93113 61.0667 5.91106 60.933 5.88431C60.9196 5.7706 60.9096 5.66692 60.9029 5.57328C60.8962 5.47294 60.8928 5.37595 60.8928 5.28231C60.8928 5.19535 60.8962 5.10171 60.9029 5.00138C60.9096 4.90104 60.9196 4.79068 60.933 4.67028C61.0667 4.63683 61.2005 4.61677 61.3343 4.61008C61.4748 4.5967 61.6119 4.59001 61.7457 4.59001C61.8728 4.59001 61.9998 4.5967 62.1269 4.61008C62.2607 4.61677 62.3945 4.63683 62.5283 4.67028ZM62.5283 11.3725H60.9229V6.48631H62.5283V11.3725Z" fill="white"/>
<path d="M22.5034 2.46674C17.9308 2.46674 13.6847 3.91064 10.5274 6.618C9.8742 7.15948 9.8742 8.06194 10.5274 8.60341C10.8541 8.87415 11.2896 9.05464 11.7251 9.05464C12.1606 9.05464 12.596 8.87415 12.9226 8.60341C15.5356 6.43752 18.9106 5.35457 22.5034 5.35457C26.0962 5.35457 29.5802 6.52777 32.0842 8.60341C32.7375 9.14489 33.8262 9.14489 34.4794 8.60341C35.1326 8.06194 35.1326 7.15948 34.4794 6.618C31.3221 3.91064 27.0761 2.46674 22.5034 2.46674Z" fill="white"/>
<path d="M22.5018 14.0168C21.6309 14.0168 20.8688 14.2876 20.3244 14.7388C19.78 15.19 19.4534 15.8217 19.4534 16.5437C19.4534 17.2657 19.78 17.8974 20.3244 18.3486C20.8688 18.7998 21.6309 19.0706 22.5018 19.0706C23.3728 19.0706 24.1349 18.7998 24.6793 18.3486C25.2237 17.8974 25.5503 17.2657 25.5503 16.5437C25.5503 15.8217 25.2237 15.19 24.6793 14.7388C24.1349 14.2876 23.3728 14.0168 22.5018 14.0168Z" fill="white"/>
<path d="M15.3176 10.5873C14.6643 11.1288 14.6643 12.0312 15.3176 12.5727C15.9708 13.1142 17.0595 13.1142 17.7128 12.5727C20.3257 10.4068 24.6806 10.4068 27.2935 12.5727C27.6202 12.8434 28.0556 13.0239 28.4911 13.0239C28.9266 13.0239 29.3621 12.8434 29.6888 12.5727C30.342 12.0312 30.342 11.1288 29.6888 10.5873C25.7693 7.24824 19.237 7.24824 15.3176 10.5873Z" fill="white"/>
<path d="M33.2804 9.05452C32.8449 9.05452 32.4094 8.87403 32.0828 8.60329C29.4699 6.4374 26.0948 5.35445 22.502 5.35445C18.9092 5.35445 15.4253 6.52765 12.9212 8.60329C12.5946 8.87403 12.1591 9.05452 11.7236 9.05452C11.2881 9.05452 10.8526 8.87403 10.526 8.60329C10.1994 8.33255 9.98163 7.97157 9.98163 7.61058C9.98163 7.2496 10.1994 6.88862 10.526 6.61788C13.6833 4.00076 18.0382 2.46661 22.502 2.46661C27.0746 2.46661 31.3206 3.91052 34.4779 6.61788C34.8046 6.88862 35.0223 7.2496 35.0223 7.61058C35.0223 7.97157 34.8046 8.33255 34.4779 8.60329C34.2602 8.87403 33.8247 9.05452 33.2804 9.05452ZM22.502 5.2642C26.0948 5.2642 29.5787 6.4374 32.0828 8.60329C32.4094 8.87403 32.8449 9.05452 33.2804 9.05452C33.7159 9.05452 34.1513 8.87403 34.4779 8.60329C34.8046 8.33255 35.0223 7.97157 35.0223 7.61058C35.0223 7.2496 34.8046 6.88862 34.4779 6.61788C31.3206 4.00076 26.9657 2.46661 22.502 2.46661C17.9293 2.46661 13.6833 3.91052 10.526 6.61788C10.1994 6.88862 9.98163 7.2496 9.98163 7.61058C9.98163 7.97157 10.1994 8.33255 10.526 8.60329C10.8526 8.87403 11.2881 9.05452 11.7236 9.05452C12.1591 9.05452 12.5946 8.87403 12.9212 8.60329C15.4253 6.4374 18.9092 5.2642 22.502 5.2642Z" fill="white"/>
</svg>
