<svg width="50" height="50" viewBox="0 0 50 50" fill="none" xmlns="http://www.w3.org/2000/svg">
<path d="M34.2257 42.7389H33.8201V4.13613C33.8201 1.85547 31.9647 0 29.6839 0H20.3164C18.0357 0 16.1802 1.85547 16.1802 4.13613V42.7388H15.7747C13.6211 42.7388 11.8691 44.4908 11.8691 46.6443V49.004C11.8691 49.554 12.315 50 12.8651 50H37.1353C37.6854 50 38.1313 49.554 38.1313 49.004V46.6444C38.1313 44.4909 36.3793 42.7389 34.2257 42.7389ZM16.1802 48.008H13.861V46.6444H13.8611C13.8611 45.5893 14.7196 44.7309 15.7747 44.7309H16.1802V48.008ZM31.8282 48.008H18.1723V4.13613C18.1723 2.95391 19.1341 1.99199 20.3165 1.99199H29.684C30.8663 1.99199 31.8282 2.95381 31.8282 4.13613V48.008ZM36.1393 48.008H33.8201V44.731H34.2257C35.2808 44.731 36.1393 45.5894 36.1393 46.6445V48.008Z" fill="white"/>
<path d="M22.6583 5.80127C21.1699 5.80127 19.9591 7.01211 19.9591 8.50049C19.9591 9.98887 21.1699 11.1997 22.6583 11.1997C24.1467 11.1997 25.3575 9.98887 25.3575 8.50049C25.3575 7.01211 24.1466 5.80127 22.6583 5.80127ZM22.6583 9.20762C22.2684 9.20762 21.9512 8.89043 21.9512 8.50049C21.9512 8.11055 22.2684 7.79336 22.6583 7.79336C23.0483 7.79336 23.3655 8.11055 23.3655 8.50049C23.3655 8.89043 23.0482 9.20762 22.6583 9.20762Z" fill="white"/>
<path d="M22.6583 13.572C21.1699 13.572 19.9591 14.7829 19.9591 16.2712C19.9591 17.7596 21.1699 18.9706 22.6583 18.9706C24.1467 18.9706 25.3575 17.7597 25.3575 16.2712C25.3573 14.783 24.1466 13.572 22.6583 13.572ZM22.6583 16.9785C22.2684 16.9785 21.9512 16.6612 21.9512 16.2712C21.9512 15.8813 22.2684 15.5641 22.6583 15.5641C23.0483 15.5641 23.3655 15.8813 23.3655 16.2712C23.3655 16.6612 23.0482 16.9785 22.6583 16.9785Z" fill="white"/>
<path d="M22.6583 21.3428C21.1699 21.3428 19.9591 22.5536 19.9591 24.0421C19.9591 25.5304 21.1699 26.7413 22.6583 26.7413C24.1467 26.7413 25.3575 25.5305 25.3575 24.0421C25.3573 22.5536 24.1466 21.3428 22.6583 21.3428ZM22.6583 24.7491C22.2684 24.7491 21.9512 24.4319 21.9512 24.042C21.9512 23.6521 22.2684 23.3348 22.6583 23.3348C23.0483 23.3348 23.3655 23.6521 23.3655 24.042C23.3655 24.4319 23.0482 24.7491 22.6583 24.7491Z" fill="white"/>
<path d="M22.5517 33.2649C22.0016 33.2649 21.5557 33.7109 21.5557 34.2609V44.7993C21.5557 45.3493 22.0016 45.7953 22.5517 45.7953C23.1018 45.7953 23.5477 45.3493 23.5477 44.7993V34.2609C23.5478 33.7109 23.1018 33.2649 22.5517 33.2649Z" fill="white"/>
<path d="M22.5517 28.9005C22.0016 28.9005 21.5557 29.3465 21.5557 29.8965V30.5352C21.5557 31.0852 22.0016 31.5312 22.5517 31.5312C23.1018 31.5312 23.5477 31.0852 23.5477 30.5352V29.8965C23.5478 29.3465 23.1018 28.9005 22.5517 28.9005Z" fill="white"/>
</svg>
