<svg width="184" height="45" viewBox="0 0 184 45" fill="none" xmlns="http://www.w3.org/2000/svg">
<path d="M0.000610352 4.77225H0.883046L6.14189 11.4621V4.77225H7.0601V13.1196H6.30883L0.918821 6.27477V13.1196H0.000610352V4.77225Z" fill="white"/>
<path d="M11.6874 13.2508C11.1706 13.2508 10.6976 13.1753 10.2683 13.0242C9.84699 12.8652 9.4813 12.6347 9.17125 12.3326C8.86916 12.0225 8.63464 11.6409 8.46769 11.1878C8.30074 10.7347 8.21727 10.2139 8.21727 9.62564V4.77225H9.15933V9.56602C9.15933 10.4723 9.38192 11.1679 9.82712 11.6529C10.2803 12.1378 10.9083 12.3803 11.7112 12.3803C12.4824 12.3803 13.0945 12.1497 13.5477 11.6886C14.0008 11.2275 14.2274 10.5399 14.2274 9.62564V4.77225H15.1694V9.5541C15.1694 10.1662 15.086 10.7029 14.919 11.1639C14.7521 11.625 14.5136 12.0106 14.2035 12.3207C13.9014 12.6307 13.5357 12.8652 13.1064 13.0242C12.6851 13.1753 12.2121 13.2508 11.6874 13.2508Z" fill="white"/>
<path d="M16.3236 4.77225H22.3576V5.63083H17.2657V8.48086H21.821V9.33945H17.2657V12.261H22.4172V13.1196H16.3236V4.77225Z" fill="white"/>
<path d="M22.5236 4.77225H23.573L26.5422 11.9629L29.5235 4.77225H30.5371L26.9477 13.1792H26.113L22.5236 4.77225Z" fill="white"/>
<path d="M35.0089 12.3922C35.4859 12.3922 35.9231 12.3048 36.3206 12.1299C36.726 11.947 37.0719 11.7006 37.358 11.3905C37.6442 11.0805 37.8668 10.7188 38.0258 10.3054C38.1928 9.89197 38.2763 9.44677 38.2763 8.96978V8.94593C38.2763 8.46894 38.1928 8.02375 38.0258 7.61035C37.8668 7.18901 37.6403 6.82331 37.3461 6.51327C37.052 6.20322 36.7022 5.95678 36.2967 5.77393C35.8992 5.59108 35.462 5.49966 34.985 5.49966C34.508 5.49966 34.0668 5.59108 33.6614 5.77393C33.2639 5.94883 32.922 6.1913 32.6358 6.50135C32.3496 6.81139 32.1231 7.17311 31.9561 7.5865C31.7971 7.9999 31.7176 8.44509 31.7176 8.92208V8.94593C31.7176 9.42292 31.7971 9.87209 31.9561 10.2934C32.1231 10.7068 32.3536 11.0685 32.6477 11.3786C32.9419 11.6886 33.2877 11.9351 33.6852 12.1179C34.0907 12.3008 34.5319 12.3922 35.0089 12.3922ZM34.985 13.2627C34.349 13.2627 33.7687 13.1474 33.244 12.9169C32.7272 12.6863 32.2821 12.3763 31.9084 11.9868C31.5348 11.5893 31.2446 11.1321 31.0379 10.6154C30.8392 10.0907 30.7398 9.54217 30.7398 8.96978V8.94593C30.7398 8.37354 30.8431 7.825 31.0498 7.30031C31.2565 6.77562 31.5467 6.3185 31.9203 5.92895C32.294 5.53146 32.7431 5.21744 33.2678 4.98689C33.7925 4.7484 34.3729 4.62915 35.0089 4.62915C35.6449 4.62915 36.2212 4.74442 36.738 4.97497C37.2626 5.20552 37.7118 5.51954 38.0855 5.91703C38.4591 6.30657 38.7453 6.76369 38.944 7.28838C39.1507 7.80512 39.2541 8.34969 39.2541 8.92208C39.262 8.93003 39.262 8.93798 39.2541 8.94593C39.2541 9.51832 39.1507 10.0669 38.944 10.5916C38.7374 11.1162 38.4472 11.5773 38.0735 11.9748C37.6999 12.3644 37.2507 12.6784 36.726 12.9169C36.2013 13.1474 35.621 13.2627 34.985 13.2627Z" fill="white"/>
<path d="M45.5673 12.2491C46.0919 12.2491 46.5689 12.1656 46.9982 11.9987C47.4275 11.8317 47.7892 11.6012 48.0834 11.307C48.3855 11.0129 48.616 10.6671 48.775 10.2696C48.942 9.86414 49.0255 9.43087 49.0255 8.96978V8.94593C49.0255 8.48484 48.942 8.05554 48.775 7.65805C48.616 7.25261 48.3855 6.90281 48.0834 6.60867C47.7892 6.30657 47.4275 6.07205 46.9982 5.9051C46.5689 5.73021 46.0919 5.64276 45.5673 5.64276H43.6116V12.2491H45.5673ZM42.6695 4.77225H45.5673C46.2191 4.77225 46.8154 4.87957 47.356 5.09422C47.9045 5.30091 48.3736 5.59108 48.7631 5.96473C49.1606 6.33837 49.4667 6.77959 49.6813 7.28838C49.896 7.78922 50.0033 8.33379 50.0033 8.92208V8.94593C50.0033 9.53422 49.896 10.0828 49.6813 10.5916C49.4667 11.1003 49.1606 11.5416 48.7631 11.9152C48.3736 12.2889 47.9045 12.583 47.356 12.7976C46.8154 13.0123 46.2191 13.1196 45.5673 13.1196H42.6695V4.77225Z" fill="white"/>
<path d="M50.9242 4.77225H56.9581V5.63083H51.8663V8.48086H56.4215V9.33945H51.8663V12.261H57.0178V13.1196H50.9242V4.77225Z" fill="white"/>
<path d="M61.6556 13.2627C61.0514 13.2627 60.4949 13.1514 59.9861 12.9288C59.4773 12.7062 59.0361 12.4041 58.6625 12.0225C58.2888 11.633 57.9947 11.1759 57.78 10.6512C57.5733 10.1265 57.47 9.56602 57.47 8.96978V8.94593C57.47 8.35764 57.5733 7.80115 57.78 7.27646C57.9947 6.75177 58.2888 6.29465 58.6625 5.9051C59.0361 5.50761 59.4813 5.19757 59.998 4.97497C60.5148 4.74442 61.0792 4.62915 61.6914 4.62915C62.073 4.62915 62.4148 4.66095 62.7169 4.72455C63.0269 4.78815 63.3131 4.87957 63.5755 4.99882C63.8378 5.11012 64.0803 5.24924 64.3029 5.41619C64.5255 5.57518 64.7401 5.75406 64.9468 5.9528L64.3029 6.64444C63.9452 6.31055 63.5596 6.03628 63.1462 5.82163C62.7407 5.60698 62.2518 5.49966 61.6794 5.49966C61.2183 5.49966 60.7891 5.58711 60.3916 5.76201C60.002 5.9369 59.6602 6.17938 59.366 6.48942C59.0798 6.79947 58.8533 7.16516 58.6863 7.5865C58.5273 7.9999 58.4478 8.44509 58.4478 8.92208V8.94593C58.4478 9.43087 58.5273 9.88402 58.6863 10.3054C58.8533 10.7188 59.0798 11.0805 59.366 11.3905C59.6602 11.7006 60.002 11.947 60.3916 12.1299C60.7891 12.3048 61.2183 12.3922 61.6794 12.3922C62.2518 12.3922 62.7447 12.2889 63.1581 12.0822C63.5715 11.8675 63.977 11.5694 64.3744 11.1878L64.9945 11.796C64.7799 12.0186 64.5533 12.2213 64.3148 12.4041C64.0843 12.579 63.8339 12.7301 63.5636 12.8573C63.2933 12.9845 63.0031 13.0838 62.693 13.1554C62.383 13.2269 62.0372 13.2627 61.6556 13.2627Z" fill="white"/>
<path d="M69.4697 12.3922C69.9467 12.3922 70.3839 12.3048 70.7814 12.1299C71.1869 11.947 71.5327 11.7006 71.8189 11.3905C72.1051 11.0805 72.3277 10.7188 72.4867 10.3054C72.6536 9.89197 72.7371 9.44677 72.7371 8.96978V8.94593C72.7371 8.46894 72.6536 8.02375 72.4867 7.61035C72.3277 7.18901 72.1011 6.82331 71.807 6.51327C71.5128 6.20322 71.163 5.95678 70.7576 5.77393C70.3601 5.59108 69.9228 5.49966 69.4458 5.49966C68.9689 5.49966 68.5276 5.59108 68.1222 5.77393C67.7247 5.94883 67.3828 6.1913 67.0967 6.50135C66.8105 6.81139 66.5839 7.17311 66.4169 7.5865C66.2579 7.9999 66.1784 8.44509 66.1784 8.92208V8.94593C66.1784 9.42292 66.2579 9.87209 66.4169 10.2934C66.5839 10.7068 66.8144 11.0685 67.1086 11.3786C67.4027 11.6886 67.7485 11.9351 68.146 12.1179C68.5515 12.3008 68.9927 12.3922 69.4697 12.3922ZM69.4458 13.2627C68.8099 13.2627 68.2295 13.1474 67.7048 12.9169C67.1881 12.6863 66.7429 12.3763 66.3692 11.9868C65.9956 11.5893 65.7054 11.1321 65.4987 10.6154C65.3 10.0907 65.2006 9.54217 65.2006 8.96978V8.94593C65.2006 8.37354 65.304 7.825 65.5107 7.30031C65.7174 6.77562 66.0075 6.3185 66.3812 5.92895C66.7548 5.53146 67.204 5.21744 67.7287 4.98689C68.2534 4.7484 68.8337 4.62915 69.4697 4.62915C70.1057 4.62915 70.682 4.74442 71.1988 4.97497C71.7235 5.20552 72.1727 5.51954 72.5463 5.91703C72.9199 6.30657 73.2061 6.76369 73.4049 7.28838C73.6116 7.80512 73.7149 8.34969 73.7149 8.92208C73.7229 8.93003 73.7229 8.93798 73.7149 8.94593C73.7149 9.51832 73.6116 10.0669 73.4049 10.5916C73.1982 11.1162 72.908 11.5773 72.5344 11.9748C72.1607 12.3644 71.7116 12.6784 71.1869 12.9169C70.6622 13.1474 70.0818 13.2627 69.4458 13.2627Z" fill="white"/>
<path d="M80.9463 13.2627C80.3421 13.2627 79.7856 13.1514 79.2768 12.9288C78.768 12.7062 78.3268 12.4041 77.9532 12.0225C77.5795 11.633 77.2854 11.1759 77.0707 10.6512C76.864 10.1265 76.7607 9.56602 76.7607 8.96978V8.94593C76.7607 8.35764 76.864 7.80115 77.0707 7.27646C77.2854 6.75177 77.5795 6.29465 77.9532 5.9051C78.3268 5.50761 78.772 5.19757 79.2888 4.97497C79.8055 4.74442 80.3699 4.62915 80.9821 4.62915C81.3637 4.62915 81.7055 4.66095 82.0076 4.72455C82.3176 4.78815 82.6038 4.87957 82.8662 4.99882C83.1285 5.11012 83.371 5.24924 83.5936 5.41619C83.8162 5.57518 84.0308 5.75406 84.2375 5.9528L83.5936 6.64444C83.2359 6.31055 82.8503 6.03628 82.4369 5.82163C82.0315 5.60698 81.5425 5.49966 80.9701 5.49966C80.5091 5.49966 80.0798 5.58711 79.6823 5.76201C79.2927 5.9369 78.9509 6.17938 78.6567 6.48942C78.3705 6.79947 78.144 7.16516 77.977 7.5865C77.818 7.9999 77.7385 8.44509 77.7385 8.92208V8.94593C77.7385 9.43087 77.818 9.88402 77.977 10.3054C78.144 10.7188 78.3705 11.0805 78.6567 11.3905C78.9509 11.7006 79.2927 11.947 79.6823 12.1299C80.0798 12.3048 80.5091 12.3922 80.9701 12.3922C81.5425 12.3922 82.0354 12.2889 82.4488 12.0822C82.8622 11.8675 83.2677 11.5694 83.6652 11.1878L84.2852 11.796C84.0706 12.0186 83.844 12.2213 83.6055 12.4041C83.375 12.579 83.1246 12.7301 82.8543 12.8573C82.584 12.9845 82.2938 13.0838 81.9838 13.1554C81.6737 13.2269 81.3279 13.2627 80.9463 13.2627Z" fill="white"/>
<path d="M88.7604 12.3922C89.2374 12.3922 89.6746 12.3048 90.0721 12.1299C90.4776 11.947 90.8234 11.7006 91.1096 11.3905C91.3958 11.0805 91.6184 10.7188 91.7774 10.3054C91.9443 9.89197 92.0278 9.44677 92.0278 8.96978V8.94593C92.0278 8.46894 91.9443 8.02375 91.7774 7.61035C91.6184 7.18901 91.3918 6.82331 91.0977 6.51327C90.8035 6.20322 90.4537 5.95678 90.0483 5.77393C89.6508 5.59108 89.2135 5.49966 88.7365 5.49966C88.2596 5.49966 87.8183 5.59108 87.4129 5.77393C87.0154 5.94883 86.6736 6.1913 86.3874 6.50135C86.1012 6.81139 85.8746 7.17311 85.7076 7.5865C85.5487 7.9999 85.4692 8.44509 85.4692 8.92208V8.94593C85.4692 9.42292 85.5487 9.87209 85.7076 10.2934C85.8746 10.7068 86.1051 11.0685 86.3993 11.3786C86.6934 11.6886 87.0392 11.9351 87.4367 12.1179C87.8422 12.3008 88.2834 12.3922 88.7604 12.3922ZM88.7365 13.2627C88.1006 13.2627 87.5202 13.1474 86.9955 12.9169C86.4788 12.6863 86.0336 12.3763 85.6599 11.9868C85.2863 11.5893 84.9961 11.1321 84.7894 10.6154C84.5907 10.0907 84.4913 9.54217 84.4913 8.96978V8.94593C84.4913 8.37354 84.5947 7.825 84.8014 7.30031C85.0081 6.77562 85.2982 6.3185 85.6719 5.92895C86.0455 5.53146 86.4947 5.21744 87.0194 4.98689C87.5441 4.7484 88.1244 4.62915 88.7604 4.62915C89.3964 4.62915 89.9728 4.74442 90.4895 4.97497C91.0142 5.20552 91.4634 5.51954 91.837 5.91703C92.2106 6.30657 92.4968 6.76369 92.6956 7.28838C92.9023 7.80512 93.0056 8.34969 93.0056 8.92208C93.0136 8.93003 93.0136 8.93798 93.0056 8.94593C93.0056 9.51832 92.9023 10.0669 92.6956 10.5916C92.4889 11.1162 92.1987 11.5773 91.8251 11.9748C91.4514 12.3644 91.0023 12.6784 90.4776 12.9169C89.9529 13.1474 89.3725 13.2627 88.7365 13.2627Z" fill="white"/>
<path d="M93.9192 4.77225H94.8016L100.06 11.4621V4.77225H100.979V13.1196H100.227L94.8374 6.27477V13.1196H93.9192V4.77225Z" fill="white"/>
<mask id="mask0_139_918" style="mask-type:luminance" maskUnits="userSpaceOnUse" x="106" y="0" width="78" height="14">
<path d="M106.804 13.1843H183.998V-1.19922e-05H106.804V13.1843Z" fill="white"/>
</mask>
<g mask="url(#mask0_139_918)">
<path d="M111.803 10.918C110.356 10.918 109.185 9.70838 109.185 8.20444C109.185 6.7289 110.356 5.50122 111.803 5.50122C112.765 5.50122 113.727 5.94918 114.136 6.76763C114.164 6.82444 114.202 6.9006 114.202 6.99613V9.39468C114.202 9.44244 114.173 9.54701 114.154 9.57541C113.707 10.3939 112.793 10.918 111.803 10.918ZM116.554 12.9835V3.46412H114.202V4.26321C113.545 3.62549 112.65 3.27435 111.546 3.27435C108.852 3.27435 106.806 5.46378 106.806 8.20444C106.806 10.9567 108.852 13.1746 111.546 13.1746C112.65 13.1746 113.545 12.8028 114.202 12.165V12.9835H116.554ZM126.768 12.9835V7.83393C126.768 5.30112 124.798 3.27435 122.284 3.27435C119.762 3.27435 117.801 5.30112 117.801 7.83393V12.9835H120.152V7.83393C120.152 6.58689 121.028 5.63418 122.284 5.63418C123.531 5.63418 124.417 6.58689 124.417 7.83393V12.9835H126.768ZM132.746 10.918C131.299 10.918 130.128 9.70838 130.128 8.20444C130.128 6.7289 131.299 5.50122 132.746 5.50122C133.708 5.50122 134.622 5.97758 135.079 6.76763C135.107 6.82444 135.145 6.9006 135.145 6.99613V9.40502C135.145 9.45278 135.116 9.54701 135.098 9.57541C134.65 10.3939 133.736 10.918 132.746 10.918ZM137.497 12.9835V0.60856H135.145V4.26321C134.489 3.62549 133.593 3.24466 132.489 3.24466C129.795 3.24466 127.749 5.46378 127.749 8.20444C127.749 10.9567 129.795 13.1746 132.489 13.1746C133.593 13.1746 134.489 12.8028 135.145 12.165V12.9835H137.497ZM141.095 12.9835V7.89979C141.095 6.39584 141.885 5.59674 143.389 5.59674V3.27435C140.361 3.27435 138.744 4.88287 138.744 7.89979V12.9835H141.095ZM148.529 10.8044C147.101 10.8044 145.941 9.64254 145.941 8.20444C145.941 6.77666 147.101 5.61612 148.529 5.61612C149.976 5.61612 151.129 6.77666 151.129 8.20444C151.129 9.64254 149.976 10.8044 148.529 10.8044ZM148.529 13.1746C151.281 13.1746 153.508 10.9567 153.508 8.20444C153.508 5.46378 151.281 3.27435 148.529 3.27435C145.789 3.27435 143.56 5.46378 143.56 8.20444C143.56 10.9567 145.789 13.1746 148.529 13.1746ZM155.755 2.7412C156.507 2.7412 157.116 2.12155 157.116 1.37023C157.116 0.608575 156.507 -0.000762895 155.755 -0.000762895C155.003 -0.000762895 154.394 0.608575 154.394 1.37023C154.394 2.12155 155.003 2.7412 155.755 2.7412ZM156.925 3.46412H154.573V12.9835H156.925V3.46412ZM162.99 10.918C161.543 10.918 160.372 9.70838 160.372 8.20444C160.372 6.7289 161.543 5.50122 162.99 5.50122C163.952 5.50122 164.865 5.97758 165.322 6.76763C165.351 6.82444 165.389 6.9006 165.389 6.99613V9.41404C165.389 9.4618 165.36 9.54701 165.341 9.57541C164.894 10.3939 163.98 10.918 162.99 10.918ZM167.74 12.9835V0.60856H165.389V4.26321C164.732 3.62549 163.837 3.27435 162.733 3.27435C160.039 3.27435 157.992 5.46378 157.992 8.20444C157.992 10.9567 160.039 13.1836 162.733 13.1836C163.837 13.1836 164.732 12.8028 165.389 12.165V12.9835H167.74Z" fill="white"/>
<path d="M180.135 12.9831L184 3.45338H182.058L178.897 11.7167H179.554L176.384 3.46372H174.385L178.25 12.9831H180.135ZM173.919 13.0967L173.928 11.403H173.719C172.339 11.403 171.367 10.5742 171.367 9.17482V5.03478H173.852V3.46372H171.367V0.883125H169.644V9.17482C169.644 11.6405 171.244 13.0967 173.719 13.0967H173.919Z" fill="white"/>
</g>
<path d="M93.7513 19.4768H88.2136V44.5812H93.7513V19.4768Z" fill="white"/>
<path fill-rule="evenodd" clip-rule="evenodd" d="M77.2943 44.5812L77.2163 29.5022L70.1185 41.9729H67.6226L60.6029 29.8283V44.5812H55.3771V19.4768H59.979L69.0266 35.0448L77.8402 19.4768H82.442L82.52 44.5812H77.2943Z" fill="white"/>
<path d="M49.6838 19.4768H44.146V44.5812H49.6838V19.4768Z" fill="white"/>
<path fill-rule="evenodd" clip-rule="evenodd" d="M34.1631 44.5812L29.5613 37.5715H26.7534V44.5812H21.2157V19.4768H29.3273C31.4332 19.4768 33.3052 19.8843 34.8651 20.6179C36.425 21.3515 37.673 22.4111 38.453 23.7967C39.3109 25.1823 39.7009 26.8125 39.7009 28.6057C39.7009 30.4803 39.2329 32.1105 38.375 33.4146C37.517 34.8002 36.269 35.7783 34.7091 36.5119L40.0909 44.5812H34.1631ZM34.0851 28.6057C34.0851 27.22 33.6171 26.0789 32.7592 25.3453C31.9012 24.6118 30.6533 24.2042 28.9373 24.2042H26.7534V32.9256H28.9373C30.5753 32.9256 31.9012 32.518 32.7592 31.7845C33.6171 31.0509 34.0851 29.9913 34.0851 28.6057Z" fill="white"/>
<path fill-rule="evenodd" clip-rule="evenodd" d="M6.08375 24.2042H0V19.4768H17.5493V24.2042H11.6995V44.5812H6.08375V24.2042Z" fill="white"/>
<path d="M123.857 31.377C125.963 30.3989 127.523 28.6873 127.523 25.753V25.6715C127.523 23.9598 126.977 22.6557 125.963 21.5961C124.637 20.2105 122.531 19.3954 119.49 19.3954H107.166V44.4183H119.568C125.261 44.4183 128.615 41.81 128.615 37.4901V37.4086C128.615 34.0668 126.821 32.3551 123.857 31.377ZM113.64 25.0194H118.008C119.958 25.0194 121.049 25.753 121.049 27.1386V27.2201C121.049 28.6873 119.88 29.4208 117.852 29.4208H113.64V25.0194ZM121.985 36.5935C121.985 38.0607 120.815 38.8758 118.788 38.8758H113.64V34.2298H118.71C120.971 34.2298 121.985 35.1264 121.985 36.5935Z" fill="white"/>
<path d="M150.707 19.4766H138.384C134.952 19.4766 132.222 22.4109 132.222 25.9158V37.8974C132.222 41.4838 135.03 44.3365 138.384 44.3365H150.707C154.139 44.3365 156.869 41.4022 156.869 37.8974V25.9158C156.869 22.3294 154.139 19.4766 150.707 19.4766ZM148.757 32.0288C148.757 32.1919 148.679 32.4364 148.445 32.5179L143.688 36.6748C143.376 36.9193 142.986 37.2453 142.596 37.1638C142.206 37.0823 142.128 36.7563 142.128 36.5118V27.4644C142.128 27.2199 142.206 26.8939 142.596 26.8123C143.064 26.7308 143.376 26.9754 143.688 27.3014L148.445 31.4583C148.601 31.6213 148.679 31.7843 148.757 31.9473C148.757 31.8658 148.757 31.9473 148.757 32.0288C148.757 31.9473 148.757 31.9473 148.757 32.0288Z" fill="white"/>
<path d="M158.669 44.37L167.231 31.6686L159.025 19.3954H166.982L171.406 26.4239L175.865 19.3954H183.643L175.437 31.5973L184 44.37H176.044L171.263 36.8419L166.446 44.37H158.669Z" fill="white"/>
</svg>
