<svg width="146" height="47" viewBox="0 0 146 47" fill="none" xmlns="http://www.w3.org/2000/svg">
<path fill-rule="evenodd" clip-rule="evenodd" d="M140.924 13.1158H145.731V33.8609H140.924V13.1158Z" fill="white"/>
<path fill-rule="evenodd" clip-rule="evenodd" d="M131.519 33.8606L131.467 21.4241L125.353 31.6659H123.21L117.097 21.6853V33.8606H112.603V13.1156H116.574L124.36 26.0225L131.989 13.1156H135.96L136.013 33.8606H131.519Z" fill="white"/>
<path fill-rule="evenodd" clip-rule="evenodd" d="M102.883 13.1156H107.69V33.8606H102.883V13.1156Z" fill="white"/>
<path fill-rule="evenodd" clip-rule="evenodd" d="M94.2602 33.8606L90.2889 28.1126H90.0276H87.8329V33.8606H83.0255V13.1156H90.0276C91.8739 13.1156 93.4764 13.4117 94.835 14.0039C96.1936 14.631 97.2387 15.5019 97.9703 16.6167C98.7018 17.7663 99.0676 19.1074 99.0676 20.6402C99.0676 22.173 98.7018 23.4968 97.9703 24.6116C97.2039 25.7612 96.1414 26.6321 94.7828 27.2243L99.4334 33.8606H94.2602ZM94.1557 20.6402C94.1557 19.4906 93.7899 18.6023 93.0583 17.9753C92.2919 17.3482 91.1946 17.0347 89.7663 17.0347H87.8329V24.2458H89.7663C91.1946 24.2458 92.2919 23.9323 93.0583 23.3052C93.7899 22.6782 94.1557 21.7898 94.1557 20.6402Z" fill="white"/>
<path fill-rule="evenodd" clip-rule="evenodd" d="M70.0138 17.0349H64.7361V13.1158H79.9421V17.0349H74.8212V33.8609H70.0138V17.0349Z" fill="white"/>
<path d="M51.4107 8.62199C49.2683 4.0236 45.3492 2.03792 44.1996 1.51538C44.1299 1.48054 44.0603 1.44571 43.9906 1.41088C41.2211 0.104515 38.7651 0 37.7723 0C36.8317 0 35.9956 0.0522513 35.2118 0.209015C33.5919 0.470287 32.3901 0.940587 31.8153 1.14961C28.3142 2.66499 26.5376 5.01644 26.4853 5.06869C26.4331 5.01644 24.6564 2.66499 21.1554 1.14961C20.5806 0.940587 19.3787 0.470287 17.7588 0.209015C16.975 0.0522513 16.139 0 15.1984 0C14.2578 0 11.8018 0.104515 9.03234 1.41088C8.92783 1.44571 8.84074 1.48054 8.77106 1.51538C7.62147 2.03792 3.70239 4.0236 1.55995 8.62199C-0.216698 12.4888 0.305844 15.9899 0.462607 17.1395C1.24642 22.2082 4.32944 25.2912 5.37452 26.284L9.03234 29.9418L17.7588 38.6683L25.4403 46.402C25.4403 46.402 25.806 46.7155 25.9628 46.82C26.0325 46.8897 26.1021 46.9419 26.1718 46.9768C26.2763 46.9768 26.3808 47.029 26.4853 46.9768C26.6421 46.9768 26.7989 46.9768 26.8511 46.9245C26.9208 46.9245 26.9905 46.8897 27.0601 46.82C27.1646 46.7155 27.5304 46.402 27.5304 46.402L35.2118 38.6683L43.9906 29.9418L47.5961 26.284C48.6412 25.2912 51.7242 22.2082 52.5081 17.1395C52.7171 15.9899 53.1874 12.4888 51.4107 8.62199Z" fill="url(#paint0_linear_139_858)"/>
<path fill-rule="evenodd" clip-rule="evenodd" d="M24.9736 12.8545L34.4317 20.6926C34.7452 21.0062 34.9543 21.3197 34.9543 21.6855C34.9543 21.7203 34.9543 21.7551 34.9543 21.79C34.9543 21.8248 34.9543 21.8596 34.9543 21.8945C34.9543 22.2603 34.7452 22.626 34.4317 22.8873L24.9736 30.7777C24.3466 31.248 23.615 31.8228 22.7267 31.6138C21.9951 31.4048 21.8384 30.83 21.7861 30.3074V21.8945V21.6855V13.2725C21.8384 12.7499 21.9951 12.1751 22.7267 12.0184C23.615 11.8094 24.3466 12.3319 24.9736 12.8545Z" fill="white"/>
<defs>
<linearGradient id="paint0_linear_139_858" x1="0.268744" y1="-0.0120188" x2="52.7187" y2="-0.0120188" gradientUnits="userSpaceOnUse">
<stop offset="0.034" stop-color="#FFC400"/>
<stop offset="0.169" stop-color="#FF7400"/>
<stop offset="0.358" stop-color="#FF0000"/>
<stop offset="0.526" stop-color="#D632EA"/>
<stop offset="0.671" stop-color="#136DEA"/>
<stop offset="0.855" stop-color="#13C2EA"/>
<stop offset="1" stop-color="#3BE28A"/>
</linearGradient>
</defs>
</svg>
