<svg width="125" height="41" viewBox="0 0 125 41" fill="none" xmlns="http://www.w3.org/2000/svg">
<path fill-rule="evenodd" clip-rule="evenodd" d="M120.529 11.3327H124.629V29.0266H120.529V11.3327Z" fill="#454545"/>
<path fill-rule="evenodd" clip-rule="evenodd" d="M112.507 29.0266L112.462 18.4192L107.247 27.1547H105.42L100.206 18.642V29.0266H96.3727V11.3327H99.7599L106.401 22.3412L112.908 11.3327H116.295L116.34 29.0266H112.507Z" fill="#454545"/>
<path fill-rule="evenodd" clip-rule="evenodd" d="M88.0829 11.3327H92.1833V29.0266H88.0829V11.3327Z" fill="#454545"/>
<path fill-rule="evenodd" clip-rule="evenodd" d="M80.729 29.0266L77.3418 24.124H77.1189H75.247V29.0266H71.1467V11.3327H77.1189C78.6937 11.3327 80.0605 11.5853 81.2193 12.0904C82.3781 12.6252 83.2694 13.368 83.8934 14.3188C84.5174 15.2994 84.8293 16.4433 84.8293 17.7506C84.8293 19.058 84.5174 20.1871 83.8934 21.1379C83.2397 22.1184 82.3335 22.8612 81.1747 23.3663L85.1413 29.0266H80.729ZM80.6399 17.7506C80.6399 16.7701 80.3279 16.0124 79.7039 15.4776C79.0502 14.9428 78.1143 14.6754 76.8961 14.6754H75.247V20.8259H76.8961C78.1143 20.8259 79.0502 20.5585 79.7039 20.0236C80.3279 19.4888 80.6399 18.7311 80.6399 17.7506Z" fill="#454545"/>
<path fill-rule="evenodd" clip-rule="evenodd" d="M60.049 14.6754H55.5476V11.3327H68.5171V14.6754H64.1494V29.0266H60.049V14.6754Z" fill="#454545"/>
<path d="M44.1826 7.49979C42.3553 3.57774 39.0126 1.88412 38.0321 1.43843C37.9726 1.40872 37.9132 1.37901 37.8538 1.3493C35.4916 0.235078 33.3969 0.145935 32.5501 0.145935C31.7479 0.145935 31.0348 0.190501 30.3662 0.324208C28.9846 0.547052 27.9595 0.94818 27.4692 1.12646C24.4831 2.41895 22.9678 4.42455 22.9232 4.46912C22.8787 4.42455 21.3633 2.41895 18.3772 1.12646C17.887 0.94818 16.8619 0.547052 15.4802 0.324208C14.8117 0.190501 14.0986 0.145935 13.2964 0.145935C12.4941 0.145935 10.3994 0.235078 8.03723 1.3493C7.94809 1.37901 7.87381 1.40872 7.81439 1.43843C6.83387 1.88412 3.49121 3.57774 1.66389 7.49979C0.148551 10.7979 0.594236 13.784 0.727943 14.7645C1.39648 19.0877 4.02603 21.7173 4.91741 22.5641L8.03723 25.6839L15.4802 33.1269L22.0319 39.7231C22.0319 39.7231 22.3438 39.9905 22.4775 40.0796C22.537 40.139 22.5964 40.1836 22.6558 40.2133C22.745 40.2133 22.8341 40.2579 22.9232 40.2133C23.0569 40.2133 23.1906 40.2133 23.2352 40.1688C23.2946 40.1688 23.3541 40.139 23.4135 40.0796C23.5026 39.9905 23.8146 39.7231 23.8146 39.7231L30.3662 33.1269L37.8538 25.6839L40.929 22.5641C41.8204 21.7173 44.45 19.0877 45.1185 14.7645C45.2968 13.784 45.6979 10.7979 44.1826 7.49979Z" fill="url(#paint0_linear_15_1945)"/>
<path fill-rule="evenodd" clip-rule="evenodd" d="M21.6307 11.1099L29.6977 17.7952C29.9651 18.0626 30.1434 18.3301 30.1434 18.642C30.1434 18.6718 30.1434 18.7015 30.1434 18.7312C30.1434 18.7609 30.1434 18.7906 30.1434 18.8203C30.1434 19.1323 29.9651 19.4443 29.6977 19.6671L21.6307 26.397C21.0959 26.7981 20.472 27.2884 19.7143 27.1101C19.0903 26.9318 18.9566 26.4416 18.912 25.9959V18.8203V18.642V11.4665C18.9566 11.0208 19.0903 10.5305 19.7143 10.3968C20.472 10.2185 21.0959 10.6642 21.6307 11.1099Z" fill="white"/>
<defs>
<linearGradient id="paint0_linear_15_1945" x1="0.562594" y1="0.135684" x2="45.2981" y2="0.135684" gradientUnits="userSpaceOnUse">
<stop offset="0.034" stop-color="#FFC400"/>
<stop offset="0.169" stop-color="#FF7400"/>
<stop offset="0.358" stop-color="#FF0000"/>
<stop offset="0.526" stop-color="#D632EA"/>
<stop offset="0.671" stop-color="#136DEA"/>
<stop offset="0.855" stop-color="#13C2EA"/>
<stop offset="1" stop-color="#3BE28A"/>
</linearGradient>
</defs>
</svg>
