<svg width="117" height="40" viewBox="0 0 117 40" fill="none" xmlns="http://www.w3.org/2000/svg">
<rect width="116.707" height="39.6098" rx="19.8049" fill="#00A06F"/>
<g clip-path="url(#clip0_139_1081)">
<path d="M37.9256 22.4398C37.5897 22.2806 35.9805 21.4849 35.6799 21.3611C35.3793 21.2374 35.1671 21.202 34.9372 21.538C34.7073 21.8739 34.0884 22.5989 33.8939 22.8288C33.6994 23.0587 33.5226 23.0764 33.1866 22.8288C32.2216 22.4416 31.3304 21.8913 30.5519 21.202C29.8471 20.5385 29.2505 19.7688 28.7836 18.9209C28.5891 18.6026 28.7836 18.4258 28.925 18.2489C29.0665 18.0721 29.2433 17.8776 29.4202 17.6831C29.5495 17.5149 29.6565 17.3306 29.7384 17.1349C29.7823 17.0439 29.8051 16.9442 29.8051 16.8431C29.8051 16.7421 29.7823 16.6424 29.7384 16.5514C29.7384 16.3922 28.9958 14.7831 28.7128 14.1288C28.4299 13.4745 28.1823 13.563 27.9878 13.563H27.2805C26.9436 13.5761 26.6256 13.7224 26.3964 13.9697C26.0264 14.3227 25.7333 14.7484 25.5355 15.2201C25.3377 15.6917 25.2395 16.1991 25.247 16.7105C25.3374 17.966 25.7991 19.1662 26.5732 20.1587C27.9938 22.269 29.9373 23.975 32.2141 25.1099C32.9921 25.4459 33.5933 25.6404 34.0708 25.7995C34.7412 26.0022 35.4498 26.0446 36.1397 25.9233C36.5978 25.8304 37.032 25.6443 37.4153 25.3766C37.7985 25.1089 38.1227 24.7654 38.3677 24.3672C38.5716 23.8755 38.6388 23.3379 38.5622 22.8111C38.4738 22.6874 38.2616 22.5989 37.9256 22.4398Z" fill="white"/>
<path d="M41.2323 10.3976C40.0094 9.16309 38.5517 8.186 36.9451 7.52394C35.3386 6.86187 33.6157 6.52823 31.8781 6.54269C29.5763 6.55473 27.3179 7.17049 25.3286 8.32845C23.3392 9.48642 21.6885 11.1461 20.5413 13.1416C19.394 15.1372 18.7905 17.3988 18.7908 19.7007C18.7912 22.0025 19.3955 24.2639 20.5433 26.2592L18.775 33.0671L25.7421 31.2988C27.6682 32.3469 29.8268 32.8941 32.0195 32.8902H31.8781C34.4915 32.9073 37.0507 32.1456 39.2295 30.7023C41.4082 29.2589 43.1077 27.1994 44.1113 24.7863C45.1148 22.3732 45.377 19.7159 44.8642 17.1533C44.3515 14.5906 43.0871 12.2388 41.2323 10.3976ZM31.8781 30.6268C29.9162 30.6284 27.9909 30.0966 26.308 29.0884L25.9189 28.8585L21.7811 29.9372L22.8775 25.9055L22.6299 25.4988C21.2177 23.2245 20.6894 20.5109 21.1453 17.8729C21.6013 15.2349 23.0097 12.856 25.1033 11.1876C27.197 9.51923 29.8302 8.6774 32.5034 8.82187C35.1767 8.96634 37.7038 10.087 39.6055 11.9713C40.625 12.9826 41.433 14.1867 41.9825 15.5134C42.532 16.84 42.812 18.2628 42.8061 19.6988C42.8014 22.5956 41.6486 25.3725 39.6002 27.4209C37.5518 29.4693 34.7749 30.6222 31.8781 30.6268Z" fill="white"/>
</g>
<path d="M57.2145 15.8618L53.9522 25.8051H51.3243L55.7811 13.8105H57.4534L57.2145 15.8618ZM59.9248 25.8051L56.6543 15.8618L56.3907 13.8105H58.0795L62.561 25.8051H59.9248ZM59.7765 21.3401V23.276H53.4415V21.3401H59.7765ZM65.7573 24.8L68.1216 16.8915H70.6671L67.0836 27.1478C67.0067 27.373 66.9024 27.6147 66.7706 27.8728C66.6443 28.1309 66.4713 28.3753 66.2516 28.606C66.0374 28.8421 65.7655 29.0343 65.436 29.1826C65.112 29.3309 64.7138 29.4051 64.2415 29.4051C64.0163 29.4051 63.8324 29.3913 63.6896 29.3639C63.5468 29.3364 63.3765 29.298 63.1788 29.2485V27.5103C63.2392 27.5103 63.3024 27.5103 63.3683 27.5103C63.4342 27.5158 63.4973 27.5186 63.5578 27.5186C63.8708 27.5186 64.1262 27.4829 64.3239 27.4115C64.5216 27.3401 64.6809 27.2302 64.8017 27.0819C64.9225 26.9392 65.0186 26.7524 65.09 26.5218L65.7573 24.8ZM64.7687 16.8915L66.7047 23.3501L67.0424 25.8627L65.4278 26.0357L62.2232 16.8915H64.7687ZM76.8868 23.6714V16.8915H79.2594V25.8051H77.0269L76.8868 23.6714ZM77.1504 21.8426L77.8507 21.8261C77.8507 22.4192 77.782 22.9712 77.6447 23.4819C77.5074 23.9872 77.3015 24.4266 77.0269 24.8C76.7523 25.168 76.4063 25.4563 75.9889 25.665C75.5715 25.8682 75.08 25.9698 74.5143 25.9698C74.0804 25.9698 73.6795 25.9094 73.3115 25.7886C72.9491 25.6623 72.636 25.4673 72.3724 25.2037C72.1143 24.9346 71.9111 24.5913 71.7628 24.1739C71.62 23.751 71.5486 23.243 71.5486 22.6499V16.8915H73.9212V22.6664C73.9212 22.93 73.9514 23.1524 74.0118 23.3337C74.0777 23.5149 74.1683 23.6632 74.2836 23.7785C74.399 23.8938 74.5335 23.9762 74.6873 24.0256C74.8466 24.0751 75.0223 24.0998 75.2145 24.0998C75.7033 24.0998 76.0877 24.0009 76.3678 23.8032C76.6534 23.6055 76.8539 23.3364 76.9692 22.9959C77.09 22.6499 77.1504 22.2655 77.1504 21.8426ZM86.3358 23.8609V13.1515H88.7248V25.8051H86.5747L86.3358 23.8609ZM80.701 21.4554V21.2824C80.701 20.6014 80.7779 19.9835 80.9317 19.4288C81.0855 18.8687 81.3106 18.3881 81.6072 17.9872C81.9038 17.5863 82.269 17.276 82.7029 17.0563C83.1367 16.8366 83.631 16.7268 84.1857 16.7268C84.7074 16.7268 85.1633 16.8366 85.5532 17.0563C85.9486 17.276 86.2836 17.589 86.5582 17.9954C86.8383 18.3963 87.0635 18.8714 87.2338 19.4206C87.404 19.9643 87.5276 20.5602 87.6045 21.2083V21.5872C87.5276 22.2078 87.404 22.7845 87.2338 23.3172C87.0635 23.8499 86.8383 24.3167 86.5582 24.7176C86.2836 25.1131 85.9486 25.4206 85.5532 25.6403C85.1578 25.86 84.6965 25.9698 84.1692 25.9698C83.6145 25.9698 83.1203 25.8572 82.6864 25.6321C82.258 25.4069 81.8955 25.0911 81.599 24.6847C81.3079 24.2783 81.0855 23.8005 80.9317 23.2513C80.7779 22.7021 80.701 22.1034 80.701 21.4554ZM83.0736 21.2824V21.4554C83.0736 21.8234 83.101 22.1666 83.1559 22.4851C83.2164 22.8037 83.3125 23.0865 83.4443 23.3337C83.5816 23.5753 83.7573 23.7648 83.9715 23.9021C84.1912 24.0339 84.4576 24.0998 84.7706 24.0998C85.177 24.0998 85.512 24.0092 85.7756 23.8279C86.0392 23.6412 86.2397 23.3858 86.377 23.0618C86.5198 22.7378 86.6022 22.3643 86.6241 21.9414V20.8623C86.6077 20.5163 86.5582 20.206 86.4759 19.9314C86.399 19.6513 86.2836 19.4124 86.1299 19.2147C85.9816 19.0169 85.7949 18.8632 85.5697 18.7533C85.35 18.6435 85.0891 18.5886 84.7871 18.5886C84.4795 18.5886 84.2159 18.66 83.9962 18.8028C83.7765 18.9401 83.5981 19.1295 83.4608 19.3712C83.3289 19.6128 83.2301 19.8984 83.1642 20.2279C83.1038 20.552 83.0736 20.9034 83.0736 21.2824ZM95.3894 23.795V19.8243C95.3894 19.5387 95.3427 19.2943 95.2493 19.0911C95.156 18.8824 95.0104 18.7204 94.8127 18.605C94.6205 18.4897 94.3706 18.432 94.0631 18.432C93.7994 18.432 93.5715 18.4787 93.3793 18.5721C93.1871 18.66 93.0388 18.789 92.9345 18.9593C92.8301 19.124 92.7779 19.319 92.7779 19.5442H90.4054C90.4054 19.1652 90.4933 18.8055 90.669 18.465C90.8448 18.1245 91.1001 17.8252 91.4351 17.5671C91.7702 17.3034 92.1683 17.0975 92.6297 16.9492C93.0965 16.8009 93.6182 16.7268 94.1949 16.7268C94.8869 16.7268 95.502 16.8421 96.0402 17.0728C96.5784 17.3034 97.0013 17.6494 97.3088 18.1108C97.6219 18.5721 97.7784 19.1488 97.7784 19.8407V23.6549C97.7784 24.1437 97.8086 24.5446 97.869 24.8577C97.9294 25.1652 98.0173 25.4343 98.1326 25.665V25.8051H95.7354C95.62 25.5634 95.5322 25.2613 95.4718 24.8989C95.4168 24.5309 95.3894 24.1629 95.3894 23.795ZM95.7024 20.3762L95.7189 21.719H94.3926C94.0795 21.719 93.8077 21.7547 93.577 21.8261C93.3464 21.8975 93.1569 21.9991 93.0086 22.1309C92.8603 22.2572 92.7505 22.4055 92.6791 22.5758C92.6132 22.746 92.5802 22.9327 92.5802 23.1359C92.5802 23.3391 92.6269 23.5231 92.7203 23.6879C92.8136 23.8472 92.9482 23.9735 93.1239 24.0668C93.2997 24.1547 93.5056 24.1986 93.7418 24.1986C94.0988 24.1986 94.4091 24.1272 94.6727 23.9845C94.9363 23.8417 95.1395 23.6659 95.2823 23.4572C95.4306 23.2485 95.5075 23.0508 95.5129 22.8641L96.139 23.8691C96.0512 24.0943 95.9303 24.3277 95.7766 24.5694C95.6283 24.811 95.4388 25.0389 95.2081 25.2531C94.9775 25.4618 94.7001 25.6348 94.3761 25.7721C94.0521 25.9039 93.6676 25.9698 93.2228 25.9698C92.6571 25.9698 92.1436 25.8572 91.6823 25.6321C91.2264 25.4014 90.864 25.0856 90.5949 24.6847C90.3312 24.2783 90.1994 23.817 90.1994 23.3007C90.1994 22.8339 90.2873 22.4192 90.4631 22.0568C90.6388 21.6943 90.8969 21.3895 91.2374 21.1423C91.5834 20.8897 92.0145 20.7002 92.5308 20.5739C93.047 20.4421 93.6457 20.3762 94.3267 20.3762H95.7024Z" fill="white"/>
<defs>
<clipPath id="clip0_139_1081">
<rect width="28.2927" height="28.2927" fill="white" transform="translate(17.7317 5.65869)"/>
</clipPath>
</defs>
</svg>
